%TF.GenerationSoftware,KiCad,Pcbnew,7.0.1*%
%TF.CreationDate,2023-06-16T22:25:01+09:00*%
%TF.ProjectId,CANFD_HUB,43414e46-445f-4485-9542-2e6b69636164,rev?*%
%TF.SameCoordinates,Original*%
%TF.FileFunction,Soldermask,Top*%
%TF.FilePolarity,Negative*%
%FSLAX46Y46*%
G04 Gerber Fmt 4.6, Leading zero omitted, Abs format (unit mm)*
G04 Created by KiCad (PCBNEW 7.0.1) date 2023-06-16 22:25:01*
%MOMM*%
%LPD*%
G01*
G04 APERTURE LIST*
G04 Aperture macros list*
%AMFreePoly0*
4,1,25,0.333470,0.805066,0.366431,0.783042,0.783042,0.366431,0.805066,0.333470,0.812800,0.294589,0.812800,-0.294589,0.805066,-0.333470,0.783042,-0.366431,0.366431,-0.783042,0.333470,-0.805066,0.294589,-0.812800,-0.294589,-0.812800,-0.333470,-0.805066,-0.366431,-0.783042,-0.783042,-0.366431,-0.805066,-0.333470,-0.812800,-0.294589,-0.812800,0.294589,-0.805066,0.333470,-0.783042,0.366431,
-0.366431,0.783042,-0.333470,0.805066,-0.294589,0.812800,0.294589,0.812800,0.333470,0.805066,0.333470,0.805066,$1*%
G04 Aperture macros list end*
%ADD10C,1.611200*%
%ADD11C,3.250000*%
%ADD12FreePoly0,90.000000*%
%ADD13C,7.213600*%
%ADD14C,3.200000*%
G04 APERTURE END LIST*
D10*
%TO.C,PORT1*%
X113711100Y-98268600D03*
X116001100Y-98268600D03*
X125141100Y-98268600D03*
X127431100Y-98268600D03*
X117001100Y-91668600D03*
X118021100Y-93448600D03*
X119041100Y-91668600D03*
X120061100Y-93448600D03*
X121081100Y-91668600D03*
X122101100Y-93448600D03*
X123121100Y-91668600D03*
X124141100Y-93448600D03*
D11*
X114221100Y-89128600D03*
X126921100Y-89128600D03*
%TD*%
D10*
%TO.C,PORT2*%
X131491100Y-98268600D03*
X133781100Y-98268600D03*
X142921100Y-98268600D03*
X145211100Y-98268600D03*
X134781100Y-91668600D03*
X135801100Y-93448600D03*
X136821100Y-91668600D03*
X137841100Y-93448600D03*
X138861100Y-91668600D03*
X139881100Y-93448600D03*
X140901100Y-91668600D03*
X141921100Y-93448600D03*
D11*
X132001100Y-89128600D03*
X144701100Y-89128600D03*
%TD*%
D10*
%TO.C,PORT3*%
X149271100Y-98268600D03*
X151561100Y-98268600D03*
X160701100Y-98268600D03*
X162991100Y-98268600D03*
X152561100Y-91668600D03*
X153581100Y-93448600D03*
X154601100Y-91668600D03*
X155621100Y-93448600D03*
X156641100Y-91668600D03*
X157661100Y-93448600D03*
X158681100Y-91668600D03*
X159701100Y-93448600D03*
D11*
X149781100Y-89128600D03*
X162481100Y-89128600D03*
%TD*%
D10*
%TO.C,PORT4*%
X167051100Y-98268600D03*
X169341100Y-98268600D03*
X178481100Y-98268600D03*
X180771100Y-98268600D03*
X170341100Y-91668600D03*
X171361100Y-93448600D03*
X172381100Y-91668600D03*
X173401100Y-93448600D03*
X174421100Y-91668600D03*
X175441100Y-93448600D03*
X176461100Y-91668600D03*
X177481100Y-93448600D03*
D11*
X167561100Y-89128600D03*
X180261100Y-89128600D03*
%TD*%
%TO.C,PORT5*%
X114221100Y-120878600D03*
X126921100Y-120878600D03*
D10*
X117001100Y-116558600D03*
X118021100Y-118338600D03*
X119041100Y-116558600D03*
X120061100Y-118338600D03*
X121081100Y-116558600D03*
X122101100Y-118338600D03*
X123121100Y-116558600D03*
X124141100Y-118338600D03*
X113711100Y-111738600D03*
X116001100Y-111738600D03*
X125141100Y-111738600D03*
X127431100Y-111738600D03*
%TD*%
%TO.C,PORT6*%
X145211100Y-111738600D03*
X142921100Y-111738600D03*
X133781100Y-111738600D03*
X131491100Y-111738600D03*
X141921100Y-118338600D03*
X140901100Y-116558600D03*
X139881100Y-118338600D03*
X138861100Y-116558600D03*
X137841100Y-118338600D03*
X136821100Y-116558600D03*
X135801100Y-118338600D03*
X134781100Y-116558600D03*
D11*
X144701100Y-120878600D03*
X132001100Y-120878600D03*
%TD*%
D10*
%TO.C,PORT7*%
X162991100Y-111738600D03*
X160701100Y-111738600D03*
X151561100Y-111738600D03*
X149271100Y-111738600D03*
X159701100Y-118338600D03*
X158681100Y-116558600D03*
X157661100Y-118338600D03*
X156641100Y-116558600D03*
X155621100Y-118338600D03*
X154601100Y-116558600D03*
X153581100Y-118338600D03*
X152561100Y-116558600D03*
D11*
X162481100Y-120878600D03*
X149781100Y-120878600D03*
%TD*%
D10*
%TO.C,PORT8*%
X180771100Y-111738600D03*
X178481100Y-111738600D03*
X169341100Y-111738600D03*
X167051100Y-111738600D03*
X177481100Y-118338600D03*
X176461100Y-116558600D03*
X175441100Y-118338600D03*
X174421100Y-116558600D03*
X173401100Y-118338600D03*
X172381100Y-116558600D03*
X171361100Y-118338600D03*
X170341100Y-116558600D03*
D11*
X180261100Y-120878600D03*
X167561100Y-120878600D03*
%TD*%
D12*
%TO.C,LED CONTROL*%
X187754100Y-99796600D03*
X190294100Y-99796600D03*
X187754100Y-102336600D03*
X190294100Y-102336600D03*
X187754100Y-104876600D03*
X190294100Y-104876600D03*
X187754100Y-107416600D03*
X190294100Y-107416600D03*
X187754100Y-109956600D03*
X190294100Y-109956600D03*
%TD*%
D13*
%TO.C,H3*%
X107871100Y-120878600D03*
D14*
X107871100Y-120878600D03*
%TD*%
D13*
%TO.C,H1*%
X107871100Y-89128600D03*
D14*
X107871100Y-89128600D03*
%TD*%
D13*
%TO.C,H2*%
X189151100Y-89128600D03*
D14*
X189151100Y-89128600D03*
%TD*%
D13*
%TO.C,H4*%
X189151100Y-120878600D03*
D14*
X189151100Y-120878600D03*
%TD*%
M02*
