%TF.GenerationSoftware,KiCad,Pcbnew,7.0.1*%
%TF.CreationDate,2023-06-16T22:25:01+09:00*%
%TF.ProjectId,CANFD_HUB,43414e46-445f-4485-9542-2e6b69636164,rev?*%
%TF.SameCoordinates,Original*%
%TF.FileFunction,Copper,L1,Top*%
%TF.FilePolarity,Positive*%
%FSLAX46Y46*%
G04 Gerber Fmt 4.6, Leading zero omitted, Abs format (unit mm)*
G04 Created by KiCad (PCBNEW 7.0.1) date 2023-06-16 22:25:01*
%MOMM*%
%LPD*%
G01*
G04 APERTURE LIST*
G04 Aperture macros list*
%AMOutline5P*
0 Free polygon, 5 corners , with rotation*
0 The origin of the aperture is its center*
0 number of corners: always 5*
0 $1 to $10 corner X, Y*
0 $11 Rotation angle, in degrees counterclockwise*
0 create outline with 5 corners*
4,1,5,$1,$2,$3,$4,$5,$6,$7,$8,$9,$10,$1,$2,$11*%
%AMOutline6P*
0 Free polygon, 6 corners , with rotation*
0 The origin of the aperture is its center*
0 number of corners: always 6*
0 $1 to $12 corner X, Y*
0 $13 Rotation angle, in degrees counterclockwise*
0 create outline with 6 corners*
4,1,6,$1,$2,$3,$4,$5,$6,$7,$8,$9,$10,$11,$12,$1,$2,$13*%
%AMOutline7P*
0 Free polygon, 7 corners , with rotation*
0 The origin of the aperture is its center*
0 number of corners: always 7*
0 $1 to $14 corner X, Y*
0 $15 Rotation angle, in degrees counterclockwise*
0 create outline with 7 corners*
4,1,7,$1,$2,$3,$4,$5,$6,$7,$8,$9,$10,$11,$12,$13,$14,$1,$2,$15*%
%AMOutline8P*
0 Free polygon, 8 corners , with rotation*
0 The origin of the aperture is its center*
0 number of corners: always 8*
0 $1 to $16 corner X, Y*
0 $17 Rotation angle, in degrees counterclockwise*
0 create outline with 8 corners*
4,1,8,$1,$2,$3,$4,$5,$6,$7,$8,$9,$10,$11,$12,$13,$14,$15,$16,$1,$2,$17*%
G04 Aperture macros list end*
%TA.AperFunction,ComponentPad*%
%ADD10C,1.408000*%
%TD*%
%TA.AperFunction,ComponentPad*%
%ADD11Outline8P,-0.711200X0.294589X-0.294589X0.711200X0.294589X0.711200X0.711200X0.294589X0.711200X-0.294589X0.294589X-0.711200X-0.294589X-0.711200X-0.711200X-0.294589X90.000000*%
%TD*%
%TA.AperFunction,ComponentPad*%
%ADD12C,7.010400*%
%TD*%
%TA.AperFunction,ViaPad*%
%ADD13C,1.406400*%
%TD*%
%TA.AperFunction,Conductor*%
%ADD14C,0.800000*%
%TD*%
G04 APERTURE END LIST*
D10*
%TO.P,PORT1,LED2_K*%
%TO.N,GND*%
X113711100Y-98268600D03*
%TO.P,PORT1,LED2_A*%
%TO.N,N$2*%
X116001100Y-98268600D03*
%TO.P,PORT1,LED1_K*%
%TO.N,GND*%
X125141100Y-98268600D03*
%TO.P,PORT1,LED1_A*%
%TO.N,N$9*%
X127431100Y-98268600D03*
%TO.P,PORT1,1*%
%TO.N,+5V*%
X117001100Y-91668600D03*
%TO.P,PORT1,2*%
%TO.N,GND*%
X118021100Y-93448600D03*
%TO.P,PORT1,3*%
%TO.N,CAN_L-*%
X119041100Y-91668600D03*
%TO.P,PORT1,4*%
X120061100Y-93448600D03*
%TO.P,PORT1,5*%
%TO.N,CAN_H+*%
X121081100Y-91668600D03*
%TO.P,PORT1,6*%
X122101100Y-93448600D03*
%TO.P,PORT1,7*%
%TO.N,+5V*%
X123121100Y-91668600D03*
%TO.P,PORT1,8*%
%TO.N,GND*%
X124141100Y-93448600D03*
%TD*%
%TO.P,PORT2,LED2_K*%
%TO.N,GND*%
X131491100Y-98268600D03*
%TO.P,PORT2,LED2_A*%
%TO.N,N$1*%
X133781100Y-98268600D03*
%TO.P,PORT2,LED1_K*%
%TO.N,GND*%
X142921100Y-98268600D03*
%TO.P,PORT2,LED1_A*%
%TO.N,N$10*%
X145211100Y-98268600D03*
%TO.P,PORT2,1*%
%TO.N,+5V*%
X134781100Y-91668600D03*
%TO.P,PORT2,2*%
%TO.N,GND*%
X135801100Y-93448600D03*
%TO.P,PORT2,3*%
%TO.N,CAN_L-*%
X136821100Y-91668600D03*
%TO.P,PORT2,4*%
X137841100Y-93448600D03*
%TO.P,PORT2,5*%
%TO.N,CAN_H+*%
X138861100Y-91668600D03*
%TO.P,PORT2,6*%
X139881100Y-93448600D03*
%TO.P,PORT2,7*%
%TO.N,+5V*%
X140901100Y-91668600D03*
%TO.P,PORT2,8*%
%TO.N,GND*%
X141921100Y-93448600D03*
%TD*%
%TO.P,PORT3,LED2_K*%
%TO.N,GND*%
X149271100Y-98268600D03*
%TO.P,PORT3,LED2_A*%
%TO.N,N$3*%
X151561100Y-98268600D03*
%TO.P,PORT3,LED1_K*%
%TO.N,GND*%
X160701100Y-98268600D03*
%TO.P,PORT3,LED1_A*%
%TO.N,N$11*%
X162991100Y-98268600D03*
%TO.P,PORT3,1*%
%TO.N,+5V*%
X152561100Y-91668600D03*
%TO.P,PORT3,2*%
%TO.N,GND*%
X153581100Y-93448600D03*
%TO.P,PORT3,3*%
%TO.N,CAN_L-*%
X154601100Y-91668600D03*
%TO.P,PORT3,4*%
X155621100Y-93448600D03*
%TO.P,PORT3,5*%
%TO.N,CAN_H+*%
X156641100Y-91668600D03*
%TO.P,PORT3,6*%
X157661100Y-93448600D03*
%TO.P,PORT3,7*%
%TO.N,+5V*%
X158681100Y-91668600D03*
%TO.P,PORT3,8*%
%TO.N,GND*%
X159701100Y-93448600D03*
%TD*%
%TO.P,PORT4,LED2_K*%
%TO.N,GND*%
X167051100Y-98268600D03*
%TO.P,PORT4,LED2_A*%
%TO.N,N$4*%
X169341100Y-98268600D03*
%TO.P,PORT4,LED1_K*%
%TO.N,GND*%
X178481100Y-98268600D03*
%TO.P,PORT4,LED1_A*%
%TO.N,N$12*%
X180771100Y-98268600D03*
%TO.P,PORT4,1*%
%TO.N,+5V*%
X170341100Y-91668600D03*
%TO.P,PORT4,2*%
%TO.N,GND*%
X171361100Y-93448600D03*
%TO.P,PORT4,3*%
%TO.N,CAN_L-*%
X172381100Y-91668600D03*
%TO.P,PORT4,4*%
X173401100Y-93448600D03*
%TO.P,PORT4,5*%
%TO.N,CAN_H+*%
X174421100Y-91668600D03*
%TO.P,PORT4,6*%
X175441100Y-93448600D03*
%TO.P,PORT4,7*%
%TO.N,+5V*%
X176461100Y-91668600D03*
%TO.P,PORT4,8*%
%TO.N,GND*%
X177481100Y-93448600D03*
%TD*%
%TO.P,PORT5,8*%
%TO.N,GND*%
X117001100Y-116558600D03*
%TO.P,PORT5,7*%
%TO.N,+5V*%
X118021100Y-118338600D03*
%TO.P,PORT5,6*%
%TO.N,CAN_H+*%
X119041100Y-116558600D03*
%TO.P,PORT5,5*%
X120061100Y-118338600D03*
%TO.P,PORT5,4*%
%TO.N,CAN_L-*%
X121081100Y-116558600D03*
%TO.P,PORT5,3*%
X122101100Y-118338600D03*
%TO.P,PORT5,2*%
%TO.N,GND*%
X123121100Y-116558600D03*
%TO.P,PORT5,1*%
%TO.N,+5V*%
X124141100Y-118338600D03*
%TO.P,PORT5,LED1_A*%
%TO.N,N$13*%
X113711100Y-111738600D03*
%TO.P,PORT5,LED1_K*%
%TO.N,GND*%
X116001100Y-111738600D03*
%TO.P,PORT5,LED2_A*%
%TO.N,N$5*%
X125141100Y-111738600D03*
%TO.P,PORT5,LED2_K*%
%TO.N,GND*%
X127431100Y-111738600D03*
%TD*%
%TO.P,PORT6,LED2_K*%
%TO.N,GND*%
X145211100Y-111738600D03*
%TO.P,PORT6,LED2_A*%
%TO.N,N$6*%
X142921100Y-111738600D03*
%TO.P,PORT6,LED1_K*%
%TO.N,GND*%
X133781100Y-111738600D03*
%TO.P,PORT6,LED1_A*%
%TO.N,N$14*%
X131491100Y-111738600D03*
%TO.P,PORT6,1*%
%TO.N,+5V*%
X141921100Y-118338600D03*
%TO.P,PORT6,2*%
%TO.N,GND*%
X140901100Y-116558600D03*
%TO.P,PORT6,3*%
%TO.N,CAN_L-*%
X139881100Y-118338600D03*
%TO.P,PORT6,4*%
X138861100Y-116558600D03*
%TO.P,PORT6,5*%
%TO.N,CAN_H+*%
X137841100Y-118338600D03*
%TO.P,PORT6,6*%
X136821100Y-116558600D03*
%TO.P,PORT6,7*%
%TO.N,+5V*%
X135801100Y-118338600D03*
%TO.P,PORT6,8*%
%TO.N,GND*%
X134781100Y-116558600D03*
%TD*%
%TO.P,PORT7,LED2_K*%
%TO.N,GND*%
X162991100Y-111738600D03*
%TO.P,PORT7,LED2_A*%
%TO.N,N$7*%
X160701100Y-111738600D03*
%TO.P,PORT7,LED1_K*%
%TO.N,GND*%
X151561100Y-111738600D03*
%TO.P,PORT7,LED1_A*%
%TO.N,N$15*%
X149271100Y-111738600D03*
%TO.P,PORT7,1*%
%TO.N,+5V*%
X159701100Y-118338600D03*
%TO.P,PORT7,2*%
%TO.N,GND*%
X158681100Y-116558600D03*
%TO.P,PORT7,3*%
%TO.N,CAN_L-*%
X157661100Y-118338600D03*
%TO.P,PORT7,4*%
X156641100Y-116558600D03*
%TO.P,PORT7,5*%
%TO.N,CAN_H+*%
X155621100Y-118338600D03*
%TO.P,PORT7,6*%
X154601100Y-116558600D03*
%TO.P,PORT7,7*%
%TO.N,+5V*%
X153581100Y-118338600D03*
%TO.P,PORT7,8*%
%TO.N,GND*%
X152561100Y-116558600D03*
%TD*%
%TO.P,PORT8,LED2_K*%
%TO.N,GND*%
X180771100Y-111738600D03*
%TO.P,PORT8,LED2_A*%
%TO.N,N$8*%
X178481100Y-111738600D03*
%TO.P,PORT8,LED1_K*%
%TO.N,GND*%
X169341100Y-111738600D03*
%TO.P,PORT8,LED1_A*%
%TO.N,N$16*%
X167051100Y-111738600D03*
%TO.P,PORT8,1*%
%TO.N,+5V*%
X177481100Y-118338600D03*
%TO.P,PORT8,2*%
%TO.N,GND*%
X176461100Y-116558600D03*
%TO.P,PORT8,3*%
%TO.N,CAN_L-*%
X175441100Y-118338600D03*
%TO.P,PORT8,4*%
X174421100Y-116558600D03*
%TO.P,PORT8,5*%
%TO.N,CAN_H+*%
X173401100Y-118338600D03*
%TO.P,PORT8,6*%
X172381100Y-116558600D03*
%TO.P,PORT8,7*%
%TO.N,+5V*%
X171361100Y-118338600D03*
%TO.P,PORT8,8*%
%TO.N,GND*%
X170341100Y-116558600D03*
%TD*%
D11*
%TO.P,LED CONTROL,10*%
%TO.N,LED4*%
X187754100Y-99796600D03*
%TO.P,LED CONTROL,9*%
%TO.N,LED5*%
X190294100Y-99796600D03*
%TO.P,LED CONTROL,8*%
%TO.N,LED3*%
X187754100Y-102336600D03*
%TO.P,LED CONTROL,7*%
%TO.N,LED6*%
X190294100Y-102336600D03*
%TO.P,LED CONTROL,6*%
%TO.N,LED2*%
X187754100Y-104876600D03*
%TO.P,LED CONTROL,5*%
%TO.N,LED7*%
X190294100Y-104876600D03*
%TO.P,LED CONTROL,4*%
%TO.N,LED1*%
X187754100Y-107416600D03*
%TO.P,LED CONTROL,3*%
%TO.N,LED8*%
X190294100Y-107416600D03*
%TO.P,LED CONTROL,2*%
%TO.N,+5V*%
X187754100Y-109956600D03*
%TO.P,LED CONTROL,1*%
%TO.N,GND*%
X190294100Y-109956600D03*
%TD*%
D12*
%TO.P,H3,P$1*%
%TO.N,GND*%
X107871100Y-120878600D03*
%TD*%
%TO.P,H1,P$1*%
%TO.N,GND*%
X107871100Y-89128600D03*
%TD*%
%TO.P,H2,P$1*%
%TO.N,GND*%
X189151100Y-89128600D03*
%TD*%
%TO.P,H4,P$1*%
%TO.N,GND*%
X189151100Y-120878600D03*
%TD*%
D13*
%TO.N,GND*%
X187346706Y-87266207D03*
X189151100Y-86518800D03*
X190955493Y-87266207D03*
X191702900Y-89070600D03*
X190955493Y-90874994D03*
X189151100Y-91622400D03*
X187346706Y-90874994D03*
X186599300Y-89070600D03*
X187346706Y-119016207D03*
X189151100Y-118268800D03*
X190955493Y-119016207D03*
X191702900Y-120820600D03*
X190955493Y-122624994D03*
X189151100Y-123372400D03*
X187346706Y-122624994D03*
X186599300Y-120820600D03*
X106066706Y-119016207D03*
X107871100Y-118268800D03*
X109675493Y-119016207D03*
X110422900Y-120820600D03*
X109675493Y-122624994D03*
X107871100Y-123372400D03*
X106066706Y-122624994D03*
X105319300Y-120820600D03*
X106066706Y-87266207D03*
X107871100Y-86518800D03*
X109675493Y-87266207D03*
X110422900Y-89070600D03*
X109675493Y-90874994D03*
X107871100Y-91622400D03*
X106066706Y-90874994D03*
X105319300Y-89070600D03*
%TD*%
D14*
%TO.N,+5V*%
X121088100Y-121391600D02*
X121074100Y-121391600D01*
X124141100Y-118338600D02*
X121088100Y-121391600D01*
X120066100Y-88613600D02*
X120056100Y-88613600D01*
X123121100Y-91668600D02*
X120066100Y-88613600D01*
X187754100Y-109956600D02*
X182801100Y-109956600D01*
X182801100Y-109956600D02*
X182801100Y-96621600D01*
X182801100Y-113018600D02*
X182801100Y-109956600D01*
X182801100Y-96621600D02*
X176461100Y-90281600D01*
X177481100Y-118338600D02*
X182801100Y-113018600D01*
X174416100Y-121393600D02*
X174426100Y-121393600D01*
X171361100Y-118338600D02*
X174416100Y-121393600D01*
X174426100Y-121393600D02*
X177481100Y-118338600D01*
X171150100Y-124669600D02*
X174426100Y-121393600D01*
X153370100Y-124669600D02*
X171150100Y-124669600D01*
X156636100Y-121393600D02*
X156646100Y-121393600D01*
X153581100Y-118338600D02*
X156636100Y-121393600D01*
X156646100Y-121393600D02*
X159701100Y-118338600D01*
X153370100Y-124669600D02*
X156646100Y-121393600D01*
X135590100Y-124669600D02*
X153370100Y-124669600D01*
X138856100Y-121393600D02*
X138866100Y-121393600D01*
X135801100Y-118338600D02*
X138856100Y-121393600D01*
X124352100Y-124669600D02*
X135590100Y-124669600D01*
X138866100Y-121393600D02*
X141921100Y-118338600D01*
X135590100Y-124669600D02*
X138866100Y-121393600D01*
X121074100Y-121391600D02*
X124352100Y-124669600D01*
X118021100Y-118338600D02*
X121074100Y-121391600D01*
X174087600Y-87922100D02*
X174101600Y-87922100D01*
X170341100Y-91668600D02*
X174087600Y-87922100D01*
X174101600Y-87922100D02*
X176461100Y-90281600D01*
X171625100Y-85445600D02*
X174101600Y-87922100D01*
X176461100Y-90281600D02*
X176461100Y-91668600D01*
X153845100Y-85445600D02*
X171625100Y-85445600D01*
X156307600Y-87922100D02*
X156321600Y-87922100D01*
X152561100Y-91668600D02*
X156307600Y-87922100D01*
X156321600Y-87922100D02*
X158681100Y-90281600D01*
X153845100Y-85445600D02*
X156321600Y-87922100D01*
X158681100Y-90281600D02*
X158681100Y-91668600D01*
X135557100Y-85445600D02*
X153845100Y-85445600D01*
X134781100Y-91555600D02*
X138224100Y-88112600D01*
X134781100Y-91668600D02*
X134781100Y-91555600D01*
X140901100Y-90789600D02*
X140901100Y-91668600D01*
X138224100Y-88112600D02*
X140901100Y-90789600D01*
X135557100Y-85445600D02*
X138224100Y-88112600D01*
X123224100Y-85445600D02*
X135557100Y-85445600D01*
X120056100Y-88613600D02*
X123224100Y-85445600D01*
X117001100Y-91668600D02*
X120056100Y-88613600D01*
%TD*%
%TA.AperFunction,Conductor*%
%TO.N,GND*%
G36*
X189211873Y-83947131D02*
G01*
X189620366Y-83964026D01*
X189623399Y-83964278D01*
X190028376Y-84014759D01*
X190031363Y-84015257D01*
X190430778Y-84099005D01*
X190433707Y-84099746D01*
X190824864Y-84216199D01*
X190827740Y-84217186D01*
X191207907Y-84365529D01*
X191210712Y-84366759D01*
X191577323Y-84545985D01*
X191580006Y-84547436D01*
X191669450Y-84600733D01*
X191930574Y-84756329D01*
X191933141Y-84758006D01*
X192100913Y-84877793D01*
X192265260Y-84995135D01*
X192267670Y-84997011D01*
X192347553Y-85064668D01*
X192579060Y-85260744D01*
X192581316Y-85262820D01*
X192869879Y-85551383D01*
X192871955Y-85553639D01*
X193135684Y-85865024D01*
X193137568Y-85867444D01*
X193374693Y-86199558D01*
X193376370Y-86202125D01*
X193585259Y-86552686D01*
X193586718Y-86555383D01*
X193765938Y-86921984D01*
X193767170Y-86924792D01*
X193915508Y-87304947D01*
X193916504Y-87307847D01*
X193935653Y-87372166D01*
X193984826Y-87537337D01*
X194032947Y-87698970D01*
X194033697Y-87701938D01*
X194043086Y-87746712D01*
X194117438Y-88101317D01*
X194117943Y-88104341D01*
X194168420Y-88509288D01*
X194168673Y-88512344D01*
X194185568Y-88920826D01*
X194185600Y-88922359D01*
X194185600Y-121084841D01*
X194185568Y-121086374D01*
X194168673Y-121494855D01*
X194168420Y-121497911D01*
X194117943Y-121902858D01*
X194117438Y-121905882D01*
X194033699Y-122305256D01*
X194032947Y-122308229D01*
X193916504Y-122699352D01*
X193915508Y-122702252D01*
X193767170Y-123082407D01*
X193765938Y-123085215D01*
X193586718Y-123451816D01*
X193585259Y-123454513D01*
X193376370Y-123805074D01*
X193374693Y-123807641D01*
X193137568Y-124139755D01*
X193135684Y-124142175D01*
X192871955Y-124453560D01*
X192869879Y-124455816D01*
X192581316Y-124744379D01*
X192579060Y-124746455D01*
X192267675Y-125010184D01*
X192265255Y-125012068D01*
X191933141Y-125249193D01*
X191930574Y-125250870D01*
X191580013Y-125459759D01*
X191577316Y-125461218D01*
X191210715Y-125640438D01*
X191207907Y-125641670D01*
X190827752Y-125790008D01*
X190824852Y-125791004D01*
X190433729Y-125907447D01*
X190430756Y-125908199D01*
X190031382Y-125991938D01*
X190028358Y-125992443D01*
X189623411Y-126042920D01*
X189620355Y-126043173D01*
X189211874Y-126060068D01*
X189210341Y-126060100D01*
X171321473Y-126060100D01*
X171302876Y-126055102D01*
X171289289Y-126041456D01*
X171284373Y-126022837D01*
X171284507Y-125992443D01*
X171287821Y-125236753D01*
X171293943Y-125216502D01*
X171310138Y-125202890D01*
X171324068Y-125196839D01*
X171330048Y-125194827D01*
X171354841Y-125188787D01*
X171394736Y-125166353D01*
X171398110Y-125164678D01*
X171440079Y-125146450D01*
X171459868Y-125130349D01*
X171465088Y-125126796D01*
X171487323Y-125114295D01*
X171519674Y-125081942D01*
X171522474Y-125079415D01*
X171557978Y-125050532D01*
X171572687Y-125029693D01*
X171576756Y-125024861D01*
X174795685Y-121805932D01*
X174798484Y-121803407D01*
X174833978Y-121774532D01*
X174848690Y-121753688D01*
X174852754Y-121748862D01*
X175654335Y-120947281D01*
X178381838Y-120947281D01*
X178411863Y-121220166D01*
X178481304Y-121485783D01*
X178588677Y-121738454D01*
X178690858Y-121905882D01*
X178731695Y-121972796D01*
X178907309Y-122183818D01*
X179111777Y-122367023D01*
X179111779Y-122367024D01*
X179340742Y-122518505D01*
X179589319Y-122635033D01*
X179702447Y-122669067D01*
X179852219Y-122714127D01*
X180123831Y-122754100D01*
X180329647Y-122754100D01*
X180329648Y-122754100D01*
X180534906Y-122739077D01*
X180624228Y-122719179D01*
X180802875Y-122679384D01*
X181059298Y-122581311D01*
X181298709Y-122446947D01*
X181516004Y-122279157D01*
X181706554Y-122081516D01*
X181866296Y-121858237D01*
X181991827Y-121614079D01*
X182080470Y-121354246D01*
X182130336Y-121084274D01*
X182135376Y-120946366D01*
X187296888Y-120946366D01*
X187312124Y-121084841D01*
X187326514Y-121215618D01*
X187361098Y-121347905D01*
X187395028Y-121477689D01*
X187500970Y-121726992D01*
X187642080Y-121958207D01*
X187815357Y-122166423D01*
X187941177Y-122279157D01*
X188017098Y-122347182D01*
X188167706Y-122446823D01*
X188243011Y-122496645D01*
X188488274Y-122611620D01*
X188566097Y-122635033D01*
X188747669Y-122689660D01*
X189015661Y-122729100D01*
X189218731Y-122729100D01*
X189218732Y-122729100D01*
X189421257Y-122714277D01*
X189531774Y-122689658D01*
X189685653Y-122655380D01*
X189938658Y-122558614D01*
X190174877Y-122426041D01*
X190389277Y-122260488D01*
X190577286Y-122065481D01*
X190734899Y-121845179D01*
X190858756Y-121604275D01*
X190946218Y-121347905D01*
X190995419Y-121081533D01*
X191005312Y-120810835D01*
X190975686Y-120541582D01*
X190907172Y-120279512D01*
X190801230Y-120030210D01*
X190801229Y-120030207D01*
X190660119Y-119798992D01*
X190660118Y-119798990D01*
X190486845Y-119590780D01*
X190486842Y-119590776D01*
X190285103Y-119410019D01*
X190285102Y-119410018D01*
X190165905Y-119331158D01*
X190059188Y-119260554D01*
X189813925Y-119145579D01*
X189554534Y-119067541D01*
X189554531Y-119067540D01*
X189286539Y-119028100D01*
X189083469Y-119028100D01*
X189083468Y-119028100D01*
X188880942Y-119042922D01*
X188616548Y-119101819D01*
X188363541Y-119198586D01*
X188127324Y-119331158D01*
X187912924Y-119496710D01*
X187724912Y-119691721D01*
X187567303Y-119912017D01*
X187443443Y-120152927D01*
X187355981Y-120409294D01*
X187306780Y-120675670D01*
X187296888Y-120946366D01*
X182135376Y-120946366D01*
X182140362Y-120809920D01*
X182110336Y-120537029D01*
X182040896Y-120271418D01*
X181933523Y-120018748D01*
X181933522Y-120018745D01*
X181790506Y-119784406D01*
X181790505Y-119784404D01*
X181614891Y-119573382D01*
X181410423Y-119390177D01*
X181410420Y-119390175D01*
X181181457Y-119238694D01*
X180932880Y-119122166D01*
X180669984Y-119043074D01*
X180669981Y-119043073D01*
X180398369Y-119003100D01*
X180192553Y-119003100D01*
X180192552Y-119003100D01*
X179987293Y-119018122D01*
X179719326Y-119077815D01*
X179462901Y-119175889D01*
X179223496Y-119310249D01*
X179006190Y-119478047D01*
X178815647Y-119675682D01*
X178655906Y-119898959D01*
X178530372Y-120143123D01*
X178441729Y-120402953D01*
X178391863Y-120672929D01*
X178381838Y-120947281D01*
X175654335Y-120947281D01*
X177395251Y-119206366D01*
X177421486Y-119195500D01*
X177571165Y-119195500D01*
X177747351Y-119158050D01*
X177747351Y-119158049D01*
X177747355Y-119158049D01*
X177911910Y-119084785D01*
X178057636Y-118978908D01*
X178178165Y-118845048D01*
X178268229Y-118689052D01*
X178323892Y-118517741D01*
X178342720Y-118338600D01*
X178336988Y-118284073D01*
X178338913Y-118267815D01*
X178347649Y-118253967D01*
X183184993Y-113416624D01*
X183185814Y-113415831D01*
X183234023Y-113370809D01*
X183257798Y-113331711D01*
X183259917Y-113328597D01*
X183287572Y-113292130D01*
X183296930Y-113268397D01*
X183299738Y-113262744D01*
X183312994Y-113240947D01*
X183325340Y-113196879D01*
X183326537Y-113193319D01*
X183343330Y-113150738D01*
X183345938Y-113125359D01*
X183347117Y-113119152D01*
X183354000Y-113094594D01*
X183354000Y-113048844D01*
X183354195Y-113045050D01*
X183358873Y-112999548D01*
X183354539Y-112974409D01*
X183354000Y-112968106D01*
X183354000Y-110546600D01*
X183364866Y-110520366D01*
X183391100Y-110509500D01*
X187069609Y-110509500D01*
X187095843Y-110520366D01*
X187362043Y-110786565D01*
X187380947Y-110799196D01*
X187399853Y-110811828D01*
X187435581Y-110818934D01*
X187444453Y-110820700D01*
X187444454Y-110820700D01*
X188063748Y-110820701D01*
X188108348Y-110811829D01*
X188146158Y-110786565D01*
X188258552Y-110674171D01*
X189719646Y-110674171D01*
X189870489Y-110825015D01*
X189920538Y-110858455D01*
X189979577Y-110870199D01*
X190608626Y-110870199D01*
X190667662Y-110858455D01*
X190717707Y-110825016D01*
X190868552Y-110674171D01*
X190294099Y-110099718D01*
X189719646Y-110674171D01*
X188258552Y-110674171D01*
X188584064Y-110348658D01*
X188609328Y-110310847D01*
X188617229Y-110271126D01*
X189380500Y-110271126D01*
X189392244Y-110330162D01*
X189425683Y-110380207D01*
X189576528Y-110531052D01*
X190150980Y-109956599D01*
X190437218Y-109956599D01*
X191011671Y-110531052D01*
X191162513Y-110380213D01*
X191195955Y-110330161D01*
X191207699Y-110271122D01*
X191207699Y-109642073D01*
X191195955Y-109583037D01*
X191162516Y-109532992D01*
X191011671Y-109382147D01*
X190437218Y-109956599D01*
X190150980Y-109956599D01*
X189576527Y-109382146D01*
X189425684Y-109532989D01*
X189392244Y-109583038D01*
X189380500Y-109642077D01*
X189380500Y-110271126D01*
X188617229Y-110271126D01*
X188618200Y-110266246D01*
X188618201Y-109646952D01*
X188609329Y-109602352D01*
X188584065Y-109564542D01*
X188258550Y-109239028D01*
X189719647Y-109239028D01*
X190294099Y-109813480D01*
X190868552Y-109239027D01*
X190717710Y-109088184D01*
X190667661Y-109054744D01*
X190608622Y-109043000D01*
X189979573Y-109043000D01*
X189920537Y-109054744D01*
X189870492Y-109088183D01*
X189719647Y-109239028D01*
X188258550Y-109239028D01*
X188146158Y-109126636D01*
X188146158Y-109126635D01*
X188146156Y-109126634D01*
X188108347Y-109101372D01*
X188063746Y-109092499D01*
X187444451Y-109092499D01*
X187399851Y-109101371D01*
X187362044Y-109126633D01*
X187095844Y-109392834D01*
X187069610Y-109403700D01*
X183391100Y-109403700D01*
X183364866Y-109392834D01*
X183354000Y-109366600D01*
X183354000Y-107726248D01*
X186889999Y-107726248D01*
X186898871Y-107770848D01*
X186924135Y-107808658D01*
X187362041Y-108246563D01*
X187362043Y-108246565D01*
X187380947Y-108259195D01*
X187399853Y-108271828D01*
X187435581Y-108278934D01*
X187444453Y-108280700D01*
X187444454Y-108280700D01*
X188063748Y-108280701D01*
X188108348Y-108271829D01*
X188146158Y-108246565D01*
X188584064Y-107808658D01*
X188609328Y-107770847D01*
X188618200Y-107726248D01*
X189429999Y-107726248D01*
X189438871Y-107770848D01*
X189464135Y-107808658D01*
X189902041Y-108246563D01*
X189902043Y-108246565D01*
X189920947Y-108259195D01*
X189939853Y-108271828D01*
X189975581Y-108278934D01*
X189984453Y-108280700D01*
X189984454Y-108280700D01*
X190603748Y-108280701D01*
X190648348Y-108271829D01*
X190686158Y-108246565D01*
X191124064Y-107808658D01*
X191149328Y-107770847D01*
X191158200Y-107726246D01*
X191158201Y-107106952D01*
X191149329Y-107062352D01*
X191124065Y-107024542D01*
X190686158Y-106586636D01*
X190686158Y-106586635D01*
X190686156Y-106586634D01*
X190648347Y-106561372D01*
X190603746Y-106552499D01*
X189984451Y-106552499D01*
X189939851Y-106561371D01*
X189902044Y-106586633D01*
X189464134Y-107024543D01*
X189438872Y-107062352D01*
X189429999Y-107106953D01*
X189429999Y-107726246D01*
X189429999Y-107726248D01*
X188618200Y-107726248D01*
X188618200Y-107726246D01*
X188618201Y-107106952D01*
X188609329Y-107062352D01*
X188584065Y-107024542D01*
X188146158Y-106586636D01*
X188146158Y-106586635D01*
X188146156Y-106586634D01*
X188108347Y-106561372D01*
X188063746Y-106552499D01*
X187444451Y-106552499D01*
X187399851Y-106561371D01*
X187362044Y-106586633D01*
X186924134Y-107024543D01*
X186898872Y-107062352D01*
X186889999Y-107106953D01*
X186889999Y-107726246D01*
X186889999Y-107726248D01*
X183354000Y-107726248D01*
X183354000Y-105186248D01*
X186889999Y-105186248D01*
X186898871Y-105230848D01*
X186924135Y-105268658D01*
X187362041Y-105706563D01*
X187362043Y-105706565D01*
X187380947Y-105719195D01*
X187399853Y-105731828D01*
X187435580Y-105738934D01*
X187444453Y-105740700D01*
X187444454Y-105740700D01*
X188063748Y-105740701D01*
X188108348Y-105731829D01*
X188146158Y-105706565D01*
X188584064Y-105268658D01*
X188609328Y-105230847D01*
X188618200Y-105186248D01*
X189429999Y-105186248D01*
X189438871Y-105230848D01*
X189464135Y-105268658D01*
X189902041Y-105706563D01*
X189902043Y-105706565D01*
X189920947Y-105719195D01*
X189939853Y-105731828D01*
X189975580Y-105738934D01*
X189984453Y-105740700D01*
X189984454Y-105740700D01*
X190603748Y-105740701D01*
X190648348Y-105731829D01*
X190686158Y-105706565D01*
X191124064Y-105268658D01*
X191149328Y-105230847D01*
X191158200Y-105186246D01*
X191158201Y-104566952D01*
X191149329Y-104522352D01*
X191124065Y-104484542D01*
X190686158Y-104046636D01*
X190686157Y-104046635D01*
X190686156Y-104046634D01*
X190648347Y-104021372D01*
X190603746Y-104012499D01*
X189984451Y-104012499D01*
X189939851Y-104021371D01*
X189902044Y-104046633D01*
X189464134Y-104484543D01*
X189438872Y-104522352D01*
X189429999Y-104566953D01*
X189429999Y-105186246D01*
X189429999Y-105186248D01*
X188618200Y-105186248D01*
X188618200Y-105186246D01*
X188618201Y-104566952D01*
X188609329Y-104522352D01*
X188584065Y-104484542D01*
X188146158Y-104046636D01*
X188146157Y-104046635D01*
X188146156Y-104046634D01*
X188108347Y-104021372D01*
X188063746Y-104012499D01*
X187444451Y-104012499D01*
X187399851Y-104021371D01*
X187362044Y-104046633D01*
X186924134Y-104484543D01*
X186898872Y-104522352D01*
X186889999Y-104566953D01*
X186889999Y-105186246D01*
X186889999Y-105186248D01*
X183354000Y-105186248D01*
X183354000Y-102646248D01*
X186889999Y-102646248D01*
X186898871Y-102690848D01*
X186924135Y-102728658D01*
X187362041Y-103166563D01*
X187362043Y-103166565D01*
X187380947Y-103179196D01*
X187399853Y-103191828D01*
X187435581Y-103198934D01*
X187444453Y-103200700D01*
X187444454Y-103200700D01*
X188063748Y-103200701D01*
X188108348Y-103191829D01*
X188146158Y-103166565D01*
X188584064Y-102728658D01*
X188609328Y-102690847D01*
X188618200Y-102646248D01*
X189429999Y-102646248D01*
X189438871Y-102690848D01*
X189464135Y-102728658D01*
X189902041Y-103166563D01*
X189902043Y-103166565D01*
X189920947Y-103179196D01*
X189939853Y-103191828D01*
X189975581Y-103198934D01*
X189984453Y-103200700D01*
X189984454Y-103200700D01*
X190603748Y-103200701D01*
X190648348Y-103191829D01*
X190686158Y-103166565D01*
X191124064Y-102728658D01*
X191149328Y-102690847D01*
X191158200Y-102646246D01*
X191158201Y-102026952D01*
X191149329Y-101982352D01*
X191124065Y-101944542D01*
X190686158Y-101506636D01*
X190686157Y-101506635D01*
X190686156Y-101506634D01*
X190648347Y-101481372D01*
X190603746Y-101472499D01*
X189984451Y-101472499D01*
X189939851Y-101481371D01*
X189902044Y-101506633D01*
X189464134Y-101944543D01*
X189438872Y-101982352D01*
X189429999Y-102026953D01*
X189429999Y-102646246D01*
X189429999Y-102646248D01*
X188618200Y-102646248D01*
X188618200Y-102646246D01*
X188618201Y-102026952D01*
X188609329Y-101982352D01*
X188584065Y-101944542D01*
X188146158Y-101506636D01*
X188146157Y-101506635D01*
X188146156Y-101506634D01*
X188108347Y-101481372D01*
X188063746Y-101472499D01*
X187444451Y-101472499D01*
X187399851Y-101481371D01*
X187362044Y-101506633D01*
X186924134Y-101944543D01*
X186898872Y-101982352D01*
X186889999Y-102026953D01*
X186889999Y-102646246D01*
X186889999Y-102646248D01*
X183354000Y-102646248D01*
X183354000Y-100106248D01*
X186889999Y-100106248D01*
X186898871Y-100150848D01*
X186924135Y-100188658D01*
X187362041Y-100626563D01*
X187362043Y-100626565D01*
X187380947Y-100639195D01*
X187399853Y-100651828D01*
X187435581Y-100658934D01*
X187444453Y-100660700D01*
X187444454Y-100660700D01*
X188063748Y-100660701D01*
X188108348Y-100651829D01*
X188146158Y-100626565D01*
X188584064Y-100188658D01*
X188609328Y-100150847D01*
X188618200Y-100106248D01*
X189429999Y-100106248D01*
X189438871Y-100150848D01*
X189464135Y-100188658D01*
X189902041Y-100626563D01*
X189902043Y-100626565D01*
X189920947Y-100639195D01*
X189939853Y-100651828D01*
X189975581Y-100658934D01*
X189984453Y-100660700D01*
X189984454Y-100660700D01*
X190603748Y-100660701D01*
X190648348Y-100651829D01*
X190686158Y-100626565D01*
X191124064Y-100188658D01*
X191149328Y-100150847D01*
X191158200Y-100106246D01*
X191158201Y-99486952D01*
X191149329Y-99442352D01*
X191124065Y-99404542D01*
X190686158Y-98966636D01*
X190686157Y-98966635D01*
X190686156Y-98966634D01*
X190648347Y-98941372D01*
X190603746Y-98932499D01*
X189984451Y-98932499D01*
X189939851Y-98941371D01*
X189902044Y-98966633D01*
X189464134Y-99404543D01*
X189438872Y-99442352D01*
X189429999Y-99486953D01*
X189429999Y-100106246D01*
X189429999Y-100106248D01*
X188618200Y-100106248D01*
X188618200Y-100106246D01*
X188618201Y-99486952D01*
X188609329Y-99442352D01*
X188584065Y-99404542D01*
X188146158Y-98966636D01*
X188146157Y-98966635D01*
X188146156Y-98966634D01*
X188108347Y-98941372D01*
X188063746Y-98932499D01*
X187444451Y-98932499D01*
X187399851Y-98941371D01*
X187362044Y-98966633D01*
X186924134Y-99404543D01*
X186898872Y-99442352D01*
X186889999Y-99486953D01*
X186889999Y-100106246D01*
X186889999Y-100106248D01*
X183354000Y-100106248D01*
X183354000Y-96631659D01*
X183354022Y-96630392D01*
X183354023Y-96630362D01*
X183356272Y-96564527D01*
X183345436Y-96520063D01*
X183344734Y-96516370D01*
X183338502Y-96471027D01*
X183328342Y-96447637D01*
X183326325Y-96441639D01*
X183320287Y-96416859D01*
X183297865Y-96376984D01*
X183296178Y-96373588D01*
X183277950Y-96331621D01*
X183277949Y-96331620D01*
X183277949Y-96331619D01*
X183261854Y-96311837D01*
X183258297Y-96306612D01*
X183245795Y-96284377D01*
X183245793Y-96284375D01*
X183213446Y-96252027D01*
X183210901Y-96249207D01*
X183182033Y-96213723D01*
X183182032Y-96213722D01*
X183161190Y-96199009D01*
X183156357Y-96194939D01*
X176873442Y-89912023D01*
X176870897Y-89909202D01*
X176842031Y-89873720D01*
X176821194Y-89859012D01*
X176816355Y-89854937D01*
X176158699Y-89197281D01*
X178381838Y-89197281D01*
X178411863Y-89470166D01*
X178481304Y-89735783D01*
X178588677Y-89988454D01*
X178722791Y-90208207D01*
X178731695Y-90222796D01*
X178907309Y-90433818D01*
X179111777Y-90617023D01*
X179111779Y-90617024D01*
X179340742Y-90768505D01*
X179589319Y-90885033D01*
X179665281Y-90907886D01*
X179852219Y-90964127D01*
X180123831Y-91004100D01*
X180329647Y-91004100D01*
X180329648Y-91004100D01*
X180534906Y-90989077D01*
X180624228Y-90969179D01*
X180802875Y-90929384D01*
X181059298Y-90831311D01*
X181298709Y-90696947D01*
X181516004Y-90529157D01*
X181706554Y-90331516D01*
X181866296Y-90108237D01*
X181991827Y-89864079D01*
X182080470Y-89604246D01*
X182130336Y-89334274D01*
X182135376Y-89196366D01*
X187296888Y-89196366D01*
X187319941Y-89405885D01*
X187326514Y-89465618D01*
X187361098Y-89597905D01*
X187395028Y-89727689D01*
X187500970Y-89976992D01*
X187642080Y-90208207D01*
X187815357Y-90416423D01*
X187987462Y-90570628D01*
X188017098Y-90597182D01*
X188151694Y-90686230D01*
X188243011Y-90746645D01*
X188488274Y-90861620D01*
X188566097Y-90885033D01*
X188747669Y-90939660D01*
X189015661Y-90979100D01*
X189218731Y-90979100D01*
X189218732Y-90979100D01*
X189421257Y-90964277D01*
X189531774Y-90939658D01*
X189685653Y-90905380D01*
X189938658Y-90808614D01*
X190174877Y-90676041D01*
X190389277Y-90510488D01*
X190577286Y-90315481D01*
X190734899Y-90095179D01*
X190858756Y-89854275D01*
X190946218Y-89597905D01*
X190995419Y-89331533D01*
X191005312Y-89060835D01*
X190975686Y-88791582D01*
X190907172Y-88529512D01*
X190801230Y-88280210D01*
X190801229Y-88280207D01*
X190660119Y-88048992D01*
X190660118Y-88048990D01*
X190527313Y-87889408D01*
X190486842Y-87840776D01*
X190285103Y-87660019D01*
X190285102Y-87660018D01*
X190165905Y-87581158D01*
X190059188Y-87510554D01*
X189813925Y-87395579D01*
X189554534Y-87317541D01*
X189554531Y-87317540D01*
X189286539Y-87278100D01*
X189083469Y-87278100D01*
X189083468Y-87278100D01*
X188880942Y-87292922D01*
X188616548Y-87351819D01*
X188363541Y-87448586D01*
X188127324Y-87581158D01*
X187912924Y-87746710D01*
X187724912Y-87941721D01*
X187567303Y-88162017D01*
X187443443Y-88402927D01*
X187355981Y-88659294D01*
X187306780Y-88925670D01*
X187296888Y-89196366D01*
X182135376Y-89196366D01*
X182140362Y-89059920D01*
X182110336Y-88787029D01*
X182040896Y-88521418D01*
X181986376Y-88393121D01*
X181933522Y-88268745D01*
X181790506Y-88034406D01*
X181790505Y-88034404D01*
X181614891Y-87823382D01*
X181410423Y-87640177D01*
X181410420Y-87640175D01*
X181181457Y-87488694D01*
X180932880Y-87372166D01*
X180669984Y-87293074D01*
X180669981Y-87293073D01*
X180398369Y-87253100D01*
X180192553Y-87253100D01*
X180192552Y-87253100D01*
X179987293Y-87268122D01*
X179719326Y-87327815D01*
X179462901Y-87425889D01*
X179223496Y-87560249D01*
X179006190Y-87728047D01*
X178815647Y-87925682D01*
X178655906Y-88148959D01*
X178530372Y-88393123D01*
X178441729Y-88652953D01*
X178391863Y-88922929D01*
X178381838Y-89197281D01*
X176158699Y-89197281D01*
X175658436Y-88697018D01*
X174499667Y-87538248D01*
X174498787Y-87537337D01*
X174453809Y-87489177D01*
X174449412Y-87486503D01*
X174442457Y-87481039D01*
X172023167Y-85061748D01*
X172022287Y-85060837D01*
X171977307Y-85012675D01*
X171938217Y-84988905D01*
X171935076Y-84986767D01*
X171898630Y-84959129D01*
X171898629Y-84959128D01*
X171874899Y-84949769D01*
X171869238Y-84946957D01*
X171847447Y-84933706D01*
X171827090Y-84928002D01*
X171807538Y-84914695D01*
X171800000Y-84892278D01*
X171800000Y-83984200D01*
X171810866Y-83957966D01*
X171837100Y-83947100D01*
X189202815Y-83947100D01*
X189210341Y-83947100D01*
X189211873Y-83947131D01*
G37*
%TD.AperFunction*%
%TA.AperFunction,Conductor*%
G36*
X123072266Y-83957909D02*
G01*
X123083189Y-83984036D01*
X123084875Y-84366761D01*
X123087126Y-84877793D01*
X123081093Y-84898236D01*
X123064806Y-84911985D01*
X123050135Y-84918357D01*
X123044140Y-84920373D01*
X123019359Y-84926412D01*
X122979479Y-84948835D01*
X122976078Y-84950524D01*
X122934121Y-84968749D01*
X122914335Y-84984846D01*
X122909106Y-84988405D01*
X122886876Y-85000904D01*
X122854532Y-85033247D01*
X122851713Y-85035791D01*
X122816223Y-85064666D01*
X122801517Y-85085499D01*
X122797442Y-85090337D01*
X122022756Y-85865024D01*
X119718875Y-88168905D01*
X119718876Y-88168905D01*
X119687590Y-88200189D01*
X119686532Y-88201248D01*
X119683713Y-88203791D01*
X119648223Y-88232666D01*
X119633517Y-88253499D01*
X119629442Y-88258337D01*
X117086947Y-90800834D01*
X117074911Y-90808876D01*
X117060713Y-90811700D01*
X116911035Y-90811700D01*
X116734848Y-90849149D01*
X116570287Y-90922416D01*
X116424567Y-91028289D01*
X116424564Y-91028291D01*
X116424564Y-91028292D01*
X116304035Y-91162152D01*
X116237678Y-91277087D01*
X116213970Y-91318150D01*
X116158308Y-91489457D01*
X116145210Y-91614078D01*
X116139480Y-91668600D01*
X116158308Y-91847741D01*
X116213971Y-92019052D01*
X116304035Y-92175048D01*
X116424564Y-92308908D01*
X116570290Y-92414785D01*
X116734845Y-92488049D01*
X116734846Y-92488049D01*
X116734848Y-92488050D01*
X116911035Y-92525500D01*
X116911036Y-92525500D01*
X117091164Y-92525500D01*
X117091165Y-92525500D01*
X117267351Y-92488050D01*
X117267351Y-92488049D01*
X117267355Y-92488049D01*
X117431910Y-92414785D01*
X117577636Y-92308908D01*
X117698165Y-92175048D01*
X117788229Y-92019052D01*
X117843892Y-91847741D01*
X117862720Y-91668600D01*
X117856988Y-91614073D01*
X117858913Y-91597815D01*
X117867649Y-91583967D01*
X118219315Y-91232302D01*
X118243120Y-91221516D01*
X118268132Y-91229103D01*
X118281934Y-91251299D01*
X118277677Y-91277086D01*
X118253971Y-91318147D01*
X118198308Y-91489457D01*
X118185210Y-91614078D01*
X118179480Y-91668600D01*
X118198308Y-91847741D01*
X118253971Y-92019052D01*
X118344035Y-92175048D01*
X118464564Y-92308908D01*
X118610290Y-92414785D01*
X118774845Y-92488049D01*
X118774846Y-92488049D01*
X118774848Y-92488050D01*
X118951035Y-92525500D01*
X118951036Y-92525500D01*
X119131164Y-92525500D01*
X119131165Y-92525500D01*
X119307351Y-92488050D01*
X119307351Y-92488049D01*
X119307355Y-92488049D01*
X119471910Y-92414785D01*
X119617636Y-92308908D01*
X119738165Y-92175048D01*
X119828229Y-92019052D01*
X119883892Y-91847741D01*
X119902720Y-91668600D01*
X119883892Y-91489459D01*
X119828229Y-91318148D01*
X119738165Y-91162152D01*
X119617636Y-91028292D01*
X119617632Y-91028289D01*
X119471912Y-90922416D01*
X119307351Y-90849149D01*
X119131165Y-90811700D01*
X119131164Y-90811700D01*
X118951036Y-90811700D01*
X118951035Y-90811700D01*
X118774848Y-90849149D01*
X118646995Y-90906072D01*
X118621834Y-90907886D01*
X118601330Y-90893193D01*
X118594961Y-90868784D01*
X118605669Y-90845947D01*
X120034868Y-89416749D01*
X120061099Y-89405885D01*
X120087333Y-89416751D01*
X121516527Y-90845945D01*
X121527237Y-90868784D01*
X121520868Y-90893193D01*
X121500364Y-90907886D01*
X121475203Y-90906072D01*
X121347351Y-90849149D01*
X121171165Y-90811700D01*
X121171164Y-90811700D01*
X120991036Y-90811700D01*
X120991035Y-90811700D01*
X120814848Y-90849149D01*
X120650287Y-90922416D01*
X120504567Y-91028289D01*
X120504564Y-91028291D01*
X120504564Y-91028292D01*
X120384035Y-91162152D01*
X120317678Y-91277087D01*
X120293970Y-91318150D01*
X120238308Y-91489457D01*
X120225210Y-91614078D01*
X120219480Y-91668600D01*
X120238308Y-91847741D01*
X120293971Y-92019052D01*
X120384035Y-92175048D01*
X120504564Y-92308908D01*
X120650290Y-92414785D01*
X120814845Y-92488049D01*
X120814846Y-92488049D01*
X120814848Y-92488050D01*
X120991035Y-92525500D01*
X120991036Y-92525500D01*
X121171164Y-92525500D01*
X121171165Y-92525500D01*
X121347351Y-92488050D01*
X121347351Y-92488049D01*
X121347355Y-92488049D01*
X121511910Y-92414785D01*
X121657636Y-92308908D01*
X121778165Y-92175048D01*
X121868229Y-92019052D01*
X121923892Y-91847741D01*
X121942720Y-91668600D01*
X121923892Y-91489459D01*
X121868229Y-91318148D01*
X121844522Y-91277087D01*
X121840266Y-91251301D01*
X121854068Y-91229106D01*
X121879079Y-91221518D01*
X121902887Y-91232305D01*
X122254547Y-91583965D01*
X122263285Y-91597814D01*
X122265210Y-91614076D01*
X122259480Y-91668600D01*
X122278308Y-91847741D01*
X122333971Y-92019052D01*
X122424035Y-92175048D01*
X122544564Y-92308908D01*
X122690290Y-92414785D01*
X122854845Y-92488049D01*
X122854846Y-92488049D01*
X122854848Y-92488050D01*
X123031035Y-92525500D01*
X123031036Y-92525500D01*
X123211164Y-92525500D01*
X123211165Y-92525500D01*
X123387351Y-92488050D01*
X123387351Y-92488049D01*
X123387355Y-92488049D01*
X123551910Y-92414785D01*
X123697636Y-92308908D01*
X123818165Y-92175048D01*
X123908229Y-92019052D01*
X123963892Y-91847741D01*
X123982720Y-91668600D01*
X123963892Y-91489459D01*
X123908229Y-91318148D01*
X123818165Y-91162152D01*
X123697636Y-91028292D01*
X123697632Y-91028289D01*
X123551912Y-90922416D01*
X123387351Y-90849149D01*
X123211165Y-90811700D01*
X123211164Y-90811700D01*
X123061487Y-90811700D01*
X123035253Y-90800834D01*
X121431700Y-89197281D01*
X125041838Y-89197281D01*
X125071863Y-89470166D01*
X125141304Y-89735783D01*
X125248677Y-89988454D01*
X125382791Y-90208207D01*
X125391695Y-90222796D01*
X125567309Y-90433818D01*
X125771777Y-90617023D01*
X125771779Y-90617024D01*
X126000742Y-90768505D01*
X126249319Y-90885033D01*
X126325281Y-90907886D01*
X126512219Y-90964127D01*
X126783831Y-91004100D01*
X126989647Y-91004100D01*
X126989648Y-91004100D01*
X127194906Y-90989077D01*
X127284228Y-90969179D01*
X127462875Y-90929384D01*
X127719298Y-90831311D01*
X127958709Y-90696947D01*
X128176004Y-90529157D01*
X128366554Y-90331516D01*
X128526296Y-90108237D01*
X128651827Y-89864079D01*
X128740470Y-89604246D01*
X128790336Y-89334274D01*
X128795342Y-89197281D01*
X130121838Y-89197281D01*
X130151863Y-89470166D01*
X130221304Y-89735783D01*
X130328677Y-89988454D01*
X130462791Y-90208207D01*
X130471695Y-90222796D01*
X130647309Y-90433818D01*
X130851777Y-90617023D01*
X130851779Y-90617024D01*
X131080742Y-90768505D01*
X131329319Y-90885033D01*
X131405281Y-90907886D01*
X131592219Y-90964127D01*
X131863831Y-91004100D01*
X132069647Y-91004100D01*
X132069648Y-91004100D01*
X132274906Y-90989077D01*
X132364228Y-90969179D01*
X132542875Y-90929384D01*
X132799298Y-90831311D01*
X133038709Y-90696947D01*
X133256004Y-90529157D01*
X133446554Y-90331516D01*
X133606296Y-90108237D01*
X133731827Y-89864079D01*
X133820470Y-89604246D01*
X133870336Y-89334274D01*
X133880362Y-89059920D01*
X133850336Y-88787029D01*
X133780896Y-88521418D01*
X133726376Y-88393121D01*
X133673522Y-88268745D01*
X133530506Y-88034406D01*
X133530505Y-88034404D01*
X133354891Y-87823382D01*
X133150423Y-87640177D01*
X133150420Y-87640175D01*
X132921457Y-87488694D01*
X132672880Y-87372166D01*
X132409984Y-87293074D01*
X132409981Y-87293073D01*
X132138369Y-87253100D01*
X131932553Y-87253100D01*
X131932552Y-87253100D01*
X131727293Y-87268122D01*
X131459326Y-87327815D01*
X131202901Y-87425889D01*
X130963496Y-87560249D01*
X130746190Y-87728047D01*
X130555647Y-87925682D01*
X130395906Y-88148959D01*
X130270372Y-88393123D01*
X130181729Y-88652953D01*
X130131863Y-88922929D01*
X130121838Y-89197281D01*
X128795342Y-89197281D01*
X128800362Y-89059920D01*
X128770336Y-88787029D01*
X128700896Y-88521418D01*
X128646376Y-88393121D01*
X128593522Y-88268745D01*
X128450506Y-88034406D01*
X128450505Y-88034404D01*
X128274891Y-87823382D01*
X128070423Y-87640177D01*
X128070420Y-87640175D01*
X127841457Y-87488694D01*
X127592880Y-87372166D01*
X127329984Y-87293074D01*
X127329981Y-87293073D01*
X127058369Y-87253100D01*
X126852553Y-87253100D01*
X126852552Y-87253100D01*
X126647293Y-87268122D01*
X126379326Y-87327815D01*
X126122901Y-87425889D01*
X125883496Y-87560249D01*
X125666190Y-87728047D01*
X125475647Y-87925682D01*
X125315906Y-88148959D01*
X125190372Y-88393123D01*
X125101729Y-88652953D01*
X125051863Y-88922929D01*
X125041838Y-89197281D01*
X121431700Y-89197281D01*
X120869252Y-88634833D01*
X120859650Y-88618201D01*
X120859650Y-88598997D01*
X120869252Y-88582365D01*
X121509897Y-87941721D01*
X123442252Y-86009366D01*
X123468487Y-85998500D01*
X135312714Y-85998500D01*
X135338948Y-86009366D01*
X137415947Y-88086365D01*
X137426813Y-88112599D01*
X137415947Y-88138833D01*
X134753947Y-90800834D01*
X134741911Y-90808876D01*
X134727713Y-90811700D01*
X134691035Y-90811700D01*
X134514848Y-90849149D01*
X134350287Y-90922416D01*
X134204567Y-91028289D01*
X134204564Y-91028291D01*
X134204564Y-91028292D01*
X134084035Y-91162152D01*
X134017678Y-91277087D01*
X133993970Y-91318150D01*
X133938308Y-91489457D01*
X133925210Y-91614078D01*
X133919480Y-91668600D01*
X133938308Y-91847741D01*
X133993971Y-92019052D01*
X134084035Y-92175048D01*
X134204564Y-92308908D01*
X134350290Y-92414785D01*
X134514845Y-92488049D01*
X134514846Y-92488049D01*
X134514848Y-92488050D01*
X134691035Y-92525500D01*
X134691036Y-92525500D01*
X134871164Y-92525500D01*
X134871165Y-92525500D01*
X135047351Y-92488050D01*
X135047351Y-92488049D01*
X135047355Y-92488049D01*
X135211910Y-92414785D01*
X135357636Y-92308908D01*
X135478165Y-92175048D01*
X135568229Y-92019052D01*
X135623892Y-91847741D01*
X135642720Y-91668600D01*
X135959480Y-91668600D01*
X135978308Y-91847741D01*
X136033971Y-92019052D01*
X136124035Y-92175048D01*
X136244564Y-92308908D01*
X136390290Y-92414785D01*
X136554845Y-92488049D01*
X136554846Y-92488049D01*
X136554848Y-92488050D01*
X136731035Y-92525500D01*
X136731036Y-92525500D01*
X136911164Y-92525500D01*
X136911165Y-92525500D01*
X137087351Y-92488050D01*
X137087351Y-92488049D01*
X137087355Y-92488049D01*
X137251910Y-92414785D01*
X137397636Y-92308908D01*
X137518165Y-92175048D01*
X137608229Y-92019052D01*
X137663892Y-91847741D01*
X137682720Y-91668600D01*
X137999480Y-91668600D01*
X138018308Y-91847741D01*
X138073971Y-92019052D01*
X138164035Y-92175048D01*
X138284564Y-92308908D01*
X138430290Y-92414785D01*
X138594845Y-92488049D01*
X138594846Y-92488049D01*
X138594848Y-92488050D01*
X138771035Y-92525500D01*
X138771036Y-92525500D01*
X138951164Y-92525500D01*
X138951165Y-92525500D01*
X139127351Y-92488050D01*
X139127351Y-92488049D01*
X139127355Y-92488049D01*
X139291910Y-92414785D01*
X139437636Y-92308908D01*
X139558165Y-92175048D01*
X139648229Y-92019052D01*
X139703892Y-91847741D01*
X139722720Y-91668600D01*
X139703892Y-91489459D01*
X139648229Y-91318148D01*
X139558165Y-91162152D01*
X139437636Y-91028292D01*
X139437632Y-91028289D01*
X139291912Y-90922416D01*
X139127351Y-90849149D01*
X138951165Y-90811700D01*
X138951164Y-90811700D01*
X138771036Y-90811700D01*
X138771035Y-90811700D01*
X138594848Y-90849149D01*
X138430287Y-90922416D01*
X138284567Y-91028289D01*
X138284564Y-91028291D01*
X138284564Y-91028292D01*
X138164035Y-91162152D01*
X138097678Y-91277087D01*
X138073970Y-91318150D01*
X138018308Y-91489457D01*
X138005210Y-91614078D01*
X137999480Y-91668600D01*
X137682720Y-91668600D01*
X137663892Y-91489459D01*
X137608229Y-91318148D01*
X137518165Y-91162152D01*
X137397636Y-91028292D01*
X137397632Y-91028289D01*
X137251912Y-90922416D01*
X137087351Y-90849149D01*
X136911165Y-90811700D01*
X136911164Y-90811700D01*
X136731036Y-90811700D01*
X136731035Y-90811700D01*
X136554848Y-90849149D01*
X136390287Y-90922416D01*
X136244567Y-91028289D01*
X136244564Y-91028291D01*
X136244564Y-91028292D01*
X136124035Y-91162152D01*
X136057678Y-91277087D01*
X136033970Y-91318150D01*
X135978308Y-91489457D01*
X135965210Y-91614078D01*
X135959480Y-91668600D01*
X135642720Y-91668600D01*
X135626241Y-91511820D01*
X135628166Y-91495562D01*
X135636902Y-91481714D01*
X138197865Y-88920752D01*
X138224099Y-88909886D01*
X138250333Y-88920752D01*
X140315450Y-90985869D01*
X140326303Y-91011132D01*
X140316787Y-91036928D01*
X140204035Y-91162151D01*
X140204035Y-91162152D01*
X140137678Y-91277087D01*
X140113970Y-91318150D01*
X140058308Y-91489457D01*
X140045210Y-91614078D01*
X140039480Y-91668600D01*
X140058308Y-91847741D01*
X140113971Y-92019052D01*
X140204035Y-92175048D01*
X140324564Y-92308908D01*
X140470290Y-92414785D01*
X140634845Y-92488049D01*
X140634846Y-92488049D01*
X140634848Y-92488050D01*
X140811035Y-92525500D01*
X140811036Y-92525500D01*
X140991164Y-92525500D01*
X140991165Y-92525500D01*
X141167351Y-92488050D01*
X141167351Y-92488049D01*
X141167355Y-92488049D01*
X141331910Y-92414785D01*
X141477636Y-92308908D01*
X141598165Y-92175048D01*
X141688229Y-92019052D01*
X141743892Y-91847741D01*
X141762720Y-91668600D01*
X141743892Y-91489459D01*
X141688229Y-91318148D01*
X141598165Y-91162152D01*
X141477636Y-91028292D01*
X141469293Y-91022230D01*
X141458044Y-91009059D01*
X141454000Y-90992216D01*
X141454000Y-90799659D01*
X141454022Y-90798392D01*
X141455043Y-90768504D01*
X141456272Y-90732527D01*
X141445436Y-90688063D01*
X141444734Y-90684370D01*
X141438502Y-90639027D01*
X141428338Y-90615627D01*
X141426324Y-90609635D01*
X141423289Y-90597182D01*
X141420287Y-90584860D01*
X141397867Y-90544986D01*
X141396178Y-90541584D01*
X141377951Y-90499624D01*
X141377950Y-90499621D01*
X141361846Y-90479826D01*
X141358293Y-90474604D01*
X141345794Y-90452376D01*
X141313446Y-90420027D01*
X141310901Y-90417207D01*
X141282032Y-90381722D01*
X141261194Y-90367012D01*
X141256356Y-90362937D01*
X140090700Y-89197281D01*
X142821838Y-89197281D01*
X142851863Y-89470166D01*
X142921304Y-89735783D01*
X143028677Y-89988454D01*
X143162791Y-90208207D01*
X143171695Y-90222796D01*
X143347309Y-90433818D01*
X143551777Y-90617023D01*
X143551779Y-90617024D01*
X143780742Y-90768505D01*
X144029319Y-90885033D01*
X144105281Y-90907886D01*
X144292219Y-90964127D01*
X144563831Y-91004100D01*
X144769647Y-91004100D01*
X144769648Y-91004100D01*
X144974906Y-90989077D01*
X145064228Y-90969179D01*
X145242875Y-90929384D01*
X145499298Y-90831311D01*
X145738709Y-90696947D01*
X145956004Y-90529157D01*
X146146554Y-90331516D01*
X146306296Y-90108237D01*
X146431827Y-89864079D01*
X146520470Y-89604246D01*
X146570336Y-89334274D01*
X146575342Y-89197281D01*
X147901838Y-89197281D01*
X147931863Y-89470166D01*
X148001304Y-89735783D01*
X148108677Y-89988454D01*
X148242791Y-90208207D01*
X148251695Y-90222796D01*
X148427309Y-90433818D01*
X148631777Y-90617023D01*
X148631779Y-90617024D01*
X148860742Y-90768505D01*
X149109319Y-90885033D01*
X149185281Y-90907886D01*
X149372219Y-90964127D01*
X149643831Y-91004100D01*
X149849647Y-91004100D01*
X149849648Y-91004100D01*
X150054906Y-90989077D01*
X150144228Y-90969179D01*
X150322875Y-90929384D01*
X150579298Y-90831311D01*
X150818709Y-90696947D01*
X151036004Y-90529157D01*
X151226554Y-90331516D01*
X151386296Y-90108237D01*
X151511827Y-89864079D01*
X151600470Y-89604246D01*
X151650336Y-89334274D01*
X151660362Y-89059920D01*
X151630336Y-88787029D01*
X151560896Y-88521418D01*
X151506376Y-88393121D01*
X151453522Y-88268745D01*
X151310506Y-88034406D01*
X151310505Y-88034404D01*
X151134891Y-87823382D01*
X150930423Y-87640177D01*
X150930420Y-87640175D01*
X150701457Y-87488694D01*
X150452880Y-87372166D01*
X150189984Y-87293074D01*
X150189981Y-87293073D01*
X149918369Y-87253100D01*
X149712553Y-87253100D01*
X149712552Y-87253100D01*
X149507293Y-87268122D01*
X149239326Y-87327815D01*
X148982901Y-87425889D01*
X148743496Y-87560249D01*
X148526190Y-87728047D01*
X148335647Y-87925682D01*
X148175906Y-88148959D01*
X148050372Y-88393123D01*
X147961729Y-88652953D01*
X147911863Y-88922929D01*
X147901838Y-89197281D01*
X146575342Y-89197281D01*
X146580362Y-89059920D01*
X146550336Y-88787029D01*
X146480896Y-88521418D01*
X146426376Y-88393121D01*
X146373522Y-88268745D01*
X146230506Y-88034406D01*
X146230505Y-88034404D01*
X146054891Y-87823382D01*
X145850423Y-87640177D01*
X145850420Y-87640175D01*
X145621457Y-87488694D01*
X145372880Y-87372166D01*
X145109984Y-87293074D01*
X145109981Y-87293073D01*
X144838369Y-87253100D01*
X144632553Y-87253100D01*
X144632552Y-87253100D01*
X144427293Y-87268122D01*
X144159326Y-87327815D01*
X143902901Y-87425889D01*
X143663496Y-87560249D01*
X143446190Y-87728047D01*
X143255647Y-87925682D01*
X143095906Y-88148959D01*
X142970372Y-88393123D01*
X142881729Y-88652953D01*
X142831863Y-88922929D01*
X142821838Y-89197281D01*
X140090700Y-89197281D01*
X138629301Y-87735882D01*
X138627572Y-87734030D01*
X138590884Y-87691954D01*
X138578059Y-87683542D01*
X138572172Y-87678753D01*
X136955253Y-86061834D01*
X136944387Y-86035600D01*
X136955253Y-86009366D01*
X136981487Y-85998500D01*
X153600714Y-85998500D01*
X153626948Y-86009366D01*
X155506447Y-87888865D01*
X155517313Y-87915099D01*
X155506447Y-87941333D01*
X152646947Y-90800834D01*
X152634911Y-90808876D01*
X152620713Y-90811700D01*
X152471035Y-90811700D01*
X152294848Y-90849149D01*
X152130287Y-90922416D01*
X151984567Y-91028289D01*
X151984564Y-91028291D01*
X151984564Y-91028292D01*
X151864035Y-91162152D01*
X151797678Y-91277087D01*
X151773970Y-91318150D01*
X151718308Y-91489457D01*
X151705210Y-91614078D01*
X151699480Y-91668600D01*
X151718308Y-91847741D01*
X151773971Y-92019052D01*
X151864035Y-92175048D01*
X151984564Y-92308908D01*
X152130290Y-92414785D01*
X152294845Y-92488049D01*
X152294846Y-92488049D01*
X152294848Y-92488050D01*
X152471035Y-92525500D01*
X152471036Y-92525500D01*
X152651164Y-92525500D01*
X152651165Y-92525500D01*
X152827351Y-92488050D01*
X152827351Y-92488049D01*
X152827355Y-92488049D01*
X152991910Y-92414785D01*
X153137636Y-92308908D01*
X153258165Y-92175048D01*
X153348229Y-92019052D01*
X153403892Y-91847741D01*
X153422720Y-91668600D01*
X153416988Y-91614073D01*
X153418913Y-91597815D01*
X153427649Y-91583967D01*
X153779314Y-91232302D01*
X153803122Y-91221516D01*
X153828133Y-91229104D01*
X153841935Y-91251299D01*
X153837678Y-91277085D01*
X153813972Y-91318147D01*
X153813970Y-91318150D01*
X153758308Y-91489457D01*
X153745210Y-91614078D01*
X153739480Y-91668600D01*
X153758308Y-91847741D01*
X153813971Y-92019052D01*
X153904035Y-92175048D01*
X154024564Y-92308908D01*
X154170290Y-92414785D01*
X154334845Y-92488049D01*
X154334846Y-92488049D01*
X154334848Y-92488050D01*
X154511035Y-92525500D01*
X154511036Y-92525500D01*
X154691164Y-92525500D01*
X154691165Y-92525500D01*
X154867351Y-92488050D01*
X154867351Y-92488049D01*
X154867355Y-92488049D01*
X155031910Y-92414785D01*
X155177636Y-92308908D01*
X155298165Y-92175048D01*
X155388229Y-92019052D01*
X155443892Y-91847741D01*
X155462720Y-91668600D01*
X155779480Y-91668600D01*
X155798308Y-91847741D01*
X155853971Y-92019052D01*
X155944035Y-92175048D01*
X156064564Y-92308908D01*
X156210290Y-92414785D01*
X156374845Y-92488049D01*
X156374846Y-92488049D01*
X156374848Y-92488050D01*
X156551035Y-92525500D01*
X156551036Y-92525500D01*
X156731164Y-92525500D01*
X156731165Y-92525500D01*
X156907351Y-92488050D01*
X156907351Y-92488049D01*
X156907355Y-92488049D01*
X157071910Y-92414785D01*
X157217636Y-92308908D01*
X157338165Y-92175048D01*
X157428229Y-92019052D01*
X157483892Y-91847741D01*
X157502720Y-91668600D01*
X157483892Y-91489459D01*
X157428229Y-91318148D01*
X157338165Y-91162152D01*
X157217636Y-91028292D01*
X157217632Y-91028289D01*
X157071912Y-90922416D01*
X156907351Y-90849149D01*
X156731165Y-90811700D01*
X156731164Y-90811700D01*
X156551036Y-90811700D01*
X156551035Y-90811700D01*
X156374848Y-90849149D01*
X156210287Y-90922416D01*
X156064567Y-91028289D01*
X156064564Y-91028291D01*
X156064564Y-91028292D01*
X155944035Y-91162152D01*
X155877678Y-91277087D01*
X155853970Y-91318150D01*
X155798308Y-91489457D01*
X155785210Y-91614078D01*
X155779480Y-91668600D01*
X155462720Y-91668600D01*
X155443892Y-91489459D01*
X155388229Y-91318148D01*
X155298165Y-91162152D01*
X155177636Y-91028292D01*
X155177632Y-91028289D01*
X155031912Y-90922416D01*
X154867351Y-90849149D01*
X154691165Y-90811700D01*
X154691164Y-90811700D01*
X154511036Y-90811700D01*
X154511035Y-90811700D01*
X154334848Y-90849149D01*
X154206995Y-90906072D01*
X154181834Y-90907886D01*
X154161330Y-90893193D01*
X154154961Y-90868784D01*
X154165669Y-90845947D01*
X156288366Y-88723251D01*
X156314599Y-88712386D01*
X156340833Y-88723252D01*
X158117334Y-90499753D01*
X158128200Y-90525987D01*
X158128200Y-90992216D01*
X158124156Y-91009059D01*
X158112907Y-91022230D01*
X158104566Y-91028290D01*
X158104564Y-91028291D01*
X158104564Y-91028292D01*
X157984035Y-91162152D01*
X157917678Y-91277087D01*
X157893970Y-91318150D01*
X157838308Y-91489457D01*
X157825210Y-91614078D01*
X157819480Y-91668600D01*
X157838308Y-91847741D01*
X157893971Y-92019052D01*
X157984035Y-92175048D01*
X158104564Y-92308908D01*
X158250290Y-92414785D01*
X158414845Y-92488049D01*
X158414846Y-92488049D01*
X158414848Y-92488050D01*
X158591035Y-92525500D01*
X158591036Y-92525500D01*
X158771164Y-92525500D01*
X158771165Y-92525500D01*
X158947351Y-92488050D01*
X158947351Y-92488049D01*
X158947355Y-92488049D01*
X159111910Y-92414785D01*
X159257636Y-92308908D01*
X159378165Y-92175048D01*
X159468229Y-92019052D01*
X159523892Y-91847741D01*
X159542720Y-91668600D01*
X159523892Y-91489459D01*
X159468229Y-91318148D01*
X159378165Y-91162152D01*
X159257636Y-91028292D01*
X159249293Y-91022230D01*
X159238044Y-91009059D01*
X159234000Y-90992216D01*
X159234000Y-90291659D01*
X159234022Y-90290392D01*
X159234023Y-90290362D01*
X159236272Y-90224527D01*
X159225436Y-90180063D01*
X159224734Y-90176370D01*
X159218502Y-90131027D01*
X159208342Y-90107637D01*
X159206325Y-90101639D01*
X159200287Y-90076859D01*
X159177865Y-90036984D01*
X159176178Y-90033588D01*
X159157950Y-89991621D01*
X159157949Y-89991620D01*
X159157949Y-89991619D01*
X159141854Y-89971837D01*
X159138297Y-89966612D01*
X159125795Y-89944377D01*
X159125793Y-89944375D01*
X159093446Y-89912027D01*
X159090901Y-89909207D01*
X159062031Y-89873720D01*
X159041194Y-89859012D01*
X159036355Y-89854937D01*
X158378699Y-89197281D01*
X160601838Y-89197281D01*
X160631863Y-89470166D01*
X160701304Y-89735783D01*
X160808677Y-89988454D01*
X160942791Y-90208207D01*
X160951695Y-90222796D01*
X161127309Y-90433818D01*
X161331777Y-90617023D01*
X161331779Y-90617024D01*
X161560742Y-90768505D01*
X161809319Y-90885033D01*
X161885281Y-90907886D01*
X162072219Y-90964127D01*
X162343831Y-91004100D01*
X162549647Y-91004100D01*
X162549648Y-91004100D01*
X162754906Y-90989077D01*
X162844228Y-90969179D01*
X163022875Y-90929384D01*
X163279298Y-90831311D01*
X163518709Y-90696947D01*
X163736004Y-90529157D01*
X163926554Y-90331516D01*
X164086296Y-90108237D01*
X164211827Y-89864079D01*
X164300470Y-89604246D01*
X164350336Y-89334274D01*
X164355342Y-89197281D01*
X165681838Y-89197281D01*
X165711863Y-89470166D01*
X165781304Y-89735783D01*
X165888677Y-89988454D01*
X166022791Y-90208207D01*
X166031695Y-90222796D01*
X166207309Y-90433818D01*
X166411777Y-90617023D01*
X166411779Y-90617024D01*
X166640742Y-90768505D01*
X166889319Y-90885033D01*
X166965281Y-90907886D01*
X167152219Y-90964127D01*
X167423831Y-91004100D01*
X167629647Y-91004100D01*
X167629648Y-91004100D01*
X167834906Y-90989077D01*
X167924228Y-90969179D01*
X168102875Y-90929384D01*
X168359298Y-90831311D01*
X168598709Y-90696947D01*
X168816004Y-90529157D01*
X169006554Y-90331516D01*
X169166296Y-90108237D01*
X169291827Y-89864079D01*
X169380470Y-89604246D01*
X169430336Y-89334274D01*
X169440362Y-89059920D01*
X169410336Y-88787029D01*
X169340896Y-88521418D01*
X169286376Y-88393121D01*
X169233522Y-88268745D01*
X169090506Y-88034406D01*
X169090505Y-88034404D01*
X168914891Y-87823382D01*
X168710423Y-87640177D01*
X168710420Y-87640175D01*
X168481457Y-87488694D01*
X168232880Y-87372166D01*
X167969984Y-87293074D01*
X167969981Y-87293073D01*
X167698369Y-87253100D01*
X167492553Y-87253100D01*
X167492552Y-87253100D01*
X167287293Y-87268122D01*
X167019326Y-87327815D01*
X166762901Y-87425889D01*
X166523496Y-87560249D01*
X166306190Y-87728047D01*
X166115647Y-87925682D01*
X165955906Y-88148959D01*
X165830372Y-88393123D01*
X165741729Y-88652953D01*
X165691863Y-88922929D01*
X165681838Y-89197281D01*
X164355342Y-89197281D01*
X164360362Y-89059920D01*
X164330336Y-88787029D01*
X164260896Y-88521418D01*
X164206376Y-88393121D01*
X164153522Y-88268745D01*
X164010506Y-88034406D01*
X164010505Y-88034404D01*
X163834891Y-87823382D01*
X163630423Y-87640177D01*
X163630420Y-87640175D01*
X163401457Y-87488694D01*
X163152880Y-87372166D01*
X162889984Y-87293074D01*
X162889981Y-87293073D01*
X162618369Y-87253100D01*
X162412553Y-87253100D01*
X162412552Y-87253100D01*
X162207293Y-87268122D01*
X161939326Y-87327815D01*
X161682901Y-87425889D01*
X161443496Y-87560249D01*
X161226190Y-87728047D01*
X161035647Y-87925682D01*
X160875906Y-88148959D01*
X160750372Y-88393123D01*
X160661729Y-88652953D01*
X160611863Y-88922929D01*
X160601838Y-89197281D01*
X158378699Y-89197281D01*
X157878436Y-88697018D01*
X156719667Y-87538248D01*
X156718787Y-87537337D01*
X156673809Y-87489177D01*
X156669412Y-87486503D01*
X156662457Y-87481039D01*
X155243253Y-86061834D01*
X155232387Y-86035600D01*
X155243253Y-86009366D01*
X155269487Y-85998500D01*
X171380714Y-85998500D01*
X171406948Y-86009366D01*
X173286447Y-87888865D01*
X173297313Y-87915099D01*
X173286447Y-87941333D01*
X170426947Y-90800834D01*
X170414911Y-90808876D01*
X170400713Y-90811700D01*
X170251035Y-90811700D01*
X170074848Y-90849149D01*
X169910287Y-90922416D01*
X169764567Y-91028289D01*
X169764564Y-91028291D01*
X169764564Y-91028292D01*
X169644035Y-91162152D01*
X169577678Y-91277087D01*
X169553970Y-91318150D01*
X169498308Y-91489457D01*
X169485210Y-91614078D01*
X169479480Y-91668600D01*
X169498308Y-91847741D01*
X169553971Y-92019052D01*
X169644035Y-92175048D01*
X169764564Y-92308908D01*
X169910290Y-92414785D01*
X170074845Y-92488049D01*
X170074846Y-92488049D01*
X170074848Y-92488050D01*
X170251035Y-92525500D01*
X170251036Y-92525500D01*
X170431164Y-92525500D01*
X170431165Y-92525500D01*
X170607351Y-92488050D01*
X170607351Y-92488049D01*
X170607355Y-92488049D01*
X170771910Y-92414785D01*
X170917636Y-92308908D01*
X171038165Y-92175048D01*
X171128229Y-92019052D01*
X171183892Y-91847741D01*
X171202720Y-91668600D01*
X171196988Y-91614073D01*
X171198913Y-91597815D01*
X171207649Y-91583967D01*
X171559314Y-91232302D01*
X171583122Y-91221516D01*
X171608133Y-91229104D01*
X171621935Y-91251299D01*
X171617678Y-91277085D01*
X171593972Y-91318147D01*
X171593970Y-91318150D01*
X171538308Y-91489457D01*
X171525210Y-91614078D01*
X171519480Y-91668600D01*
X171538308Y-91847741D01*
X171593971Y-92019052D01*
X171684035Y-92175048D01*
X171804564Y-92308908D01*
X171950290Y-92414785D01*
X172114845Y-92488049D01*
X172114846Y-92488049D01*
X172114848Y-92488050D01*
X172291035Y-92525500D01*
X172291036Y-92525500D01*
X172471164Y-92525500D01*
X172471165Y-92525500D01*
X172647351Y-92488050D01*
X172647351Y-92488049D01*
X172647355Y-92488049D01*
X172811910Y-92414785D01*
X172957636Y-92308908D01*
X173078165Y-92175048D01*
X173168229Y-92019052D01*
X173223892Y-91847741D01*
X173242720Y-91668600D01*
X173559480Y-91668600D01*
X173578308Y-91847741D01*
X173633971Y-92019052D01*
X173724035Y-92175048D01*
X173844564Y-92308908D01*
X173990290Y-92414785D01*
X174154845Y-92488049D01*
X174154846Y-92488049D01*
X174154848Y-92488050D01*
X174331035Y-92525500D01*
X174331036Y-92525500D01*
X174511164Y-92525500D01*
X174511165Y-92525500D01*
X174687351Y-92488050D01*
X174687351Y-92488049D01*
X174687355Y-92488049D01*
X174851910Y-92414785D01*
X174997636Y-92308908D01*
X175118165Y-92175048D01*
X175208229Y-92019052D01*
X175263892Y-91847741D01*
X175282720Y-91668600D01*
X175263892Y-91489459D01*
X175208229Y-91318148D01*
X175118165Y-91162152D01*
X174997636Y-91028292D01*
X174997632Y-91028289D01*
X174851912Y-90922416D01*
X174687351Y-90849149D01*
X174511165Y-90811700D01*
X174511164Y-90811700D01*
X174331036Y-90811700D01*
X174331035Y-90811700D01*
X174154848Y-90849149D01*
X173990287Y-90922416D01*
X173844567Y-91028289D01*
X173844564Y-91028291D01*
X173844564Y-91028292D01*
X173724035Y-91162152D01*
X173657678Y-91277087D01*
X173633970Y-91318150D01*
X173578308Y-91489457D01*
X173565210Y-91614078D01*
X173559480Y-91668600D01*
X173242720Y-91668600D01*
X173223892Y-91489459D01*
X173168229Y-91318148D01*
X173078165Y-91162152D01*
X172957636Y-91028292D01*
X172957632Y-91028289D01*
X172811912Y-90922416D01*
X172647351Y-90849149D01*
X172471165Y-90811700D01*
X172471164Y-90811700D01*
X172291036Y-90811700D01*
X172291035Y-90811700D01*
X172114848Y-90849149D01*
X171986995Y-90906072D01*
X171961834Y-90907886D01*
X171941330Y-90893193D01*
X171934961Y-90868784D01*
X171945669Y-90845947D01*
X174068366Y-88723251D01*
X174094599Y-88712386D01*
X174120833Y-88723252D01*
X175897334Y-90499753D01*
X175908200Y-90525987D01*
X175908200Y-90992216D01*
X175904156Y-91009059D01*
X175892907Y-91022230D01*
X175884566Y-91028290D01*
X175884564Y-91028291D01*
X175884564Y-91028292D01*
X175764035Y-91162152D01*
X175697678Y-91277087D01*
X175673970Y-91318150D01*
X175618308Y-91489457D01*
X175605210Y-91614078D01*
X175599480Y-91668600D01*
X175618308Y-91847741D01*
X175673971Y-92019052D01*
X175764035Y-92175048D01*
X175884564Y-92308908D01*
X176030290Y-92414785D01*
X176194845Y-92488049D01*
X176194846Y-92488049D01*
X176194848Y-92488050D01*
X176371035Y-92525500D01*
X176371036Y-92525500D01*
X176551164Y-92525500D01*
X176551165Y-92525500D01*
X176727351Y-92488050D01*
X176727351Y-92488049D01*
X176727355Y-92488049D01*
X176891910Y-92414785D01*
X177037636Y-92308908D01*
X177158165Y-92175048D01*
X177248229Y-92019052D01*
X177270819Y-91949523D01*
X177285897Y-91929874D01*
X177309981Y-91924092D01*
X177332337Y-91934755D01*
X178042637Y-92645056D01*
X178053474Y-92669834D01*
X178044614Y-92695385D01*
X178020764Y-92708133D01*
X177994596Y-92701304D01*
X177936799Y-92659312D01*
X177762732Y-92581812D01*
X177576369Y-92542200D01*
X177385831Y-92542200D01*
X177199463Y-92581813D01*
X177025405Y-92659309D01*
X176915081Y-92739462D01*
X176915081Y-92739463D01*
X178190708Y-94015090D01*
X178218432Y-93984302D01*
X178313699Y-93819294D01*
X178372576Y-93638090D01*
X178392492Y-93448599D01*
X178372576Y-93259109D01*
X178313698Y-93077901D01*
X178233596Y-92939162D01*
X178229338Y-92913374D01*
X178243140Y-92891179D01*
X178268151Y-92883591D01*
X178291959Y-92894378D01*
X182237334Y-96839753D01*
X182248200Y-96865987D01*
X182248200Y-109936439D01*
X182248114Y-109938971D01*
X182244302Y-109994687D01*
X182247424Y-110009704D01*
X182248200Y-110017253D01*
X182248200Y-112774213D01*
X182237334Y-112800447D01*
X177566947Y-117470834D01*
X177540713Y-117481700D01*
X177391035Y-117481700D01*
X177214848Y-117519149D01*
X177050287Y-117592416D01*
X176904567Y-117698289D01*
X176784035Y-117832152D01*
X176693970Y-117988150D01*
X176638308Y-118159457D01*
X176619480Y-118338600D01*
X176625210Y-118393121D01*
X176623285Y-118409382D01*
X176614547Y-118423232D01*
X176262889Y-118774890D01*
X176239081Y-118785677D01*
X176214070Y-118778089D01*
X176200268Y-118755894D01*
X176204525Y-118730107D01*
X176228229Y-118689052D01*
X176283892Y-118517741D01*
X176302720Y-118338600D01*
X176283892Y-118159459D01*
X176228229Y-117988148D01*
X176138165Y-117832152D01*
X176017636Y-117698292D01*
X176017632Y-117698289D01*
X175871912Y-117592416D01*
X175707351Y-117519149D01*
X175531165Y-117481700D01*
X175531164Y-117481700D01*
X175351036Y-117481700D01*
X175351035Y-117481700D01*
X175174848Y-117519149D01*
X175010287Y-117592416D01*
X174864567Y-117698289D01*
X174744035Y-117832152D01*
X174653970Y-117988150D01*
X174598308Y-118159457D01*
X174585210Y-118284078D01*
X174579480Y-118338600D01*
X174598308Y-118517741D01*
X174653971Y-118689052D01*
X174744035Y-118845048D01*
X174864564Y-118978908D01*
X174864567Y-118978910D01*
X175000696Y-119077815D01*
X175010290Y-119084785D01*
X175174845Y-119158049D01*
X175174846Y-119158049D01*
X175174848Y-119158050D01*
X175351035Y-119195500D01*
X175351036Y-119195500D01*
X175531164Y-119195500D01*
X175531165Y-119195500D01*
X175707351Y-119158050D01*
X175707351Y-119158049D01*
X175707355Y-119158049D01*
X175835200Y-119101128D01*
X175860360Y-119099315D01*
X175880865Y-119114008D01*
X175887234Y-119138417D01*
X175876524Y-119161256D01*
X174447333Y-120590446D01*
X174421099Y-120601312D01*
X174394865Y-120590446D01*
X172965674Y-119161255D01*
X172954964Y-119138416D01*
X172961333Y-119114007D01*
X172981838Y-119099314D01*
X173006997Y-119101127D01*
X173134845Y-119158049D01*
X173134846Y-119158049D01*
X173134848Y-119158050D01*
X173311035Y-119195500D01*
X173311036Y-119195500D01*
X173491164Y-119195500D01*
X173491165Y-119195500D01*
X173667351Y-119158050D01*
X173667351Y-119158049D01*
X173667355Y-119158049D01*
X173831910Y-119084785D01*
X173977636Y-118978908D01*
X174098165Y-118845048D01*
X174188229Y-118689052D01*
X174243892Y-118517741D01*
X174262720Y-118338600D01*
X174243892Y-118159459D01*
X174188229Y-117988148D01*
X174098165Y-117832152D01*
X173977636Y-117698292D01*
X173977632Y-117698289D01*
X173831912Y-117592416D01*
X173667351Y-117519149D01*
X173491165Y-117481700D01*
X173491164Y-117481700D01*
X173311036Y-117481700D01*
X173311035Y-117481700D01*
X173134848Y-117519149D01*
X172970287Y-117592416D01*
X172824567Y-117698289D01*
X172704035Y-117832152D01*
X172613970Y-117988150D01*
X172558308Y-118159457D01*
X172545210Y-118284078D01*
X172539480Y-118338600D01*
X172558308Y-118517741D01*
X172613971Y-118689052D01*
X172637673Y-118730106D01*
X172637675Y-118730108D01*
X172641932Y-118755896D01*
X172628130Y-118778091D01*
X172603118Y-118785679D01*
X172579311Y-118774892D01*
X172227651Y-118423232D01*
X172218913Y-118409382D01*
X172216988Y-118393124D01*
X172222720Y-118338600D01*
X172203892Y-118159459D01*
X172148229Y-117988148D01*
X172058165Y-117832152D01*
X171937636Y-117698292D01*
X171937632Y-117698289D01*
X171791912Y-117592416D01*
X171627351Y-117519149D01*
X171451165Y-117481700D01*
X171451164Y-117481700D01*
X171271036Y-117481700D01*
X171271035Y-117481700D01*
X171094848Y-117519149D01*
X170930287Y-117592416D01*
X170784567Y-117698289D01*
X170664035Y-117832152D01*
X170573970Y-117988150D01*
X170518308Y-118159457D01*
X170505210Y-118284078D01*
X170499480Y-118338600D01*
X170518308Y-118517741D01*
X170573971Y-118689052D01*
X170664035Y-118845048D01*
X170784564Y-118978908D01*
X170784567Y-118978910D01*
X170920696Y-119077815D01*
X170930290Y-119084785D01*
X171094845Y-119158049D01*
X171094846Y-119158049D01*
X171094848Y-119158050D01*
X171271035Y-119195500D01*
X171271036Y-119195500D01*
X171420714Y-119195500D01*
X171446948Y-119206366D01*
X173612947Y-121372365D01*
X173623813Y-121398599D01*
X173612947Y-121424833D01*
X170931947Y-124105834D01*
X170919911Y-124113876D01*
X170905713Y-124116700D01*
X154794486Y-124116700D01*
X154768252Y-124105834D01*
X154757386Y-124079600D01*
X154768252Y-124053366D01*
X155739211Y-123082407D01*
X157015685Y-121805932D01*
X157018484Y-121803407D01*
X157053978Y-121774532D01*
X157068690Y-121753688D01*
X157072754Y-121748862D01*
X157874335Y-120947281D01*
X160601838Y-120947281D01*
X160631863Y-121220166D01*
X160701304Y-121485783D01*
X160808677Y-121738454D01*
X160910858Y-121905882D01*
X160951695Y-121972796D01*
X161127309Y-122183818D01*
X161331777Y-122367023D01*
X161331779Y-122367024D01*
X161560742Y-122518505D01*
X161809319Y-122635033D01*
X161922447Y-122669067D01*
X162072219Y-122714127D01*
X162343831Y-122754100D01*
X162549647Y-122754100D01*
X162549648Y-122754100D01*
X162754906Y-122739077D01*
X162844228Y-122719179D01*
X163022875Y-122679384D01*
X163279298Y-122581311D01*
X163518709Y-122446947D01*
X163736004Y-122279157D01*
X163926554Y-122081516D01*
X164086296Y-121858237D01*
X164211827Y-121614079D01*
X164300470Y-121354246D01*
X164350336Y-121084274D01*
X164355342Y-120947281D01*
X165681838Y-120947281D01*
X165711863Y-121220166D01*
X165781304Y-121485783D01*
X165888677Y-121738454D01*
X165990858Y-121905882D01*
X166031695Y-121972796D01*
X166207309Y-122183818D01*
X166411777Y-122367023D01*
X166411779Y-122367024D01*
X166640742Y-122518505D01*
X166889319Y-122635033D01*
X167002447Y-122669067D01*
X167152219Y-122714127D01*
X167423831Y-122754100D01*
X167629647Y-122754100D01*
X167629648Y-122754100D01*
X167834906Y-122739077D01*
X167924228Y-122719179D01*
X168102875Y-122679384D01*
X168359298Y-122581311D01*
X168598709Y-122446947D01*
X168816004Y-122279157D01*
X169006554Y-122081516D01*
X169166296Y-121858237D01*
X169291827Y-121614079D01*
X169380470Y-121354246D01*
X169430336Y-121084274D01*
X169440362Y-120809920D01*
X169410336Y-120537029D01*
X169340896Y-120271418D01*
X169233523Y-120018748D01*
X169233522Y-120018745D01*
X169090506Y-119784406D01*
X169090505Y-119784404D01*
X168914891Y-119573382D01*
X168710423Y-119390177D01*
X168710420Y-119390175D01*
X168481457Y-119238694D01*
X168232880Y-119122166D01*
X167969984Y-119043074D01*
X167969981Y-119043073D01*
X167698369Y-119003100D01*
X167492553Y-119003100D01*
X167492552Y-119003100D01*
X167287293Y-119018122D01*
X167019326Y-119077815D01*
X166762901Y-119175889D01*
X166523496Y-119310249D01*
X166306190Y-119478047D01*
X166115647Y-119675682D01*
X165955906Y-119898959D01*
X165830372Y-120143123D01*
X165741729Y-120402953D01*
X165691863Y-120672929D01*
X165681838Y-120947281D01*
X164355342Y-120947281D01*
X164360362Y-120809920D01*
X164330336Y-120537029D01*
X164260896Y-120271418D01*
X164153523Y-120018748D01*
X164153522Y-120018745D01*
X164010506Y-119784406D01*
X164010505Y-119784404D01*
X163834891Y-119573382D01*
X163630423Y-119390177D01*
X163630420Y-119390175D01*
X163401457Y-119238694D01*
X163152880Y-119122166D01*
X162889984Y-119043074D01*
X162889981Y-119043073D01*
X162618369Y-119003100D01*
X162412553Y-119003100D01*
X162412552Y-119003100D01*
X162207293Y-119018122D01*
X161939326Y-119077815D01*
X161682901Y-119175889D01*
X161443496Y-119310249D01*
X161226190Y-119478047D01*
X161035647Y-119675682D01*
X160875906Y-119898959D01*
X160750372Y-120143123D01*
X160661729Y-120402953D01*
X160611863Y-120672929D01*
X160601838Y-120947281D01*
X157874335Y-120947281D01*
X159615251Y-119206366D01*
X159641486Y-119195500D01*
X159791165Y-119195500D01*
X159967351Y-119158050D01*
X159967351Y-119158049D01*
X159967355Y-119158049D01*
X160131910Y-119084785D01*
X160277636Y-118978908D01*
X160398165Y-118845048D01*
X160488229Y-118689052D01*
X160543892Y-118517741D01*
X160562720Y-118338600D01*
X160543892Y-118159459D01*
X160488229Y-117988148D01*
X160398165Y-117832152D01*
X160277636Y-117698292D01*
X160277632Y-117698289D01*
X160131912Y-117592416D01*
X159967351Y-117519149D01*
X159791165Y-117481700D01*
X159791164Y-117481700D01*
X159611036Y-117481700D01*
X159611035Y-117481700D01*
X159434848Y-117519149D01*
X159270287Y-117592416D01*
X159124567Y-117698289D01*
X159004035Y-117832152D01*
X158913970Y-117988150D01*
X158858308Y-118159457D01*
X158839480Y-118338600D01*
X158845210Y-118393121D01*
X158843285Y-118409382D01*
X158834547Y-118423232D01*
X158482889Y-118774890D01*
X158459081Y-118785677D01*
X158434070Y-118778089D01*
X158420268Y-118755894D01*
X158424525Y-118730107D01*
X158448229Y-118689052D01*
X158503892Y-118517741D01*
X158522720Y-118338600D01*
X158503892Y-118159459D01*
X158448229Y-117988148D01*
X158358165Y-117832152D01*
X158237636Y-117698292D01*
X158237632Y-117698289D01*
X158091912Y-117592416D01*
X157927351Y-117519149D01*
X157751165Y-117481700D01*
X157751164Y-117481700D01*
X157571036Y-117481700D01*
X157571035Y-117481700D01*
X157394848Y-117519149D01*
X157230287Y-117592416D01*
X157084567Y-117698289D01*
X156964035Y-117832152D01*
X156873970Y-117988150D01*
X156818308Y-118159457D01*
X156805210Y-118284078D01*
X156799480Y-118338600D01*
X156818308Y-118517741D01*
X156873971Y-118689052D01*
X156964035Y-118845048D01*
X157084564Y-118978908D01*
X157084567Y-118978910D01*
X157220696Y-119077815D01*
X157230290Y-119084785D01*
X157394845Y-119158049D01*
X157394846Y-119158049D01*
X157394848Y-119158050D01*
X157571035Y-119195500D01*
X157571036Y-119195500D01*
X157751164Y-119195500D01*
X157751165Y-119195500D01*
X157927351Y-119158050D01*
X157927351Y-119158049D01*
X157927355Y-119158049D01*
X158055200Y-119101128D01*
X158080360Y-119099315D01*
X158100865Y-119114008D01*
X158107234Y-119138417D01*
X158096524Y-119161256D01*
X156667333Y-120590446D01*
X156641099Y-120601312D01*
X156614865Y-120590446D01*
X155185674Y-119161255D01*
X155174964Y-119138416D01*
X155181333Y-119114007D01*
X155201838Y-119099314D01*
X155226997Y-119101127D01*
X155354845Y-119158049D01*
X155354846Y-119158049D01*
X155354848Y-119158050D01*
X155531035Y-119195500D01*
X155531036Y-119195500D01*
X155711164Y-119195500D01*
X155711165Y-119195500D01*
X155887351Y-119158050D01*
X155887351Y-119158049D01*
X155887355Y-119158049D01*
X156051910Y-119084785D01*
X156197636Y-118978908D01*
X156318165Y-118845048D01*
X156408229Y-118689052D01*
X156463892Y-118517741D01*
X156482720Y-118338600D01*
X156463892Y-118159459D01*
X156408229Y-117988148D01*
X156318165Y-117832152D01*
X156197636Y-117698292D01*
X156197632Y-117698289D01*
X156051912Y-117592416D01*
X155887351Y-117519149D01*
X155711165Y-117481700D01*
X155711164Y-117481700D01*
X155531036Y-117481700D01*
X155531035Y-117481700D01*
X155354848Y-117519149D01*
X155190287Y-117592416D01*
X155044567Y-117698289D01*
X154924035Y-117832152D01*
X154833970Y-117988150D01*
X154778308Y-118159457D01*
X154765210Y-118284078D01*
X154759480Y-118338600D01*
X154778308Y-118517741D01*
X154833971Y-118689052D01*
X154857673Y-118730106D01*
X154857675Y-118730108D01*
X154861932Y-118755896D01*
X154848130Y-118778091D01*
X154823118Y-118785679D01*
X154799311Y-118774892D01*
X154447651Y-118423232D01*
X154438913Y-118409382D01*
X154436988Y-118393124D01*
X154442720Y-118338600D01*
X154423892Y-118159459D01*
X154368229Y-117988148D01*
X154278165Y-117832152D01*
X154157636Y-117698292D01*
X154157632Y-117698289D01*
X154011912Y-117592416D01*
X153847351Y-117519149D01*
X153671165Y-117481700D01*
X153671164Y-117481700D01*
X153491036Y-117481700D01*
X153491035Y-117481700D01*
X153314848Y-117519149D01*
X153150287Y-117592416D01*
X153004567Y-117698289D01*
X152884035Y-117832152D01*
X152793970Y-117988150D01*
X152738308Y-118159457D01*
X152725210Y-118284078D01*
X152719480Y-118338600D01*
X152738308Y-118517741D01*
X152793971Y-118689052D01*
X152884035Y-118845048D01*
X153004564Y-118978908D01*
X153004567Y-118978910D01*
X153140696Y-119077815D01*
X153150290Y-119084785D01*
X153314845Y-119158049D01*
X153314846Y-119158049D01*
X153314848Y-119158050D01*
X153491035Y-119195500D01*
X153491036Y-119195500D01*
X153640714Y-119195500D01*
X153666948Y-119206366D01*
X155832947Y-121372365D01*
X155843813Y-121398599D01*
X155832947Y-121424833D01*
X153151947Y-124105834D01*
X153139911Y-124113876D01*
X153125713Y-124116700D01*
X137014486Y-124116700D01*
X136988252Y-124105834D01*
X136977386Y-124079600D01*
X136988252Y-124053366D01*
X137959211Y-123082407D01*
X139235685Y-121805932D01*
X139238484Y-121803407D01*
X139273978Y-121774532D01*
X139288690Y-121753688D01*
X139292754Y-121748862D01*
X140094335Y-120947281D01*
X142821838Y-120947281D01*
X142851863Y-121220166D01*
X142921304Y-121485783D01*
X143028677Y-121738454D01*
X143130858Y-121905882D01*
X143171695Y-121972796D01*
X143347309Y-122183818D01*
X143551777Y-122367023D01*
X143551779Y-122367024D01*
X143780742Y-122518505D01*
X144029319Y-122635033D01*
X144142447Y-122669067D01*
X144292219Y-122714127D01*
X144563831Y-122754100D01*
X144769647Y-122754100D01*
X144769648Y-122754100D01*
X144974906Y-122739077D01*
X145064228Y-122719179D01*
X145242875Y-122679384D01*
X145499298Y-122581311D01*
X145738709Y-122446947D01*
X145956004Y-122279157D01*
X146146554Y-122081516D01*
X146306296Y-121858237D01*
X146431827Y-121614079D01*
X146520470Y-121354246D01*
X146570336Y-121084274D01*
X146575342Y-120947281D01*
X147901838Y-120947281D01*
X147931863Y-121220166D01*
X148001304Y-121485783D01*
X148108677Y-121738454D01*
X148210858Y-121905882D01*
X148251695Y-121972796D01*
X148427309Y-122183818D01*
X148631777Y-122367023D01*
X148631779Y-122367024D01*
X148860742Y-122518505D01*
X149109319Y-122635033D01*
X149222447Y-122669067D01*
X149372219Y-122714127D01*
X149643831Y-122754100D01*
X149849647Y-122754100D01*
X149849648Y-122754100D01*
X150054906Y-122739077D01*
X150144228Y-122719179D01*
X150322875Y-122679384D01*
X150579298Y-122581311D01*
X150818709Y-122446947D01*
X151036004Y-122279157D01*
X151226554Y-122081516D01*
X151386296Y-121858237D01*
X151511827Y-121614079D01*
X151600470Y-121354246D01*
X151650336Y-121084274D01*
X151660362Y-120809920D01*
X151630336Y-120537029D01*
X151560896Y-120271418D01*
X151453523Y-120018748D01*
X151453522Y-120018745D01*
X151310506Y-119784406D01*
X151310505Y-119784404D01*
X151134891Y-119573382D01*
X150930423Y-119390177D01*
X150930420Y-119390175D01*
X150701457Y-119238694D01*
X150452880Y-119122166D01*
X150189984Y-119043074D01*
X150189981Y-119043073D01*
X149918369Y-119003100D01*
X149712553Y-119003100D01*
X149712552Y-119003100D01*
X149507293Y-119018122D01*
X149239326Y-119077815D01*
X148982901Y-119175889D01*
X148743496Y-119310249D01*
X148526190Y-119478047D01*
X148335647Y-119675682D01*
X148175906Y-119898959D01*
X148050372Y-120143123D01*
X147961729Y-120402953D01*
X147911863Y-120672929D01*
X147901838Y-120947281D01*
X146575342Y-120947281D01*
X146580362Y-120809920D01*
X146550336Y-120537029D01*
X146480896Y-120271418D01*
X146373523Y-120018748D01*
X146373522Y-120018745D01*
X146230506Y-119784406D01*
X146230505Y-119784404D01*
X146054891Y-119573382D01*
X145850423Y-119390177D01*
X145850420Y-119390175D01*
X145621457Y-119238694D01*
X145372880Y-119122166D01*
X145109984Y-119043074D01*
X145109981Y-119043073D01*
X144838369Y-119003100D01*
X144632553Y-119003100D01*
X144632552Y-119003100D01*
X144427293Y-119018122D01*
X144159326Y-119077815D01*
X143902901Y-119175889D01*
X143663496Y-119310249D01*
X143446190Y-119478047D01*
X143255647Y-119675682D01*
X143095906Y-119898959D01*
X142970372Y-120143123D01*
X142881729Y-120402953D01*
X142831863Y-120672929D01*
X142821838Y-120947281D01*
X140094335Y-120947281D01*
X141835251Y-119206366D01*
X141861486Y-119195500D01*
X142011165Y-119195500D01*
X142187351Y-119158050D01*
X142187351Y-119158049D01*
X142187355Y-119158049D01*
X142351910Y-119084785D01*
X142497636Y-118978908D01*
X142618165Y-118845048D01*
X142708229Y-118689052D01*
X142763892Y-118517741D01*
X142782720Y-118338600D01*
X142763892Y-118159459D01*
X142708229Y-117988148D01*
X142618165Y-117832152D01*
X142497636Y-117698292D01*
X142497632Y-117698289D01*
X142351912Y-117592416D01*
X142187351Y-117519149D01*
X142011165Y-117481700D01*
X142011164Y-117481700D01*
X141831036Y-117481700D01*
X141831035Y-117481700D01*
X141654848Y-117519149D01*
X141490287Y-117592416D01*
X141344567Y-117698289D01*
X141224035Y-117832152D01*
X141133970Y-117988150D01*
X141078308Y-118159457D01*
X141059480Y-118338600D01*
X141065210Y-118393121D01*
X141063285Y-118409382D01*
X141054547Y-118423232D01*
X140702889Y-118774890D01*
X140679081Y-118785677D01*
X140654070Y-118778089D01*
X140640268Y-118755894D01*
X140644525Y-118730107D01*
X140668229Y-118689052D01*
X140723892Y-118517741D01*
X140742720Y-118338600D01*
X140723892Y-118159459D01*
X140668229Y-117988148D01*
X140578165Y-117832152D01*
X140457636Y-117698292D01*
X140457632Y-117698289D01*
X140311912Y-117592416D01*
X140147351Y-117519149D01*
X139971165Y-117481700D01*
X139971164Y-117481700D01*
X139791036Y-117481700D01*
X139791035Y-117481700D01*
X139614848Y-117519149D01*
X139450287Y-117592416D01*
X139304567Y-117698289D01*
X139184035Y-117832152D01*
X139093970Y-117988150D01*
X139038308Y-118159457D01*
X139025210Y-118284078D01*
X139019480Y-118338600D01*
X139038308Y-118517741D01*
X139093971Y-118689052D01*
X139184035Y-118845048D01*
X139304564Y-118978908D01*
X139304567Y-118978910D01*
X139440696Y-119077815D01*
X139450290Y-119084785D01*
X139614845Y-119158049D01*
X139614846Y-119158049D01*
X139614848Y-119158050D01*
X139791035Y-119195500D01*
X139791036Y-119195500D01*
X139971164Y-119195500D01*
X139971165Y-119195500D01*
X140147351Y-119158050D01*
X140147351Y-119158049D01*
X140147355Y-119158049D01*
X140275200Y-119101128D01*
X140300360Y-119099315D01*
X140320865Y-119114008D01*
X140327234Y-119138417D01*
X140316524Y-119161256D01*
X138887333Y-120590446D01*
X138861099Y-120601312D01*
X138834865Y-120590446D01*
X137405674Y-119161255D01*
X137394964Y-119138416D01*
X137401333Y-119114007D01*
X137421838Y-119099314D01*
X137446997Y-119101127D01*
X137574845Y-119158049D01*
X137574846Y-119158049D01*
X137574848Y-119158050D01*
X137751035Y-119195500D01*
X137751036Y-119195500D01*
X137931164Y-119195500D01*
X137931165Y-119195500D01*
X138107351Y-119158050D01*
X138107351Y-119158049D01*
X138107355Y-119158049D01*
X138271910Y-119084785D01*
X138417636Y-118978908D01*
X138538165Y-118845048D01*
X138628229Y-118689052D01*
X138683892Y-118517741D01*
X138702720Y-118338600D01*
X138683892Y-118159459D01*
X138628229Y-117988148D01*
X138538165Y-117832152D01*
X138417636Y-117698292D01*
X138417632Y-117698289D01*
X138271912Y-117592416D01*
X138107351Y-117519149D01*
X137931165Y-117481700D01*
X137931164Y-117481700D01*
X137751036Y-117481700D01*
X137751035Y-117481700D01*
X137574848Y-117519149D01*
X137410287Y-117592416D01*
X137264567Y-117698289D01*
X137144035Y-117832152D01*
X137053970Y-117988150D01*
X136998308Y-118159457D01*
X136985210Y-118284078D01*
X136979480Y-118338600D01*
X136998308Y-118517741D01*
X137053971Y-118689052D01*
X137077673Y-118730106D01*
X137077675Y-118730108D01*
X137081932Y-118755896D01*
X137068130Y-118778091D01*
X137043118Y-118785679D01*
X137019311Y-118774892D01*
X136667651Y-118423232D01*
X136658913Y-118409382D01*
X136656988Y-118393124D01*
X136662720Y-118338600D01*
X136643892Y-118159459D01*
X136588229Y-117988148D01*
X136498165Y-117832152D01*
X136377636Y-117698292D01*
X136377632Y-117698289D01*
X136231912Y-117592416D01*
X136067351Y-117519149D01*
X135891165Y-117481700D01*
X135891164Y-117481700D01*
X135711036Y-117481700D01*
X135711035Y-117481700D01*
X135534848Y-117519149D01*
X135370287Y-117592416D01*
X135224567Y-117698289D01*
X135104035Y-117832152D01*
X135013970Y-117988150D01*
X134958308Y-118159457D01*
X134945210Y-118284078D01*
X134939480Y-118338600D01*
X134958308Y-118517741D01*
X135013971Y-118689052D01*
X135104035Y-118845048D01*
X135224564Y-118978908D01*
X135224567Y-118978910D01*
X135360696Y-119077815D01*
X135370290Y-119084785D01*
X135534845Y-119158049D01*
X135534846Y-119158049D01*
X135534848Y-119158050D01*
X135711035Y-119195500D01*
X135711036Y-119195500D01*
X135860714Y-119195500D01*
X135886948Y-119206366D01*
X138052947Y-121372365D01*
X138063813Y-121398599D01*
X138052947Y-121424833D01*
X135371947Y-124105834D01*
X135359911Y-124113876D01*
X135345713Y-124116700D01*
X124596487Y-124116700D01*
X124570253Y-124105834D01*
X121889252Y-121424833D01*
X121879650Y-121408201D01*
X121879650Y-121388997D01*
X121889252Y-121372365D01*
X122314336Y-120947281D01*
X125041838Y-120947281D01*
X125071863Y-121220166D01*
X125141304Y-121485783D01*
X125248677Y-121738454D01*
X125350858Y-121905882D01*
X125391695Y-121972796D01*
X125567309Y-122183818D01*
X125771777Y-122367023D01*
X125771779Y-122367024D01*
X126000742Y-122518505D01*
X126249319Y-122635033D01*
X126362447Y-122669067D01*
X126512219Y-122714127D01*
X126783831Y-122754100D01*
X126989647Y-122754100D01*
X126989648Y-122754100D01*
X127194906Y-122739077D01*
X127284228Y-122719179D01*
X127462875Y-122679384D01*
X127719298Y-122581311D01*
X127958709Y-122446947D01*
X128176004Y-122279157D01*
X128366554Y-122081516D01*
X128526296Y-121858237D01*
X128651827Y-121614079D01*
X128740470Y-121354246D01*
X128790336Y-121084274D01*
X128795342Y-120947281D01*
X130121838Y-120947281D01*
X130151863Y-121220166D01*
X130221304Y-121485783D01*
X130328677Y-121738454D01*
X130430858Y-121905882D01*
X130471695Y-121972796D01*
X130647309Y-122183818D01*
X130851777Y-122367023D01*
X130851779Y-122367024D01*
X131080742Y-122518505D01*
X131329319Y-122635033D01*
X131442447Y-122669067D01*
X131592219Y-122714127D01*
X131863831Y-122754100D01*
X132069647Y-122754100D01*
X132069648Y-122754100D01*
X132274906Y-122739077D01*
X132364228Y-122719179D01*
X132542875Y-122679384D01*
X132799298Y-122581311D01*
X133038709Y-122446947D01*
X133256004Y-122279157D01*
X133446554Y-122081516D01*
X133606296Y-121858237D01*
X133731827Y-121614079D01*
X133820470Y-121354246D01*
X133870336Y-121084274D01*
X133880362Y-120809920D01*
X133850336Y-120537029D01*
X133780896Y-120271418D01*
X133673523Y-120018748D01*
X133673522Y-120018745D01*
X133530506Y-119784406D01*
X133530505Y-119784404D01*
X133354891Y-119573382D01*
X133150423Y-119390177D01*
X133150420Y-119390175D01*
X132921457Y-119238694D01*
X132672880Y-119122166D01*
X132409984Y-119043074D01*
X132409981Y-119043073D01*
X132138369Y-119003100D01*
X131932553Y-119003100D01*
X131932552Y-119003100D01*
X131727293Y-119018122D01*
X131459326Y-119077815D01*
X131202901Y-119175889D01*
X130963496Y-119310249D01*
X130746190Y-119478047D01*
X130555647Y-119675682D01*
X130395906Y-119898959D01*
X130270372Y-120143123D01*
X130181729Y-120402953D01*
X130131863Y-120672929D01*
X130121838Y-120947281D01*
X128795342Y-120947281D01*
X128800362Y-120809920D01*
X128770336Y-120537029D01*
X128700896Y-120271418D01*
X128593523Y-120018748D01*
X128593522Y-120018745D01*
X128450506Y-119784406D01*
X128450505Y-119784404D01*
X128274891Y-119573382D01*
X128070423Y-119390177D01*
X128070420Y-119390175D01*
X127841457Y-119238694D01*
X127592880Y-119122166D01*
X127329984Y-119043074D01*
X127329981Y-119043073D01*
X127058369Y-119003100D01*
X126852553Y-119003100D01*
X126852552Y-119003100D01*
X126647293Y-119018122D01*
X126379326Y-119077815D01*
X126122901Y-119175889D01*
X125883496Y-119310249D01*
X125666190Y-119478047D01*
X125475647Y-119675682D01*
X125315906Y-119898959D01*
X125190372Y-120143123D01*
X125101729Y-120402953D01*
X125051863Y-120672929D01*
X125041838Y-120947281D01*
X122314336Y-120947281D01*
X124055253Y-119206366D01*
X124081487Y-119195500D01*
X124231165Y-119195500D01*
X124407351Y-119158050D01*
X124407351Y-119158049D01*
X124407355Y-119158049D01*
X124571910Y-119084785D01*
X124717636Y-118978908D01*
X124838165Y-118845048D01*
X124928229Y-118689052D01*
X124983892Y-118517741D01*
X125002720Y-118338600D01*
X124983892Y-118159459D01*
X124928229Y-117988148D01*
X124838165Y-117832152D01*
X124717636Y-117698292D01*
X124717632Y-117698289D01*
X124571912Y-117592416D01*
X124407351Y-117519149D01*
X124231165Y-117481700D01*
X124231164Y-117481700D01*
X124051036Y-117481700D01*
X124051035Y-117481700D01*
X123874848Y-117519149D01*
X123710287Y-117592416D01*
X123564567Y-117698289D01*
X123444035Y-117832152D01*
X123353970Y-117988150D01*
X123298308Y-118159457D01*
X123279480Y-118338600D01*
X123285210Y-118393122D01*
X123283285Y-118409384D01*
X123274547Y-118423233D01*
X122922888Y-118774892D01*
X122899080Y-118785679D01*
X122874069Y-118778091D01*
X122860267Y-118755896D01*
X122864525Y-118730108D01*
X122888229Y-118689052D01*
X122943892Y-118517741D01*
X122962720Y-118338600D01*
X122943892Y-118159459D01*
X122888229Y-117988148D01*
X122798165Y-117832152D01*
X122677636Y-117698292D01*
X122677632Y-117698289D01*
X122531912Y-117592416D01*
X122367351Y-117519149D01*
X122191165Y-117481700D01*
X122191164Y-117481700D01*
X122011036Y-117481700D01*
X122011035Y-117481700D01*
X121834848Y-117519149D01*
X121670287Y-117592416D01*
X121524567Y-117698289D01*
X121404035Y-117832152D01*
X121313970Y-117988150D01*
X121258308Y-118159457D01*
X121245210Y-118284078D01*
X121239480Y-118338600D01*
X121258308Y-118517741D01*
X121313971Y-118689052D01*
X121404035Y-118845048D01*
X121524564Y-118978908D01*
X121524567Y-118978910D01*
X121660696Y-119077815D01*
X121670290Y-119084785D01*
X121834845Y-119158049D01*
X121834846Y-119158049D01*
X121834848Y-119158050D01*
X122011035Y-119195500D01*
X122011036Y-119195500D01*
X122191164Y-119195500D01*
X122191165Y-119195500D01*
X122367355Y-119158049D01*
X122395363Y-119145579D01*
X122495200Y-119101128D01*
X122520360Y-119099314D01*
X122540865Y-119114007D01*
X122547234Y-119138416D01*
X122536524Y-119161255D01*
X121107333Y-120590447D01*
X121090701Y-120600049D01*
X121071497Y-120600049D01*
X121054865Y-120590447D01*
X119625672Y-119161254D01*
X119614962Y-119138415D01*
X119621331Y-119114006D01*
X119641836Y-119099313D01*
X119666994Y-119101126D01*
X119794845Y-119158049D01*
X119794846Y-119158049D01*
X119794848Y-119158050D01*
X119971035Y-119195500D01*
X119971036Y-119195500D01*
X120151164Y-119195500D01*
X120151165Y-119195500D01*
X120327351Y-119158050D01*
X120327351Y-119158049D01*
X120327355Y-119158049D01*
X120491910Y-119084785D01*
X120637636Y-118978908D01*
X120758165Y-118845048D01*
X120848229Y-118689052D01*
X120903892Y-118517741D01*
X120922720Y-118338600D01*
X120903892Y-118159459D01*
X120848229Y-117988148D01*
X120758165Y-117832152D01*
X120637636Y-117698292D01*
X120637632Y-117698289D01*
X120491912Y-117592416D01*
X120327351Y-117519149D01*
X120151165Y-117481700D01*
X120151164Y-117481700D01*
X119971036Y-117481700D01*
X119971035Y-117481700D01*
X119794848Y-117519149D01*
X119630287Y-117592416D01*
X119484567Y-117698289D01*
X119364035Y-117832152D01*
X119273970Y-117988150D01*
X119218308Y-118159457D01*
X119205210Y-118284078D01*
X119199480Y-118338600D01*
X119218308Y-118517741D01*
X119273971Y-118689052D01*
X119297673Y-118730106D01*
X119297676Y-118730110D01*
X119301933Y-118755898D01*
X119288131Y-118778094D01*
X119263119Y-118785681D01*
X119239312Y-118774894D01*
X118887651Y-118423233D01*
X118878913Y-118409383D01*
X118876988Y-118393125D01*
X118882720Y-118338600D01*
X118863892Y-118159459D01*
X118808229Y-117988148D01*
X118718165Y-117832152D01*
X118597636Y-117698292D01*
X118597632Y-117698289D01*
X118451912Y-117592416D01*
X118287351Y-117519149D01*
X118111165Y-117481700D01*
X118111164Y-117481700D01*
X117931036Y-117481700D01*
X117931035Y-117481700D01*
X117754848Y-117519149D01*
X117590287Y-117592416D01*
X117444567Y-117698289D01*
X117324035Y-117832152D01*
X117233970Y-117988150D01*
X117178308Y-118159457D01*
X117165210Y-118284078D01*
X117159480Y-118338600D01*
X117178308Y-118517741D01*
X117233971Y-118689052D01*
X117324035Y-118845048D01*
X117444564Y-118978908D01*
X117444567Y-118978910D01*
X117580696Y-119077815D01*
X117590290Y-119084785D01*
X117754845Y-119158049D01*
X117754846Y-119158049D01*
X117754848Y-119158050D01*
X117931035Y-119195500D01*
X117931036Y-119195500D01*
X118080714Y-119195500D01*
X118094912Y-119198324D01*
X118106948Y-119206366D01*
X120676031Y-121775450D01*
X120676911Y-121776361D01*
X120721891Y-121824523D01*
X120726284Y-121827194D01*
X120733240Y-121832658D01*
X123954031Y-125053450D01*
X123954911Y-125054361D01*
X123999891Y-125102523D01*
X124039000Y-125126305D01*
X124042108Y-125128420D01*
X124078571Y-125156072D01*
X124102299Y-125165429D01*
X124107957Y-125168240D01*
X124121147Y-125176260D01*
X124129753Y-125181494D01*
X124173814Y-125193839D01*
X124177386Y-125195040D01*
X124219962Y-125211830D01*
X124219963Y-125211830D01*
X124224707Y-125213701D01*
X124224095Y-125215251D01*
X124240439Y-125223539D01*
X124250000Y-125248399D01*
X124250000Y-126023000D01*
X124239134Y-126049234D01*
X124212900Y-126060100D01*
X107791859Y-126060100D01*
X107790326Y-126060068D01*
X107381844Y-126043173D01*
X107378788Y-126042920D01*
X106973841Y-125992443D01*
X106970817Y-125991938D01*
X106934278Y-125984276D01*
X106571438Y-125908197D01*
X106568475Y-125907448D01*
X106321610Y-125833953D01*
X106177347Y-125791004D01*
X106174447Y-125790008D01*
X105794292Y-125641670D01*
X105791484Y-125640438D01*
X105424883Y-125461218D01*
X105422186Y-125459759D01*
X105071625Y-125250870D01*
X105069058Y-125249193D01*
X104736944Y-125012068D01*
X104734524Y-125010184D01*
X104423139Y-124746455D01*
X104420883Y-124744379D01*
X104132320Y-124455816D01*
X104130244Y-124453560D01*
X103866515Y-124142175D01*
X103864631Y-124139755D01*
X103627506Y-123807641D01*
X103625829Y-123805074D01*
X103416940Y-123454513D01*
X103415481Y-123451816D01*
X103236261Y-123085215D01*
X103235029Y-123082407D01*
X103169305Y-122913971D01*
X103086686Y-122702240D01*
X103085699Y-122699364D01*
X102969246Y-122308207D01*
X102968505Y-122305278D01*
X102884757Y-121905863D01*
X102884259Y-121902876D01*
X102833778Y-121497899D01*
X102833526Y-121494855D01*
X102829942Y-121408201D01*
X102816631Y-121086373D01*
X102816600Y-121084841D01*
X102816600Y-120946366D01*
X106016888Y-120946366D01*
X106032124Y-121084841D01*
X106046514Y-121215618D01*
X106081098Y-121347905D01*
X106115028Y-121477689D01*
X106220970Y-121726992D01*
X106362080Y-121958207D01*
X106535357Y-122166423D01*
X106661177Y-122279157D01*
X106737098Y-122347182D01*
X106887706Y-122446823D01*
X106963011Y-122496645D01*
X107208274Y-122611620D01*
X107286097Y-122635033D01*
X107467669Y-122689660D01*
X107735661Y-122729100D01*
X107938731Y-122729100D01*
X107938732Y-122729100D01*
X108141257Y-122714277D01*
X108251774Y-122689658D01*
X108405653Y-122655380D01*
X108658658Y-122558614D01*
X108894877Y-122426041D01*
X109109277Y-122260488D01*
X109297286Y-122065481D01*
X109454899Y-121845179D01*
X109578756Y-121604275D01*
X109666218Y-121347905D01*
X109715419Y-121081533D01*
X109720325Y-120947281D01*
X112341838Y-120947281D01*
X112371863Y-121220166D01*
X112441304Y-121485783D01*
X112548677Y-121738454D01*
X112650858Y-121905882D01*
X112691695Y-121972796D01*
X112867309Y-122183818D01*
X113071777Y-122367023D01*
X113071779Y-122367024D01*
X113300742Y-122518505D01*
X113549319Y-122635033D01*
X113662447Y-122669067D01*
X113812219Y-122714127D01*
X114083831Y-122754100D01*
X114289647Y-122754100D01*
X114289648Y-122754100D01*
X114494906Y-122739077D01*
X114584228Y-122719179D01*
X114762875Y-122679384D01*
X115019298Y-122581311D01*
X115258709Y-122446947D01*
X115476004Y-122279157D01*
X115666554Y-122081516D01*
X115826296Y-121858237D01*
X115951827Y-121614079D01*
X116040470Y-121354246D01*
X116090336Y-121084274D01*
X116100362Y-120809920D01*
X116070336Y-120537029D01*
X116000896Y-120271418D01*
X115893523Y-120018748D01*
X115893522Y-120018745D01*
X115750506Y-119784406D01*
X115750505Y-119784404D01*
X115574891Y-119573382D01*
X115370423Y-119390177D01*
X115370420Y-119390175D01*
X115141457Y-119238694D01*
X114892880Y-119122166D01*
X114629984Y-119043074D01*
X114629981Y-119043073D01*
X114358369Y-119003100D01*
X114152553Y-119003100D01*
X114152552Y-119003100D01*
X113947293Y-119018122D01*
X113679326Y-119077815D01*
X113422901Y-119175889D01*
X113183496Y-119310249D01*
X112966190Y-119478047D01*
X112775647Y-119675682D01*
X112615906Y-119898959D01*
X112490372Y-120143123D01*
X112401729Y-120402953D01*
X112351863Y-120672929D01*
X112341838Y-120947281D01*
X109720325Y-120947281D01*
X109725312Y-120810835D01*
X109695686Y-120541582D01*
X109627172Y-120279512D01*
X109521230Y-120030210D01*
X109521229Y-120030207D01*
X109380119Y-119798992D01*
X109380118Y-119798990D01*
X109206845Y-119590780D01*
X109206842Y-119590776D01*
X109005103Y-119410019D01*
X109005102Y-119410018D01*
X108885905Y-119331158D01*
X108779188Y-119260554D01*
X108533925Y-119145579D01*
X108274534Y-119067541D01*
X108274531Y-119067540D01*
X108006539Y-119028100D01*
X107803469Y-119028100D01*
X107803468Y-119028100D01*
X107600942Y-119042922D01*
X107336548Y-119101819D01*
X107083541Y-119198586D01*
X106847324Y-119331158D01*
X106632924Y-119496710D01*
X106444912Y-119691721D01*
X106287303Y-119912017D01*
X106163443Y-120152927D01*
X106075981Y-120409294D01*
X106026780Y-120675670D01*
X106016888Y-120946366D01*
X102816600Y-120946366D01*
X102816600Y-117267736D01*
X116435080Y-117267736D01*
X116545403Y-117347889D01*
X116719467Y-117425387D01*
X116905831Y-117465000D01*
X117096369Y-117465000D01*
X117282732Y-117425387D01*
X117456799Y-117347887D01*
X117567117Y-117267736D01*
X117567117Y-117267735D01*
X117001099Y-116701718D01*
X116435080Y-117267736D01*
X102816600Y-117267736D01*
X102816600Y-116558600D01*
X116089707Y-116558600D01*
X116109623Y-116748090D01*
X116168500Y-116929294D01*
X116263769Y-117094305D01*
X116291489Y-117125090D01*
X116857980Y-116558599D01*
X117144218Y-116558599D01*
X117710708Y-117125089D01*
X117738432Y-117094302D01*
X117833699Y-116929294D01*
X117892576Y-116748090D01*
X117912492Y-116558600D01*
X117912492Y-116558599D01*
X118179480Y-116558599D01*
X118198308Y-116737742D01*
X118253970Y-116909049D01*
X118253971Y-116909052D01*
X118344035Y-117065048D01*
X118464564Y-117198908D01*
X118610290Y-117304785D01*
X118774845Y-117378049D01*
X118774846Y-117378049D01*
X118774848Y-117378050D01*
X118951035Y-117415500D01*
X118951036Y-117415500D01*
X119131164Y-117415500D01*
X119131165Y-117415500D01*
X119307351Y-117378050D01*
X119307351Y-117378049D01*
X119307355Y-117378049D01*
X119471910Y-117304785D01*
X119617636Y-117198908D01*
X119738165Y-117065048D01*
X119828229Y-116909052D01*
X119883892Y-116737741D01*
X119902720Y-116558600D01*
X119902720Y-116558599D01*
X120219480Y-116558599D01*
X120238308Y-116737742D01*
X120293970Y-116909049D01*
X120293971Y-116909052D01*
X120384035Y-117065048D01*
X120504564Y-117198908D01*
X120650290Y-117304785D01*
X120814845Y-117378049D01*
X120814846Y-117378049D01*
X120814848Y-117378050D01*
X120991035Y-117415500D01*
X120991036Y-117415500D01*
X121171164Y-117415500D01*
X121171165Y-117415500D01*
X121347351Y-117378050D01*
X121347351Y-117378049D01*
X121347355Y-117378049D01*
X121511910Y-117304785D01*
X121562903Y-117267736D01*
X122555081Y-117267736D01*
X122665403Y-117347889D01*
X122839467Y-117425387D01*
X123025831Y-117465000D01*
X123216369Y-117465000D01*
X123402732Y-117425387D01*
X123576799Y-117347887D01*
X123687117Y-117267736D01*
X134215081Y-117267736D01*
X134325403Y-117347889D01*
X134499467Y-117425387D01*
X134685831Y-117465000D01*
X134876369Y-117465000D01*
X135062732Y-117425387D01*
X135236799Y-117347887D01*
X135347117Y-117267736D01*
X135347117Y-117267735D01*
X134781099Y-116701718D01*
X134215081Y-117267736D01*
X123687117Y-117267736D01*
X123687117Y-117267735D01*
X123121099Y-116701718D01*
X122555081Y-117267736D01*
X121562903Y-117267736D01*
X121657636Y-117198908D01*
X121778165Y-117065048D01*
X121868229Y-116909052D01*
X121923892Y-116737741D01*
X121942720Y-116558600D01*
X122209707Y-116558600D01*
X122229623Y-116748090D01*
X122288500Y-116929294D01*
X122383769Y-117094305D01*
X122411489Y-117125090D01*
X122977980Y-116558599D01*
X123264218Y-116558599D01*
X123830708Y-117125089D01*
X123858432Y-117094302D01*
X123953699Y-116929294D01*
X124012576Y-116748090D01*
X124032492Y-116558600D01*
X133869707Y-116558600D01*
X133889623Y-116748090D01*
X133948500Y-116929294D01*
X134043769Y-117094305D01*
X134071489Y-117125090D01*
X134637981Y-116558599D01*
X134924218Y-116558599D01*
X135490708Y-117125089D01*
X135518432Y-117094302D01*
X135613699Y-116929294D01*
X135672576Y-116748090D01*
X135692492Y-116558600D01*
X135692492Y-116558599D01*
X135959480Y-116558599D01*
X135978308Y-116737742D01*
X136033970Y-116909049D01*
X136033971Y-116909052D01*
X136124035Y-117065048D01*
X136244564Y-117198908D01*
X136390290Y-117304785D01*
X136554845Y-117378049D01*
X136554846Y-117378049D01*
X136554848Y-117378050D01*
X136731035Y-117415500D01*
X136731036Y-117415500D01*
X136911164Y-117415500D01*
X136911165Y-117415500D01*
X137087351Y-117378050D01*
X137087351Y-117378049D01*
X137087355Y-117378049D01*
X137251910Y-117304785D01*
X137397636Y-117198908D01*
X137518165Y-117065048D01*
X137608229Y-116909052D01*
X137663892Y-116737741D01*
X137682720Y-116558600D01*
X137682720Y-116558599D01*
X137999480Y-116558599D01*
X138018308Y-116737742D01*
X138073970Y-116909049D01*
X138073971Y-116909052D01*
X138164035Y-117065048D01*
X138284564Y-117198908D01*
X138430290Y-117304785D01*
X138594845Y-117378049D01*
X138594846Y-117378049D01*
X138594848Y-117378050D01*
X138771035Y-117415500D01*
X138771036Y-117415500D01*
X138951164Y-117415500D01*
X138951165Y-117415500D01*
X139127351Y-117378050D01*
X139127351Y-117378049D01*
X139127355Y-117378049D01*
X139291910Y-117304785D01*
X139342903Y-117267736D01*
X140335081Y-117267736D01*
X140445403Y-117347889D01*
X140619467Y-117425387D01*
X140805831Y-117465000D01*
X140996369Y-117465000D01*
X141182732Y-117425387D01*
X141356799Y-117347887D01*
X141467117Y-117267736D01*
X151995080Y-117267736D01*
X152105403Y-117347889D01*
X152279467Y-117425387D01*
X152465831Y-117465000D01*
X152656369Y-117465000D01*
X152842732Y-117425387D01*
X153016799Y-117347887D01*
X153127117Y-117267736D01*
X153127117Y-117267735D01*
X152561099Y-116701718D01*
X151995080Y-117267736D01*
X141467117Y-117267736D01*
X141467117Y-117267735D01*
X140901099Y-116701718D01*
X140335081Y-117267736D01*
X139342903Y-117267736D01*
X139437636Y-117198908D01*
X139558165Y-117065048D01*
X139648229Y-116909052D01*
X139703892Y-116737741D01*
X139722720Y-116558600D01*
X139989707Y-116558600D01*
X140009623Y-116748090D01*
X140068500Y-116929294D01*
X140163769Y-117094305D01*
X140191489Y-117125090D01*
X140757981Y-116558599D01*
X141044218Y-116558599D01*
X141610708Y-117125089D01*
X141638432Y-117094302D01*
X141733699Y-116929294D01*
X141792576Y-116748090D01*
X141812492Y-116558600D01*
X151649707Y-116558600D01*
X151669623Y-116748090D01*
X151728500Y-116929294D01*
X151823769Y-117094305D01*
X151851489Y-117125090D01*
X152417981Y-116558599D01*
X152704218Y-116558599D01*
X153270708Y-117125089D01*
X153298432Y-117094302D01*
X153393699Y-116929294D01*
X153452576Y-116748090D01*
X153472492Y-116558600D01*
X153472492Y-116558599D01*
X153739480Y-116558599D01*
X153758308Y-116737742D01*
X153813970Y-116909049D01*
X153813971Y-116909052D01*
X153904035Y-117065048D01*
X154024564Y-117198908D01*
X154170290Y-117304785D01*
X154334845Y-117378049D01*
X154334846Y-117378049D01*
X154334848Y-117378050D01*
X154511035Y-117415500D01*
X154511036Y-117415500D01*
X154691164Y-117415500D01*
X154691165Y-117415500D01*
X154867351Y-117378050D01*
X154867351Y-117378049D01*
X154867355Y-117378049D01*
X155031910Y-117304785D01*
X155177636Y-117198908D01*
X155298165Y-117065048D01*
X155388229Y-116909052D01*
X155443892Y-116737741D01*
X155462720Y-116558600D01*
X155462720Y-116558599D01*
X155779480Y-116558599D01*
X155798308Y-116737742D01*
X155853970Y-116909049D01*
X155853971Y-116909052D01*
X155944035Y-117065048D01*
X156064564Y-117198908D01*
X156210290Y-117304785D01*
X156374845Y-117378049D01*
X156374846Y-117378049D01*
X156374848Y-117378050D01*
X156551035Y-117415500D01*
X156551036Y-117415500D01*
X156731164Y-117415500D01*
X156731165Y-117415500D01*
X156907351Y-117378050D01*
X156907351Y-117378049D01*
X156907355Y-117378049D01*
X157071910Y-117304785D01*
X157122903Y-117267736D01*
X158115081Y-117267736D01*
X158225403Y-117347889D01*
X158399467Y-117425387D01*
X158585831Y-117465000D01*
X158776369Y-117465000D01*
X158962732Y-117425387D01*
X159136799Y-117347887D01*
X159247117Y-117267736D01*
X169775081Y-117267736D01*
X169885403Y-117347889D01*
X170059467Y-117425387D01*
X170245831Y-117465000D01*
X170436369Y-117465000D01*
X170622732Y-117425387D01*
X170796799Y-117347887D01*
X170907117Y-117267736D01*
X170907117Y-117267735D01*
X170341099Y-116701718D01*
X169775081Y-117267736D01*
X159247117Y-117267736D01*
X159247117Y-117267735D01*
X158681099Y-116701718D01*
X158115081Y-117267736D01*
X157122903Y-117267736D01*
X157217636Y-117198908D01*
X157338165Y-117065048D01*
X157428229Y-116909052D01*
X157483892Y-116737741D01*
X157502720Y-116558600D01*
X157769707Y-116558600D01*
X157789623Y-116748090D01*
X157848500Y-116929294D01*
X157943769Y-117094305D01*
X157971489Y-117125090D01*
X158537981Y-116558599D01*
X158824218Y-116558599D01*
X159390708Y-117125089D01*
X159418432Y-117094302D01*
X159513699Y-116929294D01*
X159572576Y-116748090D01*
X159592492Y-116558600D01*
X169429707Y-116558600D01*
X169449623Y-116748090D01*
X169508500Y-116929294D01*
X169603769Y-117094305D01*
X169631489Y-117125090D01*
X170197981Y-116558599D01*
X170484218Y-116558599D01*
X171050708Y-117125089D01*
X171078432Y-117094302D01*
X171173699Y-116929294D01*
X171232576Y-116748090D01*
X171252492Y-116558600D01*
X171252492Y-116558599D01*
X171519480Y-116558599D01*
X171538308Y-116737742D01*
X171593970Y-116909049D01*
X171593971Y-116909052D01*
X171684035Y-117065048D01*
X171804564Y-117198908D01*
X171950290Y-117304785D01*
X172114845Y-117378049D01*
X172114846Y-117378049D01*
X172114848Y-117378050D01*
X172291035Y-117415500D01*
X172291036Y-117415500D01*
X172471164Y-117415500D01*
X172471165Y-117415500D01*
X172647351Y-117378050D01*
X172647351Y-117378049D01*
X172647355Y-117378049D01*
X172811910Y-117304785D01*
X172957636Y-117198908D01*
X173078165Y-117065048D01*
X173168229Y-116909052D01*
X173223892Y-116737741D01*
X173242720Y-116558600D01*
X173242720Y-116558599D01*
X173559480Y-116558599D01*
X173578308Y-116737742D01*
X173633970Y-116909049D01*
X173633971Y-116909052D01*
X173724035Y-117065048D01*
X173844564Y-117198908D01*
X173990290Y-117304785D01*
X174154845Y-117378049D01*
X174154846Y-117378049D01*
X174154848Y-117378050D01*
X174331035Y-117415500D01*
X174331036Y-117415500D01*
X174511164Y-117415500D01*
X174511165Y-117415500D01*
X174687351Y-117378050D01*
X174687351Y-117378049D01*
X174687355Y-117378049D01*
X174851910Y-117304785D01*
X174902903Y-117267736D01*
X175895080Y-117267736D01*
X176005403Y-117347889D01*
X176179467Y-117425387D01*
X176365831Y-117465000D01*
X176556369Y-117465000D01*
X176742732Y-117425387D01*
X176916799Y-117347887D01*
X177027117Y-117267736D01*
X177027117Y-117267735D01*
X176461099Y-116701718D01*
X175895080Y-117267736D01*
X174902903Y-117267736D01*
X174997636Y-117198908D01*
X175118165Y-117065048D01*
X175208229Y-116909052D01*
X175263892Y-116737741D01*
X175282720Y-116558600D01*
X175549707Y-116558600D01*
X175569623Y-116748090D01*
X175628500Y-116929294D01*
X175723769Y-117094305D01*
X175751489Y-117125090D01*
X176317981Y-116558599D01*
X176604218Y-116558599D01*
X177170708Y-117125089D01*
X177198432Y-117094302D01*
X177293699Y-116929294D01*
X177352576Y-116748090D01*
X177372492Y-116558600D01*
X177352576Y-116369109D01*
X177293699Y-116187905D01*
X177198430Y-116022894D01*
X177170709Y-115992108D01*
X176604218Y-116558599D01*
X176317981Y-116558599D01*
X175751490Y-115992108D01*
X175723768Y-116022897D01*
X175628500Y-116187905D01*
X175569623Y-116369109D01*
X175549707Y-116558600D01*
X175282720Y-116558600D01*
X175263892Y-116379459D01*
X175208229Y-116208148D01*
X175118165Y-116052152D01*
X174997636Y-115918292D01*
X174902902Y-115849463D01*
X174902901Y-115849462D01*
X175895081Y-115849462D01*
X176461099Y-116415481D01*
X177027118Y-115849463D01*
X177027117Y-115849462D01*
X176916796Y-115769310D01*
X176742732Y-115691812D01*
X176556369Y-115652200D01*
X176365831Y-115652200D01*
X176179463Y-115691813D01*
X176005405Y-115769309D01*
X175895081Y-115849462D01*
X174902901Y-115849462D01*
X174851912Y-115812416D01*
X174687351Y-115739149D01*
X174511165Y-115701700D01*
X174511164Y-115701700D01*
X174331036Y-115701700D01*
X174331035Y-115701700D01*
X174154848Y-115739149D01*
X173990287Y-115812416D01*
X173844567Y-115918289D01*
X173724035Y-116052152D01*
X173633970Y-116208150D01*
X173578308Y-116379457D01*
X173559480Y-116558599D01*
X173242720Y-116558599D01*
X173223892Y-116379459D01*
X173168229Y-116208148D01*
X173078165Y-116052152D01*
X172957636Y-115918292D01*
X172862902Y-115849463D01*
X172811912Y-115812416D01*
X172647351Y-115739149D01*
X172471165Y-115701700D01*
X172471164Y-115701700D01*
X172291036Y-115701700D01*
X172291035Y-115701700D01*
X172114848Y-115739149D01*
X171950287Y-115812416D01*
X171804567Y-115918289D01*
X171684035Y-116052152D01*
X171593970Y-116208150D01*
X171538308Y-116379457D01*
X171519480Y-116558599D01*
X171252492Y-116558599D01*
X171232576Y-116369109D01*
X171173699Y-116187905D01*
X171078430Y-116022894D01*
X171050709Y-115992108D01*
X170484218Y-116558599D01*
X170197981Y-116558599D01*
X169631490Y-115992108D01*
X169603768Y-116022897D01*
X169508500Y-116187905D01*
X169449623Y-116369109D01*
X169429707Y-116558600D01*
X159592492Y-116558600D01*
X159572576Y-116369109D01*
X159513699Y-116187905D01*
X159418430Y-116022894D01*
X159390709Y-115992108D01*
X158824218Y-116558599D01*
X158537981Y-116558599D01*
X157971490Y-115992108D01*
X157943768Y-116022897D01*
X157848500Y-116187905D01*
X157789623Y-116369109D01*
X157769707Y-116558600D01*
X157502720Y-116558600D01*
X157483892Y-116379459D01*
X157428229Y-116208148D01*
X157338165Y-116052152D01*
X157217636Y-115918292D01*
X157122902Y-115849463D01*
X157122901Y-115849462D01*
X158115081Y-115849462D01*
X158681099Y-116415481D01*
X159247118Y-115849463D01*
X159247117Y-115849462D01*
X169775081Y-115849462D01*
X170341099Y-116415481D01*
X170907118Y-115849463D01*
X170907117Y-115849462D01*
X170796796Y-115769310D01*
X170622732Y-115691812D01*
X170436369Y-115652200D01*
X170245831Y-115652200D01*
X170059463Y-115691813D01*
X169885405Y-115769309D01*
X169775081Y-115849462D01*
X159247117Y-115849462D01*
X159136796Y-115769310D01*
X158962732Y-115691812D01*
X158776369Y-115652200D01*
X158585831Y-115652200D01*
X158399463Y-115691813D01*
X158225405Y-115769309D01*
X158115081Y-115849462D01*
X157122901Y-115849462D01*
X157071912Y-115812416D01*
X156907351Y-115739149D01*
X156731165Y-115701700D01*
X156731164Y-115701700D01*
X156551036Y-115701700D01*
X156551035Y-115701700D01*
X156374848Y-115739149D01*
X156210287Y-115812416D01*
X156064567Y-115918289D01*
X155944035Y-116052152D01*
X155853970Y-116208150D01*
X155798308Y-116379457D01*
X155779480Y-116558599D01*
X155462720Y-116558599D01*
X155443892Y-116379459D01*
X155388229Y-116208148D01*
X155298165Y-116052152D01*
X155177636Y-115918292D01*
X155082902Y-115849463D01*
X155031912Y-115812416D01*
X154867351Y-115739149D01*
X154691165Y-115701700D01*
X154691164Y-115701700D01*
X154511036Y-115701700D01*
X154511035Y-115701700D01*
X154334848Y-115739149D01*
X154170287Y-115812416D01*
X154024567Y-115918289D01*
X153904035Y-116052152D01*
X153813970Y-116208150D01*
X153758308Y-116379457D01*
X153739480Y-116558599D01*
X153472492Y-116558599D01*
X153452576Y-116369109D01*
X153393699Y-116187905D01*
X153298430Y-116022894D01*
X153270709Y-115992108D01*
X152704218Y-116558599D01*
X152417981Y-116558599D01*
X151851490Y-115992108D01*
X151823768Y-116022897D01*
X151728500Y-116187905D01*
X151669623Y-116369109D01*
X151649707Y-116558600D01*
X141812492Y-116558600D01*
X141792576Y-116369109D01*
X141733699Y-116187905D01*
X141638430Y-116022894D01*
X141610709Y-115992108D01*
X141044218Y-116558599D01*
X140757981Y-116558599D01*
X140191490Y-115992108D01*
X140163768Y-116022897D01*
X140068500Y-116187905D01*
X140009623Y-116369109D01*
X139989707Y-116558600D01*
X139722720Y-116558600D01*
X139703892Y-116379459D01*
X139648229Y-116208148D01*
X139558165Y-116052152D01*
X139437636Y-115918292D01*
X139342902Y-115849463D01*
X139342901Y-115849462D01*
X140335081Y-115849462D01*
X140901099Y-116415481D01*
X141467118Y-115849463D01*
X141467117Y-115849462D01*
X151995080Y-115849462D01*
X152561099Y-116415481D01*
X153127118Y-115849463D01*
X153127117Y-115849462D01*
X153016796Y-115769310D01*
X152842732Y-115691812D01*
X152656369Y-115652200D01*
X152465831Y-115652200D01*
X152279463Y-115691813D01*
X152105405Y-115769309D01*
X151995080Y-115849462D01*
X141467117Y-115849462D01*
X141356796Y-115769310D01*
X141182732Y-115691812D01*
X140996369Y-115652200D01*
X140805831Y-115652200D01*
X140619463Y-115691813D01*
X140445405Y-115769309D01*
X140335081Y-115849462D01*
X139342901Y-115849462D01*
X139291912Y-115812416D01*
X139127351Y-115739149D01*
X138951165Y-115701700D01*
X138951164Y-115701700D01*
X138771036Y-115701700D01*
X138771035Y-115701700D01*
X138594848Y-115739149D01*
X138430287Y-115812416D01*
X138284567Y-115918289D01*
X138164035Y-116052152D01*
X138073970Y-116208150D01*
X138018308Y-116379457D01*
X137999480Y-116558599D01*
X137682720Y-116558599D01*
X137663892Y-116379459D01*
X137608229Y-116208148D01*
X137518165Y-116052152D01*
X137397636Y-115918292D01*
X137302902Y-115849463D01*
X137251912Y-115812416D01*
X137087351Y-115739149D01*
X136911165Y-115701700D01*
X136911164Y-115701700D01*
X136731036Y-115701700D01*
X136731035Y-115701700D01*
X136554848Y-115739149D01*
X136390287Y-115812416D01*
X136244567Y-115918289D01*
X136124035Y-116052152D01*
X136033970Y-116208150D01*
X135978308Y-116379457D01*
X135959480Y-116558599D01*
X135692492Y-116558599D01*
X135672576Y-116369109D01*
X135613699Y-116187905D01*
X135518430Y-116022894D01*
X135490709Y-115992108D01*
X134924218Y-116558599D01*
X134637981Y-116558599D01*
X134071490Y-115992108D01*
X134043768Y-116022897D01*
X133948500Y-116187905D01*
X133889623Y-116369109D01*
X133869707Y-116558600D01*
X124032492Y-116558600D01*
X124012576Y-116369109D01*
X123953699Y-116187905D01*
X123858430Y-116022894D01*
X123830709Y-115992108D01*
X123264218Y-116558599D01*
X122977980Y-116558599D01*
X122411490Y-115992108D01*
X122383768Y-116022897D01*
X122288500Y-116187905D01*
X122229623Y-116369109D01*
X122209707Y-116558600D01*
X121942720Y-116558600D01*
X121923892Y-116379459D01*
X121868229Y-116208148D01*
X121778165Y-116052152D01*
X121657636Y-115918292D01*
X121562902Y-115849463D01*
X121562901Y-115849462D01*
X122555081Y-115849462D01*
X123121099Y-116415481D01*
X123687118Y-115849463D01*
X123687117Y-115849462D01*
X134215081Y-115849462D01*
X134781099Y-116415481D01*
X135347118Y-115849463D01*
X135347117Y-115849462D01*
X135236796Y-115769310D01*
X135062732Y-115691812D01*
X134876369Y-115652200D01*
X134685831Y-115652200D01*
X134499463Y-115691813D01*
X134325405Y-115769309D01*
X134215081Y-115849462D01*
X123687117Y-115849462D01*
X123576796Y-115769310D01*
X123402732Y-115691812D01*
X123216369Y-115652200D01*
X123025831Y-115652200D01*
X122839463Y-115691813D01*
X122665405Y-115769309D01*
X122555081Y-115849462D01*
X121562901Y-115849462D01*
X121511912Y-115812416D01*
X121347351Y-115739149D01*
X121171165Y-115701700D01*
X121171164Y-115701700D01*
X120991036Y-115701700D01*
X120991035Y-115701700D01*
X120814848Y-115739149D01*
X120650287Y-115812416D01*
X120504567Y-115918289D01*
X120384035Y-116052152D01*
X120293970Y-116208150D01*
X120238308Y-116379457D01*
X120219480Y-116558599D01*
X119902720Y-116558599D01*
X119883892Y-116379459D01*
X119828229Y-116208148D01*
X119738165Y-116052152D01*
X119617636Y-115918292D01*
X119522902Y-115849463D01*
X119471912Y-115812416D01*
X119307351Y-115739149D01*
X119131165Y-115701700D01*
X119131164Y-115701700D01*
X118951036Y-115701700D01*
X118951035Y-115701700D01*
X118774848Y-115739149D01*
X118610287Y-115812416D01*
X118464567Y-115918289D01*
X118344035Y-116052152D01*
X118253970Y-116208150D01*
X118198308Y-116379457D01*
X118179480Y-116558599D01*
X117912492Y-116558599D01*
X117892576Y-116369109D01*
X117833699Y-116187905D01*
X117738430Y-116022894D01*
X117710709Y-115992108D01*
X117144218Y-116558599D01*
X116857980Y-116558599D01*
X116291490Y-115992108D01*
X116263768Y-116022897D01*
X116168500Y-116187905D01*
X116109623Y-116369109D01*
X116089707Y-116558600D01*
X102816600Y-116558600D01*
X102816600Y-115849462D01*
X116435081Y-115849462D01*
X117001099Y-116415481D01*
X117567118Y-115849463D01*
X117567117Y-115849462D01*
X117456796Y-115769310D01*
X117282732Y-115691812D01*
X117096369Y-115652200D01*
X116905831Y-115652200D01*
X116719463Y-115691813D01*
X116545405Y-115769309D01*
X116435081Y-115849462D01*
X102816600Y-115849462D01*
X102816600Y-111738600D01*
X112849480Y-111738600D01*
X112868308Y-111917742D01*
X112923970Y-112089049D01*
X112923971Y-112089052D01*
X113014035Y-112245048D01*
X113134564Y-112378908D01*
X113280290Y-112484785D01*
X113444845Y-112558049D01*
X113444846Y-112558049D01*
X113444848Y-112558050D01*
X113621035Y-112595500D01*
X113621036Y-112595500D01*
X113801164Y-112595500D01*
X113801165Y-112595500D01*
X113977351Y-112558050D01*
X113977351Y-112558049D01*
X113977355Y-112558049D01*
X114141910Y-112484785D01*
X114192903Y-112447736D01*
X115435080Y-112447736D01*
X115545403Y-112527889D01*
X115719467Y-112605387D01*
X115905831Y-112645000D01*
X116096369Y-112645000D01*
X116282732Y-112605387D01*
X116456799Y-112527887D01*
X116567117Y-112447736D01*
X116567117Y-112447735D01*
X116001099Y-111881718D01*
X115435080Y-112447736D01*
X114192903Y-112447736D01*
X114287636Y-112378908D01*
X114408165Y-112245048D01*
X114498229Y-112089052D01*
X114553892Y-111917741D01*
X114572720Y-111738600D01*
X114572720Y-111738599D01*
X115089707Y-111738599D01*
X115109623Y-111928090D01*
X115168500Y-112109294D01*
X115263769Y-112274305D01*
X115291489Y-112305090D01*
X115857981Y-111738599D01*
X116144218Y-111738599D01*
X116710708Y-112305089D01*
X116738432Y-112274302D01*
X116833699Y-112109294D01*
X116892576Y-111928090D01*
X116912492Y-111738600D01*
X124279480Y-111738600D01*
X124298308Y-111917742D01*
X124353970Y-112089049D01*
X124353971Y-112089052D01*
X124444035Y-112245048D01*
X124564564Y-112378908D01*
X124710290Y-112484785D01*
X124874845Y-112558049D01*
X124874846Y-112558049D01*
X124874848Y-112558050D01*
X125051035Y-112595500D01*
X125051036Y-112595500D01*
X125231164Y-112595500D01*
X125231165Y-112595500D01*
X125407351Y-112558050D01*
X125407351Y-112558049D01*
X125407355Y-112558049D01*
X125571910Y-112484785D01*
X125622903Y-112447736D01*
X126865081Y-112447736D01*
X126975403Y-112527889D01*
X127149467Y-112605387D01*
X127335831Y-112645000D01*
X127526369Y-112645000D01*
X127712732Y-112605387D01*
X127886799Y-112527887D01*
X127997117Y-112447736D01*
X127997117Y-112447735D01*
X127431099Y-111881718D01*
X126865081Y-112447736D01*
X125622903Y-112447736D01*
X125717636Y-112378908D01*
X125838165Y-112245048D01*
X125928229Y-112089052D01*
X125983892Y-111917741D01*
X126002720Y-111738600D01*
X126002720Y-111738599D01*
X126519707Y-111738599D01*
X126539623Y-111928090D01*
X126598500Y-112109294D01*
X126693769Y-112274305D01*
X126721489Y-112305090D01*
X127287981Y-111738599D01*
X127574218Y-111738599D01*
X128140708Y-112305089D01*
X128168432Y-112274302D01*
X128263699Y-112109294D01*
X128322576Y-111928090D01*
X128342492Y-111738600D01*
X130629480Y-111738600D01*
X130648308Y-111917742D01*
X130703970Y-112089049D01*
X130703971Y-112089052D01*
X130794035Y-112245048D01*
X130914564Y-112378908D01*
X131060290Y-112484785D01*
X131224845Y-112558049D01*
X131224846Y-112558049D01*
X131224848Y-112558050D01*
X131401035Y-112595500D01*
X131401036Y-112595500D01*
X131581164Y-112595500D01*
X131581165Y-112595500D01*
X131757351Y-112558050D01*
X131757351Y-112558049D01*
X131757355Y-112558049D01*
X131921910Y-112484785D01*
X131972903Y-112447736D01*
X133215081Y-112447736D01*
X133325403Y-112527889D01*
X133499467Y-112605387D01*
X133685831Y-112645000D01*
X133876369Y-112645000D01*
X134062732Y-112605387D01*
X134236799Y-112527887D01*
X134347117Y-112447736D01*
X134347117Y-112447735D01*
X133781099Y-111881718D01*
X133215081Y-112447736D01*
X131972903Y-112447736D01*
X132067636Y-112378908D01*
X132188165Y-112245048D01*
X132278229Y-112089052D01*
X132333892Y-111917741D01*
X132352720Y-111738600D01*
X132352720Y-111738599D01*
X132869707Y-111738599D01*
X132889623Y-111928090D01*
X132948500Y-112109294D01*
X133043769Y-112274305D01*
X133071489Y-112305090D01*
X133637981Y-111738599D01*
X133924218Y-111738599D01*
X134490708Y-112305089D01*
X134518432Y-112274302D01*
X134613699Y-112109294D01*
X134672576Y-111928090D01*
X134692492Y-111738600D01*
X142059480Y-111738600D01*
X142078308Y-111917742D01*
X142133970Y-112089049D01*
X142133971Y-112089052D01*
X142224035Y-112245048D01*
X142344564Y-112378908D01*
X142490290Y-112484785D01*
X142654845Y-112558049D01*
X142654846Y-112558049D01*
X142654848Y-112558050D01*
X142831035Y-112595500D01*
X142831036Y-112595500D01*
X143011164Y-112595500D01*
X143011165Y-112595500D01*
X143187351Y-112558050D01*
X143187351Y-112558049D01*
X143187355Y-112558049D01*
X143351910Y-112484785D01*
X143402903Y-112447736D01*
X144645080Y-112447736D01*
X144755403Y-112527889D01*
X144929467Y-112605387D01*
X145115831Y-112645000D01*
X145306369Y-112645000D01*
X145492732Y-112605387D01*
X145666799Y-112527887D01*
X145777117Y-112447736D01*
X145777117Y-112447735D01*
X145211099Y-111881718D01*
X144645080Y-112447736D01*
X143402903Y-112447736D01*
X143497636Y-112378908D01*
X143618165Y-112245048D01*
X143708229Y-112089052D01*
X143763892Y-111917741D01*
X143782720Y-111738600D01*
X143782720Y-111738599D01*
X144299707Y-111738599D01*
X144319623Y-111928090D01*
X144378500Y-112109294D01*
X144473769Y-112274305D01*
X144501489Y-112305090D01*
X145067981Y-111738599D01*
X145354218Y-111738599D01*
X145920708Y-112305089D01*
X145948432Y-112274302D01*
X146043699Y-112109294D01*
X146102576Y-111928090D01*
X146122492Y-111738600D01*
X148409480Y-111738600D01*
X148428308Y-111917742D01*
X148483970Y-112089049D01*
X148483971Y-112089052D01*
X148574035Y-112245048D01*
X148694564Y-112378908D01*
X148840290Y-112484785D01*
X149004845Y-112558049D01*
X149004846Y-112558049D01*
X149004848Y-112558050D01*
X149181035Y-112595500D01*
X149181036Y-112595500D01*
X149361164Y-112595500D01*
X149361165Y-112595500D01*
X149537351Y-112558050D01*
X149537351Y-112558049D01*
X149537355Y-112558049D01*
X149701910Y-112484785D01*
X149752903Y-112447736D01*
X150995080Y-112447736D01*
X151105403Y-112527889D01*
X151279467Y-112605387D01*
X151465831Y-112645000D01*
X151656369Y-112645000D01*
X151842732Y-112605387D01*
X152016799Y-112527887D01*
X152127117Y-112447736D01*
X152127117Y-112447735D01*
X151561099Y-111881718D01*
X150995080Y-112447736D01*
X149752903Y-112447736D01*
X149847636Y-112378908D01*
X149968165Y-112245048D01*
X150058229Y-112089052D01*
X150113892Y-111917741D01*
X150132720Y-111738600D01*
X150132720Y-111738599D01*
X150649707Y-111738599D01*
X150669623Y-111928090D01*
X150728500Y-112109294D01*
X150823769Y-112274305D01*
X150851489Y-112305090D01*
X151417981Y-111738599D01*
X151704218Y-111738599D01*
X152270708Y-112305089D01*
X152298432Y-112274302D01*
X152393699Y-112109294D01*
X152452576Y-111928090D01*
X152472492Y-111738600D01*
X159839480Y-111738600D01*
X159858308Y-111917742D01*
X159913970Y-112089049D01*
X159913971Y-112089052D01*
X160004035Y-112245048D01*
X160124564Y-112378908D01*
X160270290Y-112484785D01*
X160434845Y-112558049D01*
X160434846Y-112558049D01*
X160434848Y-112558050D01*
X160611035Y-112595500D01*
X160611036Y-112595500D01*
X160791164Y-112595500D01*
X160791165Y-112595500D01*
X160967351Y-112558050D01*
X160967351Y-112558049D01*
X160967355Y-112558049D01*
X161131910Y-112484785D01*
X161182903Y-112447736D01*
X162425081Y-112447736D01*
X162535403Y-112527889D01*
X162709467Y-112605387D01*
X162895831Y-112645000D01*
X163086369Y-112645000D01*
X163272732Y-112605387D01*
X163446799Y-112527887D01*
X163557117Y-112447736D01*
X163557117Y-112447735D01*
X162991099Y-111881718D01*
X162425081Y-112447736D01*
X161182903Y-112447736D01*
X161277636Y-112378908D01*
X161398165Y-112245048D01*
X161488229Y-112089052D01*
X161543892Y-111917741D01*
X161562720Y-111738600D01*
X161562720Y-111738599D01*
X162079707Y-111738599D01*
X162099623Y-111928090D01*
X162158500Y-112109294D01*
X162253769Y-112274305D01*
X162281489Y-112305090D01*
X162847981Y-111738599D01*
X163134218Y-111738599D01*
X163700708Y-112305089D01*
X163728432Y-112274302D01*
X163823699Y-112109294D01*
X163882576Y-111928090D01*
X163902492Y-111738600D01*
X166189480Y-111738600D01*
X166208308Y-111917742D01*
X166263970Y-112089049D01*
X166263971Y-112089052D01*
X166354035Y-112245048D01*
X166474564Y-112378908D01*
X166620290Y-112484785D01*
X166784845Y-112558049D01*
X166784846Y-112558049D01*
X166784848Y-112558050D01*
X166961035Y-112595500D01*
X166961036Y-112595500D01*
X167141164Y-112595500D01*
X167141165Y-112595500D01*
X167317351Y-112558050D01*
X167317351Y-112558049D01*
X167317355Y-112558049D01*
X167481910Y-112484785D01*
X167532903Y-112447736D01*
X168775081Y-112447736D01*
X168885403Y-112527889D01*
X169059467Y-112605387D01*
X169245831Y-112645000D01*
X169436369Y-112645000D01*
X169622732Y-112605387D01*
X169796799Y-112527887D01*
X169907117Y-112447736D01*
X169907117Y-112447735D01*
X169341099Y-111881718D01*
X168775081Y-112447736D01*
X167532903Y-112447736D01*
X167627636Y-112378908D01*
X167748165Y-112245048D01*
X167838229Y-112089052D01*
X167893892Y-111917741D01*
X167912720Y-111738600D01*
X167912720Y-111738599D01*
X168429707Y-111738599D01*
X168449623Y-111928090D01*
X168508500Y-112109294D01*
X168603769Y-112274305D01*
X168631489Y-112305090D01*
X169197981Y-111738599D01*
X169484218Y-111738599D01*
X170050708Y-112305089D01*
X170078432Y-112274302D01*
X170173699Y-112109294D01*
X170232576Y-111928090D01*
X170252492Y-111738600D01*
X177619480Y-111738600D01*
X177638308Y-111917742D01*
X177693970Y-112089049D01*
X177693971Y-112089052D01*
X177784035Y-112245048D01*
X177904564Y-112378908D01*
X178050290Y-112484785D01*
X178214845Y-112558049D01*
X178214846Y-112558049D01*
X178214848Y-112558050D01*
X178391035Y-112595500D01*
X178391036Y-112595500D01*
X178571164Y-112595500D01*
X178571165Y-112595500D01*
X178747351Y-112558050D01*
X178747351Y-112558049D01*
X178747355Y-112558049D01*
X178911910Y-112484785D01*
X178962903Y-112447736D01*
X180205081Y-112447736D01*
X180315403Y-112527889D01*
X180489467Y-112605387D01*
X180675831Y-112645000D01*
X180866369Y-112645000D01*
X181052732Y-112605387D01*
X181226799Y-112527887D01*
X181337117Y-112447736D01*
X181337117Y-112447735D01*
X180771099Y-111881718D01*
X180205081Y-112447736D01*
X178962903Y-112447736D01*
X179057636Y-112378908D01*
X179178165Y-112245048D01*
X179268229Y-112089052D01*
X179323892Y-111917741D01*
X179342720Y-111738600D01*
X179342720Y-111738599D01*
X179859707Y-111738599D01*
X179879623Y-111928090D01*
X179938500Y-112109294D01*
X180033769Y-112274305D01*
X180061489Y-112305090D01*
X180627981Y-111738599D01*
X180914218Y-111738599D01*
X181480708Y-112305089D01*
X181508432Y-112274302D01*
X181603699Y-112109294D01*
X181662576Y-111928090D01*
X181682492Y-111738599D01*
X181662576Y-111549109D01*
X181603699Y-111367905D01*
X181508430Y-111202894D01*
X181480709Y-111172108D01*
X180914218Y-111738599D01*
X180627981Y-111738599D01*
X180061490Y-111172108D01*
X180033768Y-111202897D01*
X179938500Y-111367905D01*
X179879623Y-111549109D01*
X179859707Y-111738599D01*
X179342720Y-111738599D01*
X179323892Y-111559459D01*
X179268229Y-111388148D01*
X179178165Y-111232152D01*
X179057636Y-111098292D01*
X178962902Y-111029463D01*
X178962901Y-111029462D01*
X180205081Y-111029462D01*
X180771099Y-111595481D01*
X181337118Y-111029463D01*
X181337117Y-111029462D01*
X181226796Y-110949310D01*
X181052732Y-110871812D01*
X180866369Y-110832200D01*
X180675831Y-110832200D01*
X180489463Y-110871813D01*
X180315405Y-110949309D01*
X180205081Y-111029462D01*
X178962901Y-111029462D01*
X178911912Y-110992416D01*
X178747351Y-110919149D01*
X178571165Y-110881700D01*
X178571164Y-110881700D01*
X178391036Y-110881700D01*
X178391035Y-110881700D01*
X178214848Y-110919149D01*
X178050287Y-110992416D01*
X177904567Y-111098289D01*
X177784035Y-111232152D01*
X177693970Y-111388150D01*
X177638308Y-111559457D01*
X177619480Y-111738600D01*
X170252492Y-111738600D01*
X170252492Y-111738599D01*
X170232576Y-111549109D01*
X170173699Y-111367905D01*
X170078430Y-111202894D01*
X170050709Y-111172108D01*
X169484218Y-111738599D01*
X169197981Y-111738599D01*
X168631490Y-111172108D01*
X168603768Y-111202897D01*
X168508500Y-111367905D01*
X168449623Y-111549109D01*
X168429707Y-111738599D01*
X167912720Y-111738599D01*
X167893892Y-111559459D01*
X167838229Y-111388148D01*
X167748165Y-111232152D01*
X167627636Y-111098292D01*
X167532902Y-111029463D01*
X167532901Y-111029462D01*
X168775081Y-111029462D01*
X169341099Y-111595481D01*
X169907118Y-111029463D01*
X169907117Y-111029462D01*
X169796796Y-110949310D01*
X169622732Y-110871812D01*
X169436369Y-110832200D01*
X169245831Y-110832200D01*
X169059463Y-110871813D01*
X168885405Y-110949309D01*
X168775081Y-111029462D01*
X167532901Y-111029462D01*
X167481912Y-110992416D01*
X167317351Y-110919149D01*
X167141165Y-110881700D01*
X167141164Y-110881700D01*
X166961036Y-110881700D01*
X166961035Y-110881700D01*
X166784848Y-110919149D01*
X166620287Y-110992416D01*
X166474567Y-111098289D01*
X166354035Y-111232152D01*
X166263970Y-111388150D01*
X166208308Y-111559457D01*
X166189480Y-111738600D01*
X163902492Y-111738600D01*
X163902492Y-111738599D01*
X163882576Y-111549109D01*
X163823699Y-111367905D01*
X163728430Y-111202894D01*
X163700709Y-111172108D01*
X163134218Y-111738599D01*
X162847981Y-111738599D01*
X162281490Y-111172108D01*
X162253768Y-111202897D01*
X162158500Y-111367905D01*
X162099623Y-111549109D01*
X162079707Y-111738599D01*
X161562720Y-111738599D01*
X161543892Y-111559459D01*
X161488229Y-111388148D01*
X161398165Y-111232152D01*
X161277636Y-111098292D01*
X161182902Y-111029463D01*
X161182901Y-111029462D01*
X162425081Y-111029462D01*
X162991099Y-111595481D01*
X163557118Y-111029463D01*
X163557117Y-111029462D01*
X163446796Y-110949310D01*
X163272732Y-110871812D01*
X163086369Y-110832200D01*
X162895831Y-110832200D01*
X162709463Y-110871813D01*
X162535405Y-110949309D01*
X162425081Y-111029462D01*
X161182901Y-111029462D01*
X161131912Y-110992416D01*
X160967351Y-110919149D01*
X160791165Y-110881700D01*
X160791164Y-110881700D01*
X160611036Y-110881700D01*
X160611035Y-110881700D01*
X160434848Y-110919149D01*
X160270287Y-110992416D01*
X160124567Y-111098289D01*
X160004035Y-111232152D01*
X159913970Y-111388150D01*
X159858308Y-111559457D01*
X159839480Y-111738600D01*
X152472492Y-111738600D01*
X152472492Y-111738599D01*
X152452576Y-111549109D01*
X152393699Y-111367905D01*
X152298430Y-111202894D01*
X152270709Y-111172108D01*
X151704218Y-111738599D01*
X151417981Y-111738599D01*
X150851490Y-111172108D01*
X150823768Y-111202897D01*
X150728500Y-111367905D01*
X150669623Y-111549109D01*
X150649707Y-111738599D01*
X150132720Y-111738599D01*
X150113892Y-111559459D01*
X150058229Y-111388148D01*
X149968165Y-111232152D01*
X149847636Y-111098292D01*
X149752902Y-111029463D01*
X149752901Y-111029462D01*
X150995081Y-111029462D01*
X151561099Y-111595481D01*
X152127118Y-111029463D01*
X152127117Y-111029462D01*
X152016796Y-110949310D01*
X151842732Y-110871812D01*
X151656369Y-110832200D01*
X151465831Y-110832200D01*
X151279463Y-110871813D01*
X151105405Y-110949309D01*
X150995081Y-111029462D01*
X149752901Y-111029462D01*
X149701912Y-110992416D01*
X149537351Y-110919149D01*
X149361165Y-110881700D01*
X149361164Y-110881700D01*
X149181036Y-110881700D01*
X149181035Y-110881700D01*
X149004848Y-110919149D01*
X148840287Y-110992416D01*
X148694567Y-111098289D01*
X148574035Y-111232152D01*
X148483970Y-111388150D01*
X148428308Y-111559457D01*
X148409480Y-111738600D01*
X146122492Y-111738600D01*
X146122492Y-111738599D01*
X146102576Y-111549109D01*
X146043699Y-111367905D01*
X145948430Y-111202894D01*
X145920709Y-111172108D01*
X145354218Y-111738599D01*
X145067981Y-111738599D01*
X144501490Y-111172108D01*
X144473768Y-111202897D01*
X144378500Y-111367905D01*
X144319623Y-111549109D01*
X144299707Y-111738599D01*
X143782720Y-111738599D01*
X143763892Y-111559459D01*
X143708229Y-111388148D01*
X143618165Y-111232152D01*
X143497636Y-111098292D01*
X143402902Y-111029463D01*
X143402901Y-111029462D01*
X144645081Y-111029462D01*
X145211099Y-111595481D01*
X145777118Y-111029463D01*
X145777117Y-111029462D01*
X145666796Y-110949310D01*
X145492732Y-110871812D01*
X145306369Y-110832200D01*
X145115831Y-110832200D01*
X144929463Y-110871813D01*
X144755405Y-110949309D01*
X144645081Y-111029462D01*
X143402901Y-111029462D01*
X143351912Y-110992416D01*
X143187351Y-110919149D01*
X143011165Y-110881700D01*
X143011164Y-110881700D01*
X142831036Y-110881700D01*
X142831035Y-110881700D01*
X142654848Y-110919149D01*
X142490287Y-110992416D01*
X142344567Y-111098289D01*
X142224035Y-111232152D01*
X142133970Y-111388150D01*
X142078308Y-111559457D01*
X142059480Y-111738600D01*
X134692492Y-111738600D01*
X134692492Y-111738599D01*
X134672576Y-111549109D01*
X134613699Y-111367905D01*
X134518430Y-111202894D01*
X134490709Y-111172108D01*
X133924218Y-111738599D01*
X133637981Y-111738599D01*
X133071490Y-111172108D01*
X133043768Y-111202897D01*
X132948500Y-111367905D01*
X132889623Y-111549109D01*
X132869707Y-111738599D01*
X132352720Y-111738599D01*
X132333892Y-111559459D01*
X132278229Y-111388148D01*
X132188165Y-111232152D01*
X132067636Y-111098292D01*
X131972902Y-111029463D01*
X131972901Y-111029462D01*
X133215081Y-111029462D01*
X133781099Y-111595481D01*
X134347118Y-111029463D01*
X134347117Y-111029462D01*
X134236796Y-110949310D01*
X134062732Y-110871812D01*
X133876369Y-110832200D01*
X133685831Y-110832200D01*
X133499463Y-110871813D01*
X133325405Y-110949309D01*
X133215081Y-111029462D01*
X131972901Y-111029462D01*
X131921912Y-110992416D01*
X131757351Y-110919149D01*
X131581165Y-110881700D01*
X131581164Y-110881700D01*
X131401036Y-110881700D01*
X131401035Y-110881700D01*
X131224848Y-110919149D01*
X131060287Y-110992416D01*
X130914567Y-111098289D01*
X130794035Y-111232152D01*
X130703970Y-111388150D01*
X130648308Y-111559457D01*
X130629480Y-111738600D01*
X128342492Y-111738600D01*
X128342492Y-111738599D01*
X128322576Y-111549109D01*
X128263699Y-111367905D01*
X128168430Y-111202894D01*
X128140709Y-111172108D01*
X127574218Y-111738599D01*
X127287981Y-111738599D01*
X126721490Y-111172108D01*
X126693768Y-111202897D01*
X126598500Y-111367905D01*
X126539623Y-111549109D01*
X126519707Y-111738599D01*
X126002720Y-111738599D01*
X125983892Y-111559459D01*
X125928229Y-111388148D01*
X125838165Y-111232152D01*
X125717636Y-111098292D01*
X125622902Y-111029463D01*
X125622901Y-111029462D01*
X126865081Y-111029462D01*
X127431099Y-111595481D01*
X127997118Y-111029463D01*
X127997117Y-111029462D01*
X127886796Y-110949310D01*
X127712732Y-110871812D01*
X127526369Y-110832200D01*
X127335831Y-110832200D01*
X127149463Y-110871813D01*
X126975405Y-110949309D01*
X126865081Y-111029462D01*
X125622901Y-111029462D01*
X125571912Y-110992416D01*
X125407351Y-110919149D01*
X125231165Y-110881700D01*
X125231164Y-110881700D01*
X125051036Y-110881700D01*
X125051035Y-110881700D01*
X124874848Y-110919149D01*
X124710287Y-110992416D01*
X124564567Y-111098289D01*
X124444035Y-111232152D01*
X124353970Y-111388150D01*
X124298308Y-111559457D01*
X124279480Y-111738600D01*
X116912492Y-111738600D01*
X116912492Y-111738599D01*
X116892576Y-111549109D01*
X116833699Y-111367905D01*
X116738430Y-111202894D01*
X116710709Y-111172108D01*
X116144218Y-111738599D01*
X115857981Y-111738599D01*
X115291490Y-111172108D01*
X115263768Y-111202897D01*
X115168500Y-111367905D01*
X115109623Y-111549109D01*
X115089707Y-111738599D01*
X114572720Y-111738599D01*
X114553892Y-111559459D01*
X114498229Y-111388148D01*
X114408165Y-111232152D01*
X114287636Y-111098292D01*
X114192902Y-111029463D01*
X114192901Y-111029462D01*
X115435081Y-111029462D01*
X116001099Y-111595481D01*
X116567118Y-111029463D01*
X116567117Y-111029462D01*
X116456796Y-110949310D01*
X116282732Y-110871812D01*
X116096369Y-110832200D01*
X115905831Y-110832200D01*
X115719463Y-110871813D01*
X115545405Y-110949309D01*
X115435081Y-111029462D01*
X114192901Y-111029462D01*
X114141912Y-110992416D01*
X113977351Y-110919149D01*
X113801165Y-110881700D01*
X113801164Y-110881700D01*
X113621036Y-110881700D01*
X113621035Y-110881700D01*
X113444848Y-110919149D01*
X113280287Y-110992416D01*
X113134567Y-111098289D01*
X113014035Y-111232152D01*
X112923970Y-111388150D01*
X112868308Y-111559457D01*
X112849480Y-111738600D01*
X102816600Y-111738600D01*
X102816600Y-98977736D01*
X113145080Y-98977736D01*
X113255403Y-99057889D01*
X113429467Y-99135387D01*
X113615831Y-99175000D01*
X113806369Y-99175000D01*
X113992732Y-99135387D01*
X114166799Y-99057887D01*
X114277117Y-98977736D01*
X114277117Y-98977735D01*
X113711099Y-98411718D01*
X113145080Y-98977736D01*
X102816600Y-98977736D01*
X102816600Y-98268600D01*
X112799707Y-98268600D01*
X112819623Y-98458090D01*
X112878500Y-98639294D01*
X112973769Y-98804305D01*
X113001489Y-98835090D01*
X113567981Y-98268599D01*
X113854218Y-98268599D01*
X114420708Y-98835089D01*
X114448432Y-98804302D01*
X114543699Y-98639294D01*
X114602576Y-98458090D01*
X114622492Y-98268600D01*
X115139480Y-98268600D01*
X115158308Y-98447742D01*
X115213970Y-98619049D01*
X115213971Y-98619052D01*
X115304035Y-98775048D01*
X115424564Y-98908908D01*
X115570290Y-99014785D01*
X115734845Y-99088049D01*
X115734846Y-99088049D01*
X115734848Y-99088050D01*
X115911035Y-99125500D01*
X115911036Y-99125500D01*
X116091164Y-99125500D01*
X116091165Y-99125500D01*
X116267351Y-99088050D01*
X116267351Y-99088049D01*
X116267355Y-99088049D01*
X116431910Y-99014785D01*
X116482903Y-98977736D01*
X124575081Y-98977736D01*
X124685403Y-99057889D01*
X124859467Y-99135387D01*
X125045831Y-99175000D01*
X125236369Y-99175000D01*
X125422732Y-99135387D01*
X125596799Y-99057887D01*
X125707117Y-98977736D01*
X125707117Y-98977735D01*
X125141099Y-98411718D01*
X124575081Y-98977736D01*
X116482903Y-98977736D01*
X116577636Y-98908908D01*
X116698165Y-98775048D01*
X116788229Y-98619052D01*
X116843892Y-98447741D01*
X116862720Y-98268600D01*
X124229707Y-98268600D01*
X124249623Y-98458090D01*
X124308500Y-98639294D01*
X124403769Y-98804305D01*
X124431489Y-98835090D01*
X124997981Y-98268599D01*
X125284218Y-98268599D01*
X125850708Y-98835089D01*
X125878432Y-98804302D01*
X125973699Y-98639294D01*
X126032576Y-98458090D01*
X126052492Y-98268600D01*
X126052492Y-98268599D01*
X126569480Y-98268599D01*
X126588308Y-98447742D01*
X126643970Y-98619049D01*
X126643971Y-98619052D01*
X126734035Y-98775048D01*
X126854564Y-98908908D01*
X127000290Y-99014785D01*
X127164845Y-99088049D01*
X127164846Y-99088049D01*
X127164848Y-99088050D01*
X127341035Y-99125500D01*
X127341036Y-99125500D01*
X127521164Y-99125500D01*
X127521165Y-99125500D01*
X127697351Y-99088050D01*
X127697351Y-99088049D01*
X127697355Y-99088049D01*
X127861910Y-99014785D01*
X127912903Y-98977736D01*
X130925081Y-98977736D01*
X131035403Y-99057889D01*
X131209467Y-99135387D01*
X131395831Y-99175000D01*
X131586369Y-99175000D01*
X131772732Y-99135387D01*
X131946799Y-99057887D01*
X132057117Y-98977736D01*
X132057117Y-98977735D01*
X131491099Y-98411718D01*
X130925081Y-98977736D01*
X127912903Y-98977736D01*
X128007636Y-98908908D01*
X128128165Y-98775048D01*
X128218229Y-98619052D01*
X128273892Y-98447741D01*
X128292720Y-98268600D01*
X130579707Y-98268600D01*
X130599623Y-98458090D01*
X130658500Y-98639294D01*
X130753769Y-98804305D01*
X130781489Y-98835090D01*
X131347981Y-98268599D01*
X131634218Y-98268599D01*
X132200708Y-98835089D01*
X132228432Y-98804302D01*
X132323699Y-98639294D01*
X132382576Y-98458090D01*
X132402492Y-98268600D01*
X132402492Y-98268599D01*
X132919480Y-98268599D01*
X132938308Y-98447742D01*
X132993970Y-98619049D01*
X132993971Y-98619052D01*
X133084035Y-98775048D01*
X133204564Y-98908908D01*
X133350290Y-99014785D01*
X133514845Y-99088049D01*
X133514846Y-99088049D01*
X133514848Y-99088050D01*
X133691035Y-99125500D01*
X133691036Y-99125500D01*
X133871164Y-99125500D01*
X133871165Y-99125500D01*
X134047351Y-99088050D01*
X134047351Y-99088049D01*
X134047355Y-99088049D01*
X134211910Y-99014785D01*
X134262903Y-98977736D01*
X142355081Y-98977736D01*
X142465403Y-99057889D01*
X142639467Y-99135387D01*
X142825831Y-99175000D01*
X143016369Y-99175000D01*
X143202732Y-99135387D01*
X143376799Y-99057887D01*
X143487117Y-98977736D01*
X143487117Y-98977735D01*
X142921099Y-98411718D01*
X142355081Y-98977736D01*
X134262903Y-98977736D01*
X134357636Y-98908908D01*
X134478165Y-98775048D01*
X134568229Y-98619052D01*
X134623892Y-98447741D01*
X134642720Y-98268600D01*
X142009707Y-98268600D01*
X142029623Y-98458090D01*
X142088500Y-98639294D01*
X142183769Y-98804305D01*
X142211489Y-98835090D01*
X142777981Y-98268599D01*
X143064218Y-98268599D01*
X143630708Y-98835089D01*
X143658432Y-98804302D01*
X143753699Y-98639294D01*
X143812576Y-98458090D01*
X143832492Y-98268600D01*
X143832492Y-98268599D01*
X144349480Y-98268599D01*
X144368308Y-98447742D01*
X144423970Y-98619049D01*
X144423971Y-98619052D01*
X144514035Y-98775048D01*
X144634564Y-98908908D01*
X144780290Y-99014785D01*
X144944845Y-99088049D01*
X144944846Y-99088049D01*
X144944848Y-99088050D01*
X145121035Y-99125500D01*
X145121036Y-99125500D01*
X145301164Y-99125500D01*
X145301165Y-99125500D01*
X145477351Y-99088050D01*
X145477351Y-99088049D01*
X145477355Y-99088049D01*
X145641910Y-99014785D01*
X145692903Y-98977736D01*
X148705080Y-98977736D01*
X148815403Y-99057889D01*
X148989467Y-99135387D01*
X149175831Y-99175000D01*
X149366369Y-99175000D01*
X149552732Y-99135387D01*
X149726799Y-99057887D01*
X149837117Y-98977736D01*
X149837117Y-98977735D01*
X149271099Y-98411718D01*
X148705080Y-98977736D01*
X145692903Y-98977736D01*
X145787636Y-98908908D01*
X145908165Y-98775048D01*
X145998229Y-98619052D01*
X146053892Y-98447741D01*
X146072720Y-98268600D01*
X148359707Y-98268600D01*
X148379623Y-98458090D01*
X148438500Y-98639294D01*
X148533769Y-98804305D01*
X148561489Y-98835090D01*
X149127981Y-98268599D01*
X149414218Y-98268599D01*
X149980708Y-98835089D01*
X150008432Y-98804302D01*
X150103699Y-98639294D01*
X150162576Y-98458090D01*
X150182492Y-98268600D01*
X150182492Y-98268599D01*
X150699480Y-98268599D01*
X150718308Y-98447742D01*
X150773970Y-98619049D01*
X150773971Y-98619052D01*
X150864035Y-98775048D01*
X150984564Y-98908908D01*
X151130290Y-99014785D01*
X151294845Y-99088049D01*
X151294846Y-99088049D01*
X151294848Y-99088050D01*
X151471035Y-99125500D01*
X151471036Y-99125500D01*
X151651164Y-99125500D01*
X151651165Y-99125500D01*
X151827351Y-99088050D01*
X151827351Y-99088049D01*
X151827355Y-99088049D01*
X151991910Y-99014785D01*
X152042903Y-98977736D01*
X160135081Y-98977736D01*
X160245403Y-99057889D01*
X160419467Y-99135387D01*
X160605831Y-99175000D01*
X160796369Y-99175000D01*
X160982732Y-99135387D01*
X161156799Y-99057887D01*
X161267117Y-98977736D01*
X161267117Y-98977735D01*
X160701099Y-98411718D01*
X160135081Y-98977736D01*
X152042903Y-98977736D01*
X152137636Y-98908908D01*
X152258165Y-98775048D01*
X152348229Y-98619052D01*
X152403892Y-98447741D01*
X152422720Y-98268600D01*
X159789707Y-98268600D01*
X159809623Y-98458090D01*
X159868500Y-98639294D01*
X159963769Y-98804305D01*
X159991489Y-98835090D01*
X160557981Y-98268599D01*
X160844218Y-98268599D01*
X161410708Y-98835089D01*
X161438432Y-98804302D01*
X161533699Y-98639294D01*
X161592576Y-98458090D01*
X161612492Y-98268600D01*
X161612492Y-98268599D01*
X162129480Y-98268599D01*
X162148308Y-98447742D01*
X162203970Y-98619049D01*
X162203971Y-98619052D01*
X162294035Y-98775048D01*
X162414564Y-98908908D01*
X162560290Y-99014785D01*
X162724845Y-99088049D01*
X162724846Y-99088049D01*
X162724848Y-99088050D01*
X162901035Y-99125500D01*
X162901036Y-99125500D01*
X163081164Y-99125500D01*
X163081165Y-99125500D01*
X163257351Y-99088050D01*
X163257351Y-99088049D01*
X163257355Y-99088049D01*
X163421910Y-99014785D01*
X163472903Y-98977736D01*
X166485080Y-98977736D01*
X166595403Y-99057889D01*
X166769467Y-99135387D01*
X166955831Y-99175000D01*
X167146369Y-99175000D01*
X167332732Y-99135387D01*
X167506799Y-99057887D01*
X167617117Y-98977736D01*
X167617117Y-98977735D01*
X167051099Y-98411718D01*
X166485080Y-98977736D01*
X163472903Y-98977736D01*
X163567636Y-98908908D01*
X163688165Y-98775048D01*
X163778229Y-98619052D01*
X163833892Y-98447741D01*
X163852720Y-98268600D01*
X166139707Y-98268600D01*
X166159623Y-98458090D01*
X166218500Y-98639294D01*
X166313769Y-98804305D01*
X166341489Y-98835090D01*
X166907981Y-98268599D01*
X167194218Y-98268599D01*
X167760708Y-98835089D01*
X167788432Y-98804302D01*
X167883699Y-98639294D01*
X167942576Y-98458090D01*
X167962492Y-98268600D01*
X167962492Y-98268599D01*
X168479480Y-98268599D01*
X168498308Y-98447742D01*
X168553970Y-98619049D01*
X168553971Y-98619052D01*
X168644035Y-98775048D01*
X168764564Y-98908908D01*
X168910290Y-99014785D01*
X169074845Y-99088049D01*
X169074846Y-99088049D01*
X169074848Y-99088050D01*
X169251035Y-99125500D01*
X169251036Y-99125500D01*
X169431164Y-99125500D01*
X169431165Y-99125500D01*
X169607351Y-99088050D01*
X169607351Y-99088049D01*
X169607355Y-99088049D01*
X169771910Y-99014785D01*
X169822903Y-98977736D01*
X177915080Y-98977736D01*
X178025403Y-99057889D01*
X178199467Y-99135387D01*
X178385831Y-99175000D01*
X178576369Y-99175000D01*
X178762732Y-99135387D01*
X178936799Y-99057887D01*
X179047117Y-98977736D01*
X179047117Y-98977735D01*
X178481099Y-98411718D01*
X177915080Y-98977736D01*
X169822903Y-98977736D01*
X169917636Y-98908908D01*
X170038165Y-98775048D01*
X170128229Y-98619052D01*
X170183892Y-98447741D01*
X170202720Y-98268600D01*
X177569707Y-98268600D01*
X177589623Y-98458090D01*
X177648500Y-98639294D01*
X177743769Y-98804305D01*
X177771489Y-98835090D01*
X178337981Y-98268599D01*
X178624218Y-98268599D01*
X179190708Y-98835089D01*
X179218432Y-98804302D01*
X179313699Y-98639294D01*
X179372576Y-98458090D01*
X179392492Y-98268600D01*
X179392492Y-98268599D01*
X179909480Y-98268599D01*
X179928308Y-98447742D01*
X179983970Y-98619049D01*
X179983971Y-98619052D01*
X180074035Y-98775048D01*
X180194564Y-98908908D01*
X180340290Y-99014785D01*
X180504845Y-99088049D01*
X180504846Y-99088049D01*
X180504848Y-99088050D01*
X180681035Y-99125500D01*
X180681036Y-99125500D01*
X180861164Y-99125500D01*
X180861165Y-99125500D01*
X181037351Y-99088050D01*
X181037351Y-99088049D01*
X181037355Y-99088049D01*
X181201910Y-99014785D01*
X181347636Y-98908908D01*
X181468165Y-98775048D01*
X181558229Y-98619052D01*
X181613892Y-98447741D01*
X181632720Y-98268600D01*
X181613892Y-98089459D01*
X181558229Y-97918148D01*
X181468165Y-97762152D01*
X181347636Y-97628292D01*
X181252902Y-97559463D01*
X181201912Y-97522416D01*
X181037351Y-97449149D01*
X180861165Y-97411700D01*
X180861164Y-97411700D01*
X180681036Y-97411700D01*
X180681035Y-97411700D01*
X180504848Y-97449149D01*
X180340287Y-97522416D01*
X180194567Y-97628289D01*
X180074035Y-97762152D01*
X179983970Y-97918150D01*
X179928308Y-98089457D01*
X179909480Y-98268599D01*
X179392492Y-98268599D01*
X179372576Y-98079109D01*
X179313699Y-97897905D01*
X179218430Y-97732894D01*
X179190709Y-97702108D01*
X178624218Y-98268599D01*
X178337981Y-98268599D01*
X177771490Y-97702108D01*
X177743768Y-97732897D01*
X177648500Y-97897905D01*
X177589623Y-98079109D01*
X177569707Y-98268600D01*
X170202720Y-98268600D01*
X170183892Y-98089459D01*
X170128229Y-97918148D01*
X170038165Y-97762152D01*
X169917636Y-97628292D01*
X169822902Y-97559463D01*
X169822901Y-97559462D01*
X177915081Y-97559462D01*
X178481099Y-98125481D01*
X179047118Y-97559463D01*
X179047117Y-97559462D01*
X178936796Y-97479310D01*
X178762732Y-97401812D01*
X178576369Y-97362200D01*
X178385831Y-97362200D01*
X178199463Y-97401813D01*
X178025405Y-97479309D01*
X177915081Y-97559462D01*
X169822901Y-97559462D01*
X169771912Y-97522416D01*
X169607351Y-97449149D01*
X169431165Y-97411700D01*
X169431164Y-97411700D01*
X169251036Y-97411700D01*
X169251035Y-97411700D01*
X169074848Y-97449149D01*
X168910287Y-97522416D01*
X168764567Y-97628289D01*
X168644035Y-97762152D01*
X168553970Y-97918150D01*
X168498308Y-98089457D01*
X168479480Y-98268599D01*
X167962492Y-98268599D01*
X167942576Y-98079109D01*
X167883699Y-97897905D01*
X167788430Y-97732894D01*
X167760709Y-97702108D01*
X167194218Y-98268599D01*
X166907981Y-98268599D01*
X166341490Y-97702108D01*
X166313768Y-97732897D01*
X166218500Y-97897905D01*
X166159623Y-98079109D01*
X166139707Y-98268600D01*
X163852720Y-98268600D01*
X163833892Y-98089459D01*
X163778229Y-97918148D01*
X163688165Y-97762152D01*
X163567636Y-97628292D01*
X163472902Y-97559463D01*
X163472901Y-97559462D01*
X166485081Y-97559462D01*
X167051099Y-98125481D01*
X167617118Y-97559463D01*
X167617117Y-97559462D01*
X167506796Y-97479310D01*
X167332732Y-97401812D01*
X167146369Y-97362200D01*
X166955831Y-97362200D01*
X166769463Y-97401813D01*
X166595405Y-97479309D01*
X166485081Y-97559462D01*
X163472901Y-97559462D01*
X163421912Y-97522416D01*
X163257351Y-97449149D01*
X163081165Y-97411700D01*
X163081164Y-97411700D01*
X162901036Y-97411700D01*
X162901035Y-97411700D01*
X162724848Y-97449149D01*
X162560287Y-97522416D01*
X162414567Y-97628289D01*
X162294035Y-97762152D01*
X162203970Y-97918150D01*
X162148308Y-98089457D01*
X162129480Y-98268599D01*
X161612492Y-98268599D01*
X161592576Y-98079109D01*
X161533699Y-97897905D01*
X161438430Y-97732894D01*
X161410709Y-97702108D01*
X160844218Y-98268599D01*
X160557981Y-98268599D01*
X159991490Y-97702108D01*
X159963768Y-97732897D01*
X159868500Y-97897905D01*
X159809623Y-98079109D01*
X159789707Y-98268600D01*
X152422720Y-98268600D01*
X152403892Y-98089459D01*
X152348229Y-97918148D01*
X152258165Y-97762152D01*
X152137636Y-97628292D01*
X152042902Y-97559463D01*
X152042901Y-97559462D01*
X160135081Y-97559462D01*
X160701099Y-98125481D01*
X161267118Y-97559463D01*
X161267117Y-97559462D01*
X161156796Y-97479310D01*
X160982732Y-97401812D01*
X160796369Y-97362200D01*
X160605831Y-97362200D01*
X160419463Y-97401813D01*
X160245405Y-97479309D01*
X160135081Y-97559462D01*
X152042901Y-97559462D01*
X151991912Y-97522416D01*
X151827351Y-97449149D01*
X151651165Y-97411700D01*
X151651164Y-97411700D01*
X151471036Y-97411700D01*
X151471035Y-97411700D01*
X151294848Y-97449149D01*
X151130287Y-97522416D01*
X150984567Y-97628289D01*
X150864035Y-97762152D01*
X150773970Y-97918150D01*
X150718308Y-98089457D01*
X150699480Y-98268599D01*
X150182492Y-98268599D01*
X150162576Y-98079109D01*
X150103699Y-97897905D01*
X150008430Y-97732894D01*
X149980709Y-97702108D01*
X149414218Y-98268599D01*
X149127981Y-98268599D01*
X148561490Y-97702108D01*
X148533768Y-97732897D01*
X148438500Y-97897905D01*
X148379623Y-98079109D01*
X148359707Y-98268600D01*
X146072720Y-98268600D01*
X146053892Y-98089459D01*
X145998229Y-97918148D01*
X145908165Y-97762152D01*
X145787636Y-97628292D01*
X145692902Y-97559463D01*
X145692901Y-97559462D01*
X148705080Y-97559462D01*
X149271099Y-98125481D01*
X149837118Y-97559463D01*
X149837117Y-97559462D01*
X149726796Y-97479310D01*
X149552732Y-97401812D01*
X149366369Y-97362200D01*
X149175831Y-97362200D01*
X148989463Y-97401813D01*
X148815405Y-97479309D01*
X148705080Y-97559462D01*
X145692901Y-97559462D01*
X145641912Y-97522416D01*
X145477351Y-97449149D01*
X145301165Y-97411700D01*
X145301164Y-97411700D01*
X145121036Y-97411700D01*
X145121035Y-97411700D01*
X144944848Y-97449149D01*
X144780287Y-97522416D01*
X144634567Y-97628289D01*
X144514035Y-97762152D01*
X144423970Y-97918150D01*
X144368308Y-98089457D01*
X144349480Y-98268599D01*
X143832492Y-98268599D01*
X143812576Y-98079109D01*
X143753699Y-97897905D01*
X143658430Y-97732894D01*
X143630709Y-97702108D01*
X143064218Y-98268599D01*
X142777981Y-98268599D01*
X142211490Y-97702108D01*
X142183768Y-97732897D01*
X142088500Y-97897905D01*
X142029623Y-98079109D01*
X142009707Y-98268600D01*
X134642720Y-98268600D01*
X134623892Y-98089459D01*
X134568229Y-97918148D01*
X134478165Y-97762152D01*
X134357636Y-97628292D01*
X134262902Y-97559463D01*
X134262901Y-97559462D01*
X142355081Y-97559462D01*
X142921099Y-98125481D01*
X143487118Y-97559463D01*
X143487117Y-97559462D01*
X143376796Y-97479310D01*
X143202732Y-97401812D01*
X143016369Y-97362200D01*
X142825831Y-97362200D01*
X142639463Y-97401813D01*
X142465405Y-97479309D01*
X142355081Y-97559462D01*
X134262901Y-97559462D01*
X134211912Y-97522416D01*
X134047351Y-97449149D01*
X133871165Y-97411700D01*
X133871164Y-97411700D01*
X133691036Y-97411700D01*
X133691035Y-97411700D01*
X133514848Y-97449149D01*
X133350287Y-97522416D01*
X133204567Y-97628289D01*
X133084035Y-97762152D01*
X132993970Y-97918150D01*
X132938308Y-98089457D01*
X132919480Y-98268599D01*
X132402492Y-98268599D01*
X132382576Y-98079109D01*
X132323699Y-97897905D01*
X132228430Y-97732894D01*
X132200709Y-97702108D01*
X131634218Y-98268599D01*
X131347981Y-98268599D01*
X130781490Y-97702108D01*
X130753768Y-97732897D01*
X130658500Y-97897905D01*
X130599623Y-98079109D01*
X130579707Y-98268600D01*
X128292720Y-98268600D01*
X128273892Y-98089459D01*
X128218229Y-97918148D01*
X128128165Y-97762152D01*
X128007636Y-97628292D01*
X127912902Y-97559463D01*
X127912901Y-97559462D01*
X130925081Y-97559462D01*
X131491099Y-98125481D01*
X132057118Y-97559463D01*
X132057117Y-97559462D01*
X131946796Y-97479310D01*
X131772732Y-97401812D01*
X131586369Y-97362200D01*
X131395831Y-97362200D01*
X131209463Y-97401813D01*
X131035405Y-97479309D01*
X130925081Y-97559462D01*
X127912901Y-97559462D01*
X127861912Y-97522416D01*
X127697351Y-97449149D01*
X127521165Y-97411700D01*
X127521164Y-97411700D01*
X127341036Y-97411700D01*
X127341035Y-97411700D01*
X127164848Y-97449149D01*
X127000287Y-97522416D01*
X126854567Y-97628289D01*
X126734035Y-97762152D01*
X126643970Y-97918150D01*
X126588308Y-98089457D01*
X126569480Y-98268599D01*
X126052492Y-98268599D01*
X126032576Y-98079109D01*
X125973699Y-97897905D01*
X125878430Y-97732894D01*
X125850709Y-97702108D01*
X125284218Y-98268599D01*
X124997981Y-98268599D01*
X124431490Y-97702108D01*
X124403768Y-97732897D01*
X124308500Y-97897905D01*
X124249623Y-98079109D01*
X124229707Y-98268600D01*
X116862720Y-98268600D01*
X116843892Y-98089459D01*
X116788229Y-97918148D01*
X116698165Y-97762152D01*
X116577636Y-97628292D01*
X116482902Y-97559463D01*
X116482901Y-97559462D01*
X124575081Y-97559462D01*
X125141099Y-98125481D01*
X125707118Y-97559463D01*
X125707117Y-97559462D01*
X125596796Y-97479310D01*
X125422732Y-97401812D01*
X125236369Y-97362200D01*
X125045831Y-97362200D01*
X124859463Y-97401813D01*
X124685405Y-97479309D01*
X124575081Y-97559462D01*
X116482901Y-97559462D01*
X116431912Y-97522416D01*
X116267351Y-97449149D01*
X116091165Y-97411700D01*
X116091164Y-97411700D01*
X115911036Y-97411700D01*
X115911035Y-97411700D01*
X115734848Y-97449149D01*
X115570287Y-97522416D01*
X115424567Y-97628289D01*
X115304035Y-97762152D01*
X115213970Y-97918150D01*
X115158308Y-98089457D01*
X115139480Y-98268600D01*
X114622492Y-98268600D01*
X114602576Y-98079109D01*
X114543699Y-97897905D01*
X114448430Y-97732894D01*
X114420709Y-97702108D01*
X113854218Y-98268599D01*
X113567981Y-98268599D01*
X113001490Y-97702108D01*
X112973768Y-97732897D01*
X112878500Y-97897905D01*
X112819623Y-98079109D01*
X112799707Y-98268600D01*
X102816600Y-98268600D01*
X102816600Y-97559462D01*
X113145081Y-97559462D01*
X113711099Y-98125481D01*
X114277118Y-97559463D01*
X114277117Y-97559462D01*
X114166796Y-97479310D01*
X113992732Y-97401812D01*
X113806369Y-97362200D01*
X113615831Y-97362200D01*
X113429463Y-97401813D01*
X113255405Y-97479309D01*
X113145081Y-97559462D01*
X102816600Y-97559462D01*
X102816600Y-94157736D01*
X117455080Y-94157736D01*
X117565403Y-94237889D01*
X117739467Y-94315387D01*
X117925831Y-94355000D01*
X118116369Y-94355000D01*
X118302732Y-94315387D01*
X118476799Y-94237887D01*
X118587117Y-94157736D01*
X118587117Y-94157735D01*
X118021099Y-93591718D01*
X117455080Y-94157736D01*
X102816600Y-94157736D01*
X102816600Y-93448600D01*
X117109707Y-93448600D01*
X117129623Y-93638090D01*
X117188500Y-93819294D01*
X117283769Y-93984305D01*
X117311489Y-94015090D01*
X117877981Y-93448599D01*
X118164218Y-93448599D01*
X118730708Y-94015089D01*
X118758432Y-93984302D01*
X118853699Y-93819294D01*
X118912576Y-93638090D01*
X118932492Y-93448600D01*
X119199480Y-93448600D01*
X119218308Y-93627742D01*
X119273970Y-93799049D01*
X119273971Y-93799052D01*
X119364035Y-93955048D01*
X119484564Y-94088908D01*
X119630290Y-94194785D01*
X119794845Y-94268049D01*
X119794846Y-94268049D01*
X119794848Y-94268050D01*
X119971035Y-94305500D01*
X119971036Y-94305500D01*
X120151164Y-94305500D01*
X120151165Y-94305500D01*
X120327351Y-94268050D01*
X120327351Y-94268049D01*
X120327355Y-94268049D01*
X120491910Y-94194785D01*
X120637636Y-94088908D01*
X120758165Y-93955048D01*
X120848229Y-93799052D01*
X120903892Y-93627741D01*
X120922720Y-93448600D01*
X121239480Y-93448600D01*
X121258308Y-93627742D01*
X121313970Y-93799049D01*
X121313971Y-93799052D01*
X121404035Y-93955048D01*
X121524564Y-94088908D01*
X121670290Y-94194785D01*
X121834845Y-94268049D01*
X121834846Y-94268049D01*
X121834848Y-94268050D01*
X122011035Y-94305500D01*
X122011036Y-94305500D01*
X122191164Y-94305500D01*
X122191165Y-94305500D01*
X122367351Y-94268050D01*
X122367351Y-94268049D01*
X122367355Y-94268049D01*
X122531910Y-94194785D01*
X122582903Y-94157736D01*
X123575081Y-94157736D01*
X123685403Y-94237889D01*
X123859467Y-94315387D01*
X124045831Y-94355000D01*
X124236369Y-94355000D01*
X124422732Y-94315387D01*
X124596799Y-94237887D01*
X124707117Y-94157736D01*
X135235081Y-94157736D01*
X135345403Y-94237889D01*
X135519467Y-94315387D01*
X135705831Y-94355000D01*
X135896369Y-94355000D01*
X136082732Y-94315387D01*
X136256799Y-94237887D01*
X136367117Y-94157736D01*
X136367117Y-94157735D01*
X135801099Y-93591718D01*
X135235081Y-94157736D01*
X124707117Y-94157736D01*
X124707117Y-94157735D01*
X124141099Y-93591718D01*
X123575081Y-94157736D01*
X122582903Y-94157736D01*
X122677636Y-94088908D01*
X122798165Y-93955048D01*
X122888229Y-93799052D01*
X122943892Y-93627741D01*
X122962720Y-93448600D01*
X123229707Y-93448600D01*
X123249623Y-93638090D01*
X123308500Y-93819294D01*
X123403769Y-93984305D01*
X123431489Y-94015090D01*
X123997981Y-93448599D01*
X124284218Y-93448599D01*
X124850708Y-94015089D01*
X124878432Y-93984302D01*
X124973699Y-93819294D01*
X125032576Y-93638090D01*
X125052492Y-93448599D01*
X134889707Y-93448599D01*
X134909623Y-93638090D01*
X134968500Y-93819294D01*
X135063769Y-93984305D01*
X135091489Y-94015090D01*
X135657981Y-93448599D01*
X135944218Y-93448599D01*
X136510708Y-94015089D01*
X136538432Y-93984302D01*
X136633699Y-93819294D01*
X136692576Y-93638090D01*
X136712492Y-93448600D01*
X136979480Y-93448600D01*
X136998308Y-93627742D01*
X137053970Y-93799049D01*
X137053971Y-93799052D01*
X137144035Y-93955048D01*
X137264564Y-94088908D01*
X137410290Y-94194785D01*
X137574845Y-94268049D01*
X137574846Y-94268049D01*
X137574848Y-94268050D01*
X137751035Y-94305500D01*
X137751036Y-94305500D01*
X137931164Y-94305500D01*
X137931165Y-94305500D01*
X138107351Y-94268050D01*
X138107351Y-94268049D01*
X138107355Y-94268049D01*
X138271910Y-94194785D01*
X138417636Y-94088908D01*
X138538165Y-93955048D01*
X138628229Y-93799052D01*
X138683892Y-93627741D01*
X138702720Y-93448600D01*
X139019480Y-93448600D01*
X139038308Y-93627742D01*
X139093970Y-93799049D01*
X139093971Y-93799052D01*
X139184035Y-93955048D01*
X139304564Y-94088908D01*
X139450290Y-94194785D01*
X139614845Y-94268049D01*
X139614846Y-94268049D01*
X139614848Y-94268050D01*
X139791035Y-94305500D01*
X139791036Y-94305500D01*
X139971164Y-94305500D01*
X139971165Y-94305500D01*
X140147351Y-94268050D01*
X140147351Y-94268049D01*
X140147355Y-94268049D01*
X140311910Y-94194785D01*
X140362903Y-94157736D01*
X141355081Y-94157736D01*
X141465403Y-94237889D01*
X141639467Y-94315387D01*
X141825831Y-94355000D01*
X142016369Y-94355000D01*
X142202732Y-94315387D01*
X142376799Y-94237887D01*
X142487117Y-94157736D01*
X153015080Y-94157736D01*
X153125403Y-94237889D01*
X153299467Y-94315387D01*
X153485831Y-94355000D01*
X153676369Y-94355000D01*
X153862732Y-94315387D01*
X154036799Y-94237887D01*
X154147117Y-94157736D01*
X154147117Y-94157735D01*
X153581099Y-93591718D01*
X153015080Y-94157736D01*
X142487117Y-94157736D01*
X142487117Y-94157735D01*
X141921099Y-93591718D01*
X141355081Y-94157736D01*
X140362903Y-94157736D01*
X140457636Y-94088908D01*
X140578165Y-93955048D01*
X140668229Y-93799052D01*
X140723892Y-93627741D01*
X140742720Y-93448600D01*
X140742720Y-93448599D01*
X141009707Y-93448599D01*
X141029623Y-93638090D01*
X141088500Y-93819294D01*
X141183769Y-93984305D01*
X141211489Y-94015090D01*
X141777981Y-93448599D01*
X142064218Y-93448599D01*
X142630708Y-94015089D01*
X142658432Y-93984302D01*
X142753699Y-93819294D01*
X142812576Y-93638090D01*
X142832492Y-93448599D01*
X152669707Y-93448599D01*
X152689623Y-93638090D01*
X152748500Y-93819294D01*
X152843769Y-93984305D01*
X152871489Y-94015090D01*
X153437981Y-93448599D01*
X153724218Y-93448599D01*
X154290708Y-94015089D01*
X154318432Y-93984302D01*
X154413699Y-93819294D01*
X154472576Y-93638090D01*
X154492492Y-93448600D01*
X154759480Y-93448600D01*
X154778308Y-93627742D01*
X154833970Y-93799049D01*
X154833971Y-93799052D01*
X154924035Y-93955048D01*
X155044564Y-94088908D01*
X155190290Y-94194785D01*
X155354845Y-94268049D01*
X155354846Y-94268049D01*
X155354848Y-94268050D01*
X155531035Y-94305500D01*
X155531036Y-94305500D01*
X155711164Y-94305500D01*
X155711165Y-94305500D01*
X155887351Y-94268050D01*
X155887351Y-94268049D01*
X155887355Y-94268049D01*
X156051910Y-94194785D01*
X156197636Y-94088908D01*
X156318165Y-93955048D01*
X156408229Y-93799052D01*
X156463892Y-93627741D01*
X156482720Y-93448600D01*
X156799480Y-93448600D01*
X156818308Y-93627742D01*
X156873970Y-93799049D01*
X156873971Y-93799052D01*
X156964035Y-93955048D01*
X157084564Y-94088908D01*
X157230290Y-94194785D01*
X157394845Y-94268049D01*
X157394846Y-94268049D01*
X157394848Y-94268050D01*
X157571035Y-94305500D01*
X157571036Y-94305500D01*
X157751164Y-94305500D01*
X157751165Y-94305500D01*
X157927351Y-94268050D01*
X157927351Y-94268049D01*
X157927355Y-94268049D01*
X158091910Y-94194785D01*
X158142903Y-94157736D01*
X159135081Y-94157736D01*
X159245403Y-94237889D01*
X159419467Y-94315387D01*
X159605831Y-94355000D01*
X159796369Y-94355000D01*
X159982732Y-94315387D01*
X160156799Y-94237887D01*
X160267117Y-94157736D01*
X170795081Y-94157736D01*
X170905403Y-94237889D01*
X171079467Y-94315387D01*
X171265831Y-94355000D01*
X171456369Y-94355000D01*
X171642732Y-94315387D01*
X171816799Y-94237887D01*
X171927117Y-94157736D01*
X171927117Y-94157735D01*
X171361099Y-93591718D01*
X170795081Y-94157736D01*
X160267117Y-94157736D01*
X160267117Y-94157735D01*
X159701099Y-93591718D01*
X159135081Y-94157736D01*
X158142903Y-94157736D01*
X158237636Y-94088908D01*
X158358165Y-93955048D01*
X158448229Y-93799052D01*
X158503892Y-93627741D01*
X158522720Y-93448600D01*
X158522720Y-93448599D01*
X158789707Y-93448599D01*
X158809623Y-93638090D01*
X158868500Y-93819294D01*
X158963769Y-93984305D01*
X158991489Y-94015090D01*
X159557981Y-93448599D01*
X159844218Y-93448599D01*
X160410708Y-94015089D01*
X160438432Y-93984302D01*
X160533699Y-93819294D01*
X160592576Y-93638090D01*
X160612492Y-93448599D01*
X170449707Y-93448599D01*
X170469623Y-93638090D01*
X170528500Y-93819294D01*
X170623769Y-93984305D01*
X170651489Y-94015090D01*
X171217981Y-93448599D01*
X171504218Y-93448599D01*
X172070708Y-94015089D01*
X172098432Y-93984302D01*
X172193699Y-93819294D01*
X172252576Y-93638090D01*
X172272492Y-93448600D01*
X172539480Y-93448600D01*
X172558308Y-93627742D01*
X172613970Y-93799049D01*
X172613971Y-93799052D01*
X172704035Y-93955048D01*
X172824564Y-94088908D01*
X172970290Y-94194785D01*
X173134845Y-94268049D01*
X173134846Y-94268049D01*
X173134848Y-94268050D01*
X173311035Y-94305500D01*
X173311036Y-94305500D01*
X173491164Y-94305500D01*
X173491165Y-94305500D01*
X173667351Y-94268050D01*
X173667351Y-94268049D01*
X173667355Y-94268049D01*
X173831910Y-94194785D01*
X173977636Y-94088908D01*
X174098165Y-93955048D01*
X174188229Y-93799052D01*
X174243892Y-93627741D01*
X174262720Y-93448600D01*
X174579480Y-93448600D01*
X174598308Y-93627742D01*
X174653970Y-93799049D01*
X174653971Y-93799052D01*
X174744035Y-93955048D01*
X174864564Y-94088908D01*
X175010290Y-94194785D01*
X175174845Y-94268049D01*
X175174846Y-94268049D01*
X175174848Y-94268050D01*
X175351035Y-94305500D01*
X175351036Y-94305500D01*
X175531164Y-94305500D01*
X175531165Y-94305500D01*
X175707351Y-94268050D01*
X175707351Y-94268049D01*
X175707355Y-94268049D01*
X175871910Y-94194785D01*
X175922903Y-94157736D01*
X176915080Y-94157736D01*
X177025403Y-94237889D01*
X177199467Y-94315387D01*
X177385831Y-94355000D01*
X177576369Y-94355000D01*
X177762732Y-94315387D01*
X177936799Y-94237887D01*
X178047117Y-94157736D01*
X178047117Y-94157735D01*
X177481099Y-93591718D01*
X176915080Y-94157736D01*
X175922903Y-94157736D01*
X176017636Y-94088908D01*
X176138165Y-93955048D01*
X176228229Y-93799052D01*
X176283892Y-93627741D01*
X176302720Y-93448600D01*
X176302720Y-93448599D01*
X176569707Y-93448599D01*
X176589623Y-93638090D01*
X176648500Y-93819294D01*
X176743769Y-93984305D01*
X176771489Y-94015090D01*
X177337981Y-93448599D01*
X176771490Y-92882108D01*
X176743768Y-92912897D01*
X176648500Y-93077905D01*
X176589623Y-93259109D01*
X176569707Y-93448599D01*
X176302720Y-93448599D01*
X176283892Y-93269459D01*
X176228229Y-93098148D01*
X176138165Y-92942152D01*
X176017636Y-92808292D01*
X175922902Y-92739463D01*
X175871912Y-92702416D01*
X175869414Y-92701304D01*
X175707355Y-92629151D01*
X175707351Y-92629149D01*
X175531165Y-92591700D01*
X175531164Y-92591700D01*
X175351036Y-92591700D01*
X175351035Y-92591700D01*
X175174848Y-92629149D01*
X175010287Y-92702416D01*
X174864567Y-92808289D01*
X174744035Y-92942152D01*
X174653970Y-93098150D01*
X174598308Y-93269457D01*
X174579480Y-93448600D01*
X174262720Y-93448600D01*
X174243892Y-93269459D01*
X174188229Y-93098148D01*
X174098165Y-92942152D01*
X173977636Y-92808292D01*
X173882902Y-92739463D01*
X173831912Y-92702416D01*
X173829414Y-92701304D01*
X173667355Y-92629151D01*
X173667351Y-92629149D01*
X173491165Y-92591700D01*
X173491164Y-92591700D01*
X173311036Y-92591700D01*
X173311035Y-92591700D01*
X173134848Y-92629149D01*
X172970287Y-92702416D01*
X172824567Y-92808289D01*
X172704035Y-92942152D01*
X172613970Y-93098150D01*
X172558308Y-93269457D01*
X172539480Y-93448600D01*
X172272492Y-93448600D01*
X172272492Y-93448599D01*
X172252576Y-93259109D01*
X172193699Y-93077905D01*
X172098430Y-92912894D01*
X172070709Y-92882108D01*
X171504218Y-93448599D01*
X171217981Y-93448599D01*
X170651490Y-92882108D01*
X170623768Y-92912897D01*
X170528500Y-93077905D01*
X170469623Y-93259109D01*
X170449707Y-93448599D01*
X160612492Y-93448599D01*
X160592576Y-93259109D01*
X160533699Y-93077905D01*
X160438430Y-92912894D01*
X160410709Y-92882108D01*
X159844218Y-93448599D01*
X159557981Y-93448599D01*
X158991490Y-92882108D01*
X158963768Y-92912897D01*
X158868500Y-93077905D01*
X158809623Y-93259109D01*
X158789707Y-93448599D01*
X158522720Y-93448599D01*
X158503892Y-93269459D01*
X158448229Y-93098148D01*
X158358165Y-92942152D01*
X158237636Y-92808292D01*
X158142902Y-92739463D01*
X158142901Y-92739462D01*
X159135081Y-92739462D01*
X159701099Y-93305481D01*
X160267118Y-92739463D01*
X160267117Y-92739462D01*
X170795081Y-92739462D01*
X171361099Y-93305481D01*
X171927118Y-92739463D01*
X171927117Y-92739462D01*
X171816796Y-92659310D01*
X171642732Y-92581812D01*
X171456369Y-92542200D01*
X171265831Y-92542200D01*
X171079463Y-92581813D01*
X170905405Y-92659309D01*
X170795081Y-92739462D01*
X160267117Y-92739462D01*
X160156796Y-92659310D01*
X159982732Y-92581812D01*
X159796369Y-92542200D01*
X159605831Y-92542200D01*
X159419463Y-92581813D01*
X159245405Y-92659309D01*
X159135081Y-92739462D01*
X158142901Y-92739462D01*
X158091912Y-92702416D01*
X158089414Y-92701304D01*
X157927355Y-92629151D01*
X157927351Y-92629149D01*
X157751165Y-92591700D01*
X157751164Y-92591700D01*
X157571036Y-92591700D01*
X157571035Y-92591700D01*
X157394848Y-92629149D01*
X157230287Y-92702416D01*
X157084567Y-92808289D01*
X156964035Y-92942152D01*
X156873970Y-93098150D01*
X156818308Y-93269457D01*
X156799480Y-93448600D01*
X156482720Y-93448600D01*
X156463892Y-93269459D01*
X156408229Y-93098148D01*
X156318165Y-92942152D01*
X156197636Y-92808292D01*
X156102902Y-92739463D01*
X156051912Y-92702416D01*
X156049414Y-92701304D01*
X155887355Y-92629151D01*
X155887351Y-92629149D01*
X155711165Y-92591700D01*
X155711164Y-92591700D01*
X155531036Y-92591700D01*
X155531035Y-92591700D01*
X155354848Y-92629149D01*
X155190287Y-92702416D01*
X155044567Y-92808289D01*
X154924035Y-92942152D01*
X154833970Y-93098150D01*
X154778308Y-93269457D01*
X154759480Y-93448600D01*
X154492492Y-93448600D01*
X154492492Y-93448599D01*
X154472576Y-93259109D01*
X154413699Y-93077905D01*
X154318430Y-92912894D01*
X154290709Y-92882108D01*
X153724218Y-93448599D01*
X153437981Y-93448599D01*
X152871490Y-92882108D01*
X152843768Y-92912897D01*
X152748500Y-93077905D01*
X152689623Y-93259109D01*
X152669707Y-93448599D01*
X142832492Y-93448599D01*
X142812576Y-93259109D01*
X142753699Y-93077905D01*
X142658430Y-92912894D01*
X142630709Y-92882108D01*
X142064218Y-93448599D01*
X141777981Y-93448599D01*
X141211490Y-92882108D01*
X141183768Y-92912897D01*
X141088500Y-93077905D01*
X141029623Y-93259109D01*
X141009707Y-93448599D01*
X140742720Y-93448599D01*
X140723892Y-93269459D01*
X140668229Y-93098148D01*
X140578165Y-92942152D01*
X140457636Y-92808292D01*
X140362902Y-92739463D01*
X140362901Y-92739462D01*
X141355081Y-92739462D01*
X141921099Y-93305481D01*
X142487118Y-92739463D01*
X142487117Y-92739462D01*
X153015081Y-92739462D01*
X153581099Y-93305481D01*
X154147118Y-92739463D01*
X154147117Y-92739462D01*
X154036796Y-92659310D01*
X153862732Y-92581812D01*
X153676369Y-92542200D01*
X153485831Y-92542200D01*
X153299463Y-92581813D01*
X153125405Y-92659309D01*
X153015081Y-92739462D01*
X142487117Y-92739462D01*
X142376796Y-92659310D01*
X142202732Y-92581812D01*
X142016369Y-92542200D01*
X141825831Y-92542200D01*
X141639463Y-92581813D01*
X141465405Y-92659309D01*
X141355081Y-92739462D01*
X140362901Y-92739462D01*
X140311912Y-92702416D01*
X140309414Y-92701304D01*
X140147355Y-92629151D01*
X140147351Y-92629149D01*
X139971165Y-92591700D01*
X139971164Y-92591700D01*
X139791036Y-92591700D01*
X139791035Y-92591700D01*
X139614848Y-92629149D01*
X139450287Y-92702416D01*
X139304567Y-92808289D01*
X139184035Y-92942152D01*
X139093970Y-93098150D01*
X139038308Y-93269457D01*
X139019480Y-93448600D01*
X138702720Y-93448600D01*
X138683892Y-93269459D01*
X138628229Y-93098148D01*
X138538165Y-92942152D01*
X138417636Y-92808292D01*
X138322902Y-92739463D01*
X138271912Y-92702416D01*
X138269414Y-92701304D01*
X138107355Y-92629151D01*
X138107351Y-92629149D01*
X137931165Y-92591700D01*
X137931164Y-92591700D01*
X137751036Y-92591700D01*
X137751035Y-92591700D01*
X137574848Y-92629149D01*
X137410287Y-92702416D01*
X137264567Y-92808289D01*
X137144035Y-92942152D01*
X137053970Y-93098150D01*
X136998308Y-93269457D01*
X136979480Y-93448600D01*
X136712492Y-93448600D01*
X136712492Y-93448599D01*
X136692576Y-93259109D01*
X136633699Y-93077905D01*
X136538430Y-92912894D01*
X136510709Y-92882108D01*
X135944218Y-93448599D01*
X135657981Y-93448599D01*
X135091490Y-92882108D01*
X135063768Y-92912897D01*
X134968500Y-93077905D01*
X134909623Y-93259109D01*
X134889707Y-93448599D01*
X125052492Y-93448599D01*
X125032576Y-93259109D01*
X124973699Y-93077905D01*
X124878430Y-92912894D01*
X124850709Y-92882108D01*
X124284218Y-93448599D01*
X123997981Y-93448599D01*
X123431490Y-92882108D01*
X123403768Y-92912897D01*
X123308500Y-93077905D01*
X123249623Y-93259109D01*
X123229707Y-93448600D01*
X122962720Y-93448600D01*
X122943892Y-93269459D01*
X122888229Y-93098148D01*
X122798165Y-92942152D01*
X122677636Y-92808292D01*
X122582902Y-92739463D01*
X122582901Y-92739462D01*
X123575081Y-92739462D01*
X124141099Y-93305481D01*
X124707118Y-92739463D01*
X124707117Y-92739462D01*
X135235081Y-92739462D01*
X135801099Y-93305481D01*
X136367118Y-92739463D01*
X136367117Y-92739462D01*
X136256796Y-92659310D01*
X136082732Y-92581812D01*
X135896369Y-92542200D01*
X135705831Y-92542200D01*
X135519463Y-92581813D01*
X135345405Y-92659309D01*
X135235081Y-92739462D01*
X124707117Y-92739462D01*
X124596796Y-92659310D01*
X124422732Y-92581812D01*
X124236369Y-92542200D01*
X124045831Y-92542200D01*
X123859463Y-92581813D01*
X123685405Y-92659309D01*
X123575081Y-92739462D01*
X122582901Y-92739462D01*
X122531912Y-92702416D01*
X122529414Y-92701304D01*
X122367355Y-92629151D01*
X122367351Y-92629149D01*
X122191165Y-92591700D01*
X122191164Y-92591700D01*
X122011036Y-92591700D01*
X122011035Y-92591700D01*
X121834848Y-92629149D01*
X121670287Y-92702416D01*
X121524567Y-92808289D01*
X121404035Y-92942152D01*
X121313970Y-93098150D01*
X121258308Y-93269457D01*
X121239480Y-93448600D01*
X120922720Y-93448600D01*
X120903892Y-93269459D01*
X120848229Y-93098148D01*
X120758165Y-92942152D01*
X120637636Y-92808292D01*
X120542902Y-92739463D01*
X120491912Y-92702416D01*
X120489414Y-92701304D01*
X120327355Y-92629151D01*
X120327351Y-92629149D01*
X120151165Y-92591700D01*
X120151164Y-92591700D01*
X119971036Y-92591700D01*
X119971035Y-92591700D01*
X119794848Y-92629149D01*
X119630287Y-92702416D01*
X119484567Y-92808289D01*
X119364035Y-92942152D01*
X119273970Y-93098150D01*
X119218308Y-93269457D01*
X119199480Y-93448600D01*
X118932492Y-93448600D01*
X118912576Y-93259109D01*
X118853699Y-93077905D01*
X118758430Y-92912894D01*
X118730709Y-92882108D01*
X118164218Y-93448599D01*
X117877981Y-93448599D01*
X117311490Y-92882108D01*
X117283768Y-92912897D01*
X117188500Y-93077905D01*
X117129623Y-93259109D01*
X117109707Y-93448600D01*
X102816600Y-93448600D01*
X102816600Y-92739462D01*
X117455081Y-92739462D01*
X118021099Y-93305481D01*
X118587118Y-92739463D01*
X118587117Y-92739462D01*
X118476796Y-92659310D01*
X118302732Y-92581812D01*
X118116369Y-92542200D01*
X117925831Y-92542200D01*
X117739463Y-92581813D01*
X117565405Y-92659309D01*
X117455081Y-92739462D01*
X102816600Y-92739462D01*
X102816600Y-89196366D01*
X106016888Y-89196366D01*
X106039941Y-89405885D01*
X106046514Y-89465618D01*
X106081098Y-89597905D01*
X106115028Y-89727689D01*
X106220970Y-89976992D01*
X106362080Y-90208207D01*
X106535357Y-90416423D01*
X106707462Y-90570628D01*
X106737098Y-90597182D01*
X106871694Y-90686230D01*
X106963011Y-90746645D01*
X107208274Y-90861620D01*
X107286097Y-90885033D01*
X107467669Y-90939660D01*
X107735661Y-90979100D01*
X107938731Y-90979100D01*
X107938732Y-90979100D01*
X108141257Y-90964277D01*
X108251774Y-90939658D01*
X108405653Y-90905380D01*
X108658658Y-90808614D01*
X108894877Y-90676041D01*
X109109277Y-90510488D01*
X109297286Y-90315481D01*
X109454899Y-90095179D01*
X109578756Y-89854275D01*
X109666218Y-89597905D01*
X109715419Y-89331533D01*
X109720325Y-89197281D01*
X112341838Y-89197281D01*
X112371863Y-89470166D01*
X112441304Y-89735783D01*
X112548677Y-89988454D01*
X112682791Y-90208207D01*
X112691695Y-90222796D01*
X112867309Y-90433818D01*
X113071777Y-90617023D01*
X113071779Y-90617024D01*
X113300742Y-90768505D01*
X113549319Y-90885033D01*
X113625281Y-90907886D01*
X113812219Y-90964127D01*
X114083831Y-91004100D01*
X114289647Y-91004100D01*
X114289648Y-91004100D01*
X114494906Y-90989077D01*
X114584228Y-90969179D01*
X114762875Y-90929384D01*
X115019298Y-90831311D01*
X115258709Y-90696947D01*
X115476004Y-90529157D01*
X115666554Y-90331516D01*
X115826296Y-90108237D01*
X115951827Y-89864079D01*
X116040470Y-89604246D01*
X116090336Y-89334274D01*
X116100362Y-89059920D01*
X116070336Y-88787029D01*
X116000896Y-88521418D01*
X115946376Y-88393121D01*
X115893522Y-88268745D01*
X115750506Y-88034406D01*
X115750505Y-88034404D01*
X115574891Y-87823382D01*
X115370423Y-87640177D01*
X115370420Y-87640175D01*
X115141457Y-87488694D01*
X114892880Y-87372166D01*
X114629984Y-87293074D01*
X114629981Y-87293073D01*
X114358369Y-87253100D01*
X114152553Y-87253100D01*
X114152552Y-87253100D01*
X113947293Y-87268122D01*
X113679326Y-87327815D01*
X113422901Y-87425889D01*
X113183496Y-87560249D01*
X112966190Y-87728047D01*
X112775647Y-87925682D01*
X112615906Y-88148959D01*
X112490372Y-88393123D01*
X112401729Y-88652953D01*
X112351863Y-88922929D01*
X112341838Y-89197281D01*
X109720325Y-89197281D01*
X109725312Y-89060835D01*
X109695686Y-88791582D01*
X109627172Y-88529512D01*
X109521230Y-88280210D01*
X109521229Y-88280207D01*
X109380119Y-88048992D01*
X109380118Y-88048990D01*
X109247313Y-87889408D01*
X109206842Y-87840776D01*
X109005103Y-87660019D01*
X109005102Y-87660018D01*
X108885905Y-87581158D01*
X108779188Y-87510554D01*
X108533925Y-87395579D01*
X108274534Y-87317541D01*
X108274531Y-87317540D01*
X108006539Y-87278100D01*
X107803469Y-87278100D01*
X107803468Y-87278100D01*
X107600942Y-87292922D01*
X107336548Y-87351819D01*
X107083541Y-87448586D01*
X106847324Y-87581158D01*
X106632924Y-87746710D01*
X106444912Y-87941721D01*
X106287303Y-88162017D01*
X106163443Y-88402927D01*
X106075981Y-88659294D01*
X106026780Y-88925670D01*
X106016888Y-89196366D01*
X102816600Y-89196366D01*
X102816600Y-88922359D01*
X102816632Y-88920826D01*
X102821977Y-88791582D01*
X102833527Y-88512331D01*
X102833777Y-88509302D01*
X102884259Y-88104319D01*
X102884757Y-88101340D01*
X102968506Y-87701915D01*
X102969244Y-87698998D01*
X103085701Y-87307828D01*
X103086684Y-87304967D01*
X103235034Y-86924780D01*
X103236255Y-86921996D01*
X103415490Y-86555365D01*
X103416930Y-86552703D01*
X103625829Y-86202124D01*
X103627506Y-86199558D01*
X103864644Y-85867427D01*
X103866501Y-85865041D01*
X104130256Y-85553625D01*
X104132308Y-85551395D01*
X104420895Y-85262808D01*
X104423125Y-85260756D01*
X104734541Y-84997001D01*
X104736927Y-84995144D01*
X105069058Y-84758005D01*
X105071625Y-84756329D01*
X105422203Y-84547430D01*
X105424865Y-84545990D01*
X105791496Y-84366755D01*
X105794280Y-84365534D01*
X106174467Y-84217184D01*
X106177328Y-84216201D01*
X106568498Y-84099744D01*
X106571415Y-84099006D01*
X106970840Y-84015257D01*
X106973819Y-84014759D01*
X107378802Y-83964277D01*
X107381831Y-83964027D01*
X107790326Y-83947131D01*
X107791859Y-83947100D01*
X107799385Y-83947100D01*
X123046090Y-83947100D01*
X123072266Y-83957909D01*
G37*
%TD.AperFunction*%
%TD*%
M02*
